solid CATIA STL
  facet normal  9.238795e-001 -3.826835e-001 -1.704133e-017
    outer loop
      vertex  2.000000e+000  0.000000e+000  5.500000e+000
      vertex  2.000000e+000 -4.898425e-016  1.650000e+001
      vertex  1.414214e+000 -1.414214e+000  5.500000e+000
    endloop
  endfacet
  facet normal  9.238795e-001 -3.826835e-001  0.000000e+000
    outer loop
      vertex  1.414214e+000 -1.414214e+000  5.500000e+000
      vertex  2.000000e+000 -4.898425e-016  1.650000e+001
      vertex  1.414214e+000 -1.414214e+000  1.650000e+001
    endloop
  endfacet
  facet normal  3.826835e-001 -9.238795e-001  0.000000e+000
    outer loop
      vertex  1.414214e+000 -1.414214e+000  5.500000e+000
      vertex  1.414214e+000 -1.414214e+000  1.650000e+001
      vertex  5.719166e-017 -2.000000e+000  5.500000e+000
    endloop
  endfacet
  facet normal  3.826835e-001 -9.238795e-001  1.477066e-017
    outer loop
      vertex  5.719166e-017 -2.000000e+000  5.500000e+000
      vertex  1.414214e+000 -1.414214e+000  1.650000e+001
      vertex -3.673819e-016 -2.000000e+000  1.650000e+001
    endloop
  endfacet
  facet normal -3.826835e-001 -9.238795e-001 -1.477066e-017
    outer loop
      vertex  5.719166e-017 -2.000000e+000  5.500000e+000
      vertex -3.673819e-016 -2.000000e+000  1.650000e+001
      vertex -1.414214e+000 -1.414214e+000  5.500000e+000
    endloop
  endfacet
  facet normal -3.826835e-001 -9.238795e-001  0.000000e+000
    outer loop
      vertex -1.414214e+000 -1.414214e+000  5.500000e+000
      vertex -3.673819e-016 -2.000000e+000  1.650000e+001
      vertex -1.414214e+000 -1.414214e+000  1.650000e+001
    endloop
  endfacet
  facet normal -9.238795e-001 -3.826835e-001  0.000000e+000
    outer loop
      vertex -1.414214e+000 -1.414214e+000  5.500000e+000
      vertex -1.414214e+000 -1.414214e+000  1.650000e+001
      vertex -2.000000e+000  2.449213e-016  5.500000e+000
    endloop
  endfacet
  facet normal -9.238795e-001 -3.826835e-001  0.000000e+000
    outer loop
      vertex -2.000000e+000  2.449213e-016  5.500000e+000
      vertex -1.414214e+000 -1.414214e+000  1.650000e+001
      vertex -2.000000e+000  2.449213e-016  1.650000e+001
    endloop
  endfacet
  facet normal -9.238795e-001  3.826835e-001  0.000000e+000
    outer loop
      vertex -2.000000e+000  2.449213e-016  5.500000e+000
      vertex -2.000000e+000  2.449213e-016  1.650000e+001
      vertex -1.414214e+000  1.414214e+000  5.500000e+000
    endloop
  endfacet
  facet normal -9.238795e-001  3.826835e-001  0.000000e+000
    outer loop
      vertex -1.414214e+000  1.414214e+000  5.500000e+000
      vertex -2.000000e+000  2.449213e-016  1.650000e+001
      vertex -1.414214e+000  1.414214e+000  1.650000e+001
    endloop
  endfacet
  facet normal -3.826835e-001  9.238795e-001  0.000000e+000
    outer loop
      vertex -1.414214e+000  1.414214e+000  5.500000e+000
      vertex -1.414214e+000  1.414214e+000  1.650000e+001
      vertex -3.673819e-016  2.000000e+000  5.500000e+000
    endloop
  endfacet
  facet normal -3.826835e-001  9.238795e-001  1.704133e-017
    outer loop
      vertex -3.673819e-016  2.000000e+000  5.500000e+000
      vertex -1.414214e+000  1.414214e+000  1.650000e+001
      vertex  1.224606e-016  2.000000e+000  1.650000e+001
    endloop
  endfacet
  facet normal  3.826835e-001  9.238795e-001 -1.704133e-017
    outer loop
      vertex -3.673819e-016  2.000000e+000  5.500000e+000
      vertex  1.224606e-016  2.000000e+000  1.650000e+001
      vertex  1.414214e+000  1.414214e+000  5.500000e+000
    endloop
  endfacet
  facet normal  3.826835e-001  9.238795e-001  0.000000e+000
    outer loop
      vertex  1.414214e+000  1.414214e+000  5.500000e+000
      vertex  1.224606e-016  2.000000e+000  1.650000e+001
      vertex  1.414214e+000  1.414214e+000  1.650000e+001
    endloop
  endfacet
  facet normal  9.238795e-001  3.826835e-001  0.000000e+000
    outer loop
      vertex  1.414214e+000  1.414214e+000  5.500000e+000
      vertex  1.414214e+000  1.414214e+000  1.650000e+001
      vertex  2.000000e+000  0.000000e+000  5.500000e+000
    endloop
  endfacet
  facet normal  9.238795e-001  3.826835e-001  1.704133e-017
    outer loop
      vertex  2.000000e+000  0.000000e+000  5.500000e+000
      vertex  1.414214e+000  1.414214e+000  1.650000e+001
      vertex  2.000000e+000 -4.898425e-016  1.650000e+001
    endloop
  endfacet
  facet normal  0.000000e+000  0.000000e+000  1.000000e+000
    outer loop
      vertex -1.060660e+000  1.060660e+000  1.700000e+001
      vertex  1.060660e+000  1.060660e+000  1.700000e+001
      vertex -6.186058e-009  1.500000e+000  1.700000e+001
    endloop
  endfacet
  facet normal  0.000000e+000  0.000000e+000  1.000000e+000
    outer loop
      vertex  1.060660e+000  1.060660e+000  1.700000e+001
      vertex -1.060660e+000  1.060660e+000  1.700000e+001
      vertex  1.500000e+000 -1.979550e-015  1.700000e+001
    endloop
  endfacet
  facet normal  0.000000e+000  0.000000e+000  1.000000e+000
    outer loop
      vertex  1.500000e+000 -1.979550e-015  1.700000e+001
      vertex -1.060660e+000  1.060660e+000  1.700000e+001
      vertex -1.500000e+000 -1.237194e-008  1.700000e+001
    endloop
  endfacet
  facet normal  0.000000e+000  0.000000e+000  1.000000e+000
    outer loop
      vertex  1.500000e+000 -1.979550e-015  1.700000e+001
      vertex -1.500000e+000 -1.237194e-008  1.700000e+001
      vertex  1.060660e+000 -1.060660e+000  1.700000e+001
    endloop
  endfacet
  facet normal  0.000000e+000  0.000000e+000  1.000000e+000
    outer loop
      vertex  1.060660e+000 -1.060660e+000  1.700000e+001
      vertex -1.500000e+000 -1.237194e-008  1.700000e+001
      vertex -1.060660e+000 -1.060660e+000  1.700000e+001
    endloop
  endfacet
  facet normal  0.000000e+000  0.000000e+000  1.000000e+000
    outer loop
      vertex  1.060660e+000 -1.060660e+000  1.700000e+001
      vertex -1.060660e+000 -1.060660e+000  1.700000e+001
      vertex -4.779308e-014 -1.500000e+000  1.700000e+001
    endloop
  endfacet
  facet normal -6.785983e-001 -2.810847e-001  6.785983e-001
    outer loop
      vertex -1.500000e+000 -1.237194e-008  1.700000e+001
      vertex -2.000000e+000  2.449213e-016  1.650000e+001
      vertex -1.060660e+000 -1.060660e+000  1.700000e+001
    endloop
  endfacet
  facet normal -6.785983e-001 -2.810847e-001  6.785983e-001
    outer loop
      vertex -1.060660e+000 -1.060660e+000  1.700000e+001
      vertex -2.000000e+000  2.449213e-016  1.650000e+001
      vertex -1.414214e+000 -1.414214e+000  1.650000e+001
    endloop
  endfacet
  facet normal -2.810847e-001 -6.785983e-001  6.785984e-001
    outer loop
      vertex -1.060660e+000 -1.060660e+000  1.700000e+001
      vertex -1.414214e+000 -1.414214e+000  1.650000e+001
      vertex -4.779308e-014 -1.500000e+000  1.700000e+001
    endloop
  endfacet
  facet normal -2.810847e-001 -6.785983e-001  6.785983e-001
    outer loop
      vertex -4.779308e-014 -1.500000e+000  1.700000e+001
      vertex -1.414214e+000 -1.414214e+000  1.650000e+001
      vertex -3.673819e-016 -2.000000e+000  1.650000e+001
    endloop
  endfacet
  facet normal  2.810847e-001 -6.785983e-001  6.785983e-001
    outer loop
      vertex -4.779308e-014 -1.500000e+000  1.700000e+001
      vertex -3.673819e-016 -2.000000e+000  1.650000e+001
      vertex  1.060660e+000 -1.060660e+000  1.700000e+001
    endloop
  endfacet
  facet normal  2.810847e-001 -6.785983e-001  6.785983e-001
    outer loop
      vertex  1.060660e+000 -1.060660e+000  1.700000e+001
      vertex -3.673819e-016 -2.000000e+000  1.650000e+001
      vertex  1.414214e+000 -1.414214e+000  1.650000e+001
    endloop
  endfacet
  facet normal  6.785983e-001 -2.810847e-001  6.785984e-001
    outer loop
      vertex  1.060660e+000 -1.060660e+000  1.700000e+001
      vertex  1.414214e+000 -1.414214e+000  1.650000e+001
      vertex  1.500000e+000 -1.979550e-015  1.700000e+001
    endloop
  endfacet
  facet normal  6.785983e-001 -2.810847e-001  6.785983e-001
    outer loop
      vertex  1.500000e+000 -1.979550e-015  1.700000e+001
      vertex  1.414214e+000 -1.414214e+000  1.650000e+001
      vertex  2.000000e+000 -4.898425e-016  1.650000e+001
    endloop
  endfacet
  facet normal  6.785983e-001  2.810847e-001  6.785983e-001
    outer loop
      vertex  1.500000e+000 -1.979550e-015  1.700000e+001
      vertex  2.000000e+000 -4.898425e-016  1.650000e+001
      vertex  1.060660e+000  1.060660e+000  1.700000e+001
    endloop
  endfacet
  facet normal  6.785983e-001  2.810847e-001  6.785983e-001
    outer loop
      vertex  1.060660e+000  1.060660e+000  1.700000e+001
      vertex  2.000000e+000 -4.898425e-016  1.650000e+001
      vertex  1.414214e+000  1.414214e+000  1.650000e+001
    endloop
  endfacet
  facet normal  2.810847e-001  6.785983e-001  6.785984e-001
    outer loop
      vertex  1.060660e+000  1.060660e+000  1.700000e+001
      vertex  1.414214e+000  1.414214e+000  1.650000e+001
      vertex -6.186058e-009  1.500000e+000  1.700000e+001
    endloop
  endfacet
  facet normal  2.810847e-001  6.785983e-001  6.785983e-001
    outer loop
      vertex -6.186058e-009  1.500000e+000  1.700000e+001
      vertex  1.414214e+000  1.414214e+000  1.650000e+001
      vertex  1.224606e-016  2.000000e+000  1.650000e+001
    endloop
  endfacet
  facet normal -2.810847e-001  6.785983e-001  6.785983e-001
    outer loop
      vertex -6.186058e-009  1.500000e+000  1.700000e+001
      vertex  1.224606e-016  2.000000e+000  1.650000e+001
      vertex -1.060660e+000  1.060660e+000  1.700000e+001
    endloop
  endfacet
  facet normal -2.810847e-001  6.785983e-001  6.785983e-001
    outer loop
      vertex -1.060660e+000  1.060660e+000  1.700000e+001
      vertex  1.224606e-016  2.000000e+000  1.650000e+001
      vertex -1.414214e+000  1.414214e+000  1.650000e+001
    endloop
  endfacet
  facet normal -6.785983e-001  2.810847e-001  6.785984e-001
    outer loop
      vertex -1.060660e+000  1.060660e+000  1.700000e+001
      vertex -1.414214e+000  1.414214e+000  1.650000e+001
      vertex -1.500000e+000 -1.237194e-008  1.700000e+001
    endloop
  endfacet
  facet normal -6.785983e-001  2.810847e-001  6.785983e-001
    outer loop
      vertex -1.500000e+000 -1.237194e-008  1.700000e+001
      vertex -1.414214e+000  1.414214e+000  1.650000e+001
      vertex -2.000000e+000  2.449213e-016  1.650000e+001
    endloop
  endfacet
  facet normal -9.238795e-001  3.826835e-001  0.000000e+000
    outer loop
      vertex -2.000000e+000  2.449213e-016  0.000000e+000
      vertex -2.000000e+000  2.449213e-016  4.500000e+000
      vertex -1.414214e+000  1.414214e+000  0.000000e+000
    endloop
  endfacet
  facet normal -9.238795e-001  3.826835e-001  0.000000e+000
    outer loop
      vertex -1.414214e+000  1.414214e+000  0.000000e+000
      vertex -2.000000e+000  2.449213e-016  4.500000e+000
      vertex -1.414214e+000  1.414214e+000  4.500000e+000
    endloop
  endfacet
  facet normal -3.826835e-001  9.238795e-001  0.000000e+000
    outer loop
      vertex -1.414214e+000  1.414214e+000  0.000000e+000
      vertex -1.414214e+000  1.414214e+000  4.500000e+000
      vertex  1.224606e-016  2.000000e+000  0.000000e+000
    endloop
  endfacet
  facet normal -3.826835e-001  9.238795e-001 -4.165659e-017
    outer loop
      vertex  1.224606e-016  2.000000e+000  0.000000e+000
      vertex -1.414214e+000  1.414214e+000  4.500000e+000
      vertex -3.673819e-016  2.000000e+000  4.500000e+000
    endloop
  endfacet
  facet normal  3.826835e-001  9.238795e-001  4.165659e-017
    outer loop
      vertex  1.224606e-016  2.000000e+000  0.000000e+000
      vertex -3.673819e-016  2.000000e+000  4.500000e+000
      vertex  1.414214e+000  1.414214e+000  0.000000e+000
    endloop
  endfacet
  facet normal  3.826835e-001  9.238795e-001  0.000000e+000
    outer loop
      vertex  1.414214e+000  1.414214e+000  0.000000e+000
      vertex -3.673819e-016  2.000000e+000  4.500000e+000
      vertex  1.414214e+000  1.414214e+000  4.500000e+000
    endloop
  endfacet
  facet normal  9.238795e-001  3.826835e-001  0.000000e+000
    outer loop
      vertex  1.414214e+000  1.414214e+000  0.000000e+000
      vertex  1.414214e+000  1.414214e+000  4.500000e+000
      vertex  2.000000e+000  0.000000e+000  0.000000e+000
    endloop
  endfacet
  facet normal  9.238795e-001  3.826835e-001  0.000000e+000
    outer loop
      vertex  2.000000e+000  0.000000e+000  0.000000e+000
      vertex  1.414214e+000  1.414214e+000  4.500000e+000
      vertex  2.000000e+000  0.000000e+000  4.500000e+000
    endloop
  endfacet
  facet normal  9.238795e-001 -3.826835e-001  0.000000e+000
    outer loop
      vertex  2.000000e+000  0.000000e+000  0.000000e+000
      vertex  2.000000e+000  0.000000e+000  4.500000e+000
      vertex  1.414214e+000 -1.414214e+000  0.000000e+000
    endloop
  endfacet
  facet normal  9.238795e-001 -3.826835e-001  0.000000e+000
    outer loop
      vertex  1.414214e+000 -1.414214e+000  0.000000e+000
      vertex  2.000000e+000  0.000000e+000  4.500000e+000
      vertex  1.414214e+000 -1.414214e+000  4.500000e+000
    endloop
  endfacet
  facet normal  3.826835e-001 -9.238795e-001  0.000000e+000
    outer loop
      vertex  1.414214e+000 -1.414214e+000  0.000000e+000
      vertex  1.414214e+000 -1.414214e+000  4.500000e+000
      vertex -3.673819e-016 -2.000000e+000  0.000000e+000
    endloop
  endfacet
  facet normal  3.826835e-001 -9.238795e-001 -3.610606e-017
    outer loop
      vertex -3.673819e-016 -2.000000e+000  0.000000e+000
      vertex  1.414214e+000 -1.414214e+000  4.500000e+000
      vertex  5.719166e-017 -2.000000e+000  4.500000e+000
    endloop
  endfacet
  facet normal -3.826835e-001 -9.238795e-001  3.610606e-017
    outer loop
      vertex -3.673819e-016 -2.000000e+000  0.000000e+000
      vertex  5.719166e-017 -2.000000e+000  4.500000e+000
      vertex -1.414214e+000 -1.414214e+000  0.000000e+000
    endloop
  endfacet
  facet normal -3.826835e-001 -9.238795e-001  0.000000e+000
    outer loop
      vertex -1.414214e+000 -1.414214e+000  0.000000e+000
      vertex  5.719166e-017 -2.000000e+000  4.500000e+000
      vertex -1.414214e+000 -1.414214e+000  4.500000e+000
    endloop
  endfacet
  facet normal -9.238795e-001 -3.826835e-001  0.000000e+000
    outer loop
      vertex -1.414214e+000 -1.414214e+000  0.000000e+000
      vertex -1.414214e+000 -1.414214e+000  4.500000e+000
      vertex -2.000000e+000  2.449213e-016  0.000000e+000
    endloop
  endfacet
  facet normal -9.238795e-001 -3.826835e-001  0.000000e+000
    outer loop
      vertex -2.000000e+000  2.449213e-016  0.000000e+000
      vertex -1.414214e+000 -1.414214e+000  4.500000e+000
      vertex -2.000000e+000  2.449213e-016  4.500000e+000
    endloop
  endfacet
  facet normal  0.000000e+000  0.000000e+000  1.000000e+000
    outer loop
      vertex  1.081560e+000  3.328698e+000  5.500000e+000
      vertex -1.081560e+000  3.328698e+000  5.500000e+000
      vertex  2.831559e+000  2.057248e+000  5.500000e+000
    endloop
  endfacet
  facet normal  0.000000e+000  0.000000e+000  1.000000e+000
    outer loop
      vertex  2.831559e+000  2.057248e+000  5.500000e+000
      vertex -1.081560e+000  3.328698e+000  5.500000e+000
      vertex -3.673819e-016  2.000000e+000  5.500000e+000
    endloop
  endfacet
  facet normal  0.000000e+000  0.000000e+000  1.000000e+000
    outer loop
      vertex  2.831559e+000  2.057248e+000  5.500000e+000
      vertex -3.673819e-016  2.000000e+000  5.500000e+000
      vertex  1.414214e+000  1.414214e+000  5.500000e+000
    endloop
  endfacet
  facet normal  0.000000e+000  0.000000e+000  1.000000e+000
    outer loop
      vertex -1.081560e+000 -3.328698e+000  5.500000e+000
      vertex  1.081560e+000 -3.328698e+000  5.500000e+000
      vertex -2.831559e+000 -2.057248e+000  5.500000e+000
    endloop
  endfacet
  facet normal  0.000000e+000  0.000000e+000  1.000000e+000
    outer loop
      vertex -2.831559e+000 -2.057248e+000  5.500000e+000
      vertex  1.081560e+000 -3.328698e+000  5.500000e+000
      vertex  5.719166e-017 -2.000000e+000  5.500000e+000
    endloop
  endfacet
  facet normal  0.000000e+000  0.000000e+000  1.000000e+000
    outer loop
      vertex -2.831559e+000 -2.057248e+000  5.500000e+000
      vertex  5.719166e-017 -2.000000e+000  5.500000e+000
      vertex -1.414214e+000 -1.414214e+000  5.500000e+000
    endloop
  endfacet
  facet normal  0.000000e+000  0.000000e+000  1.000000e+000
    outer loop
      vertex -3.673819e-016  2.000000e+000  5.500000e+000
      vertex -1.081560e+000  3.328698e+000  5.500000e+000
      vertex -1.414214e+000  1.414214e+000  5.500000e+000
    endloop
  endfacet
  facet normal  0.000000e+000  0.000000e+000  1.000000e+000
    outer loop
      vertex -1.414214e+000  1.414214e+000  5.500000e+000
      vertex -1.081560e+000  3.328698e+000  5.500000e+000
      vertex -2.831559e+000  2.057248e+000  5.500000e+000
    endloop
  endfacet
  facet normal  0.000000e+000  0.000000e+000  1.000000e+000
    outer loop
      vertex -1.414214e+000  1.414214e+000  5.500000e+000
      vertex -2.831559e+000  2.057248e+000  5.500000e+000
      vertex -2.000000e+000  2.449213e-016  5.500000e+000
    endloop
  endfacet
  facet normal  0.000000e+000  0.000000e+000  1.000000e+000
    outer loop
      vertex -2.000000e+000  2.449213e-016  5.500000e+000
      vertex -2.831559e+000  2.057248e+000  5.500000e+000
      vertex -3.500000e+000 -4.286122e-016  5.500000e+000
    endloop
  endfacet
  facet normal  0.000000e+000  0.000000e+000  1.000000e+000
    outer loop
      vertex -2.000000e+000  2.449213e-016  5.500000e+000
      vertex -3.500000e+000 -4.286122e-016  5.500000e+000
      vertex -1.414214e+000 -1.414214e+000  5.500000e+000
    endloop
  endfacet
  facet normal  0.000000e+000  0.000000e+000  1.000000e+000
    outer loop
      vertex -1.414214e+000 -1.414214e+000  5.500000e+000
      vertex -3.500000e+000 -4.286122e-016  5.500000e+000
      vertex -2.831559e+000 -2.057248e+000  5.500000e+000
    endloop
  endfacet
  facet normal  0.000000e+000  0.000000e+000  1.000000e+000
    outer loop
      vertex  5.719166e-017 -2.000000e+000  5.500000e+000
      vertex  1.081560e+000 -3.328698e+000  5.500000e+000
      vertex  1.414214e+000 -1.414214e+000  5.500000e+000
    endloop
  endfacet
  facet normal  0.000000e+000  0.000000e+000  1.000000e+000
    outer loop
      vertex  1.414214e+000 -1.414214e+000  5.500000e+000
      vertex  1.081560e+000 -3.328698e+000  5.500000e+000
      vertex  2.831559e+000 -2.057248e+000  5.500000e+000
    endloop
  endfacet
  facet normal  0.000000e+000  0.000000e+000  1.000000e+000
    outer loop
      vertex  1.414214e+000 -1.414214e+000  5.500000e+000
      vertex  2.831559e+000 -2.057248e+000  5.500000e+000
      vertex  2.000000e+000  0.000000e+000  5.500000e+000
    endloop
  endfacet
  facet normal  0.000000e+000  0.000000e+000  1.000000e+000
    outer loop
      vertex  2.000000e+000  0.000000e+000  5.500000e+000
      vertex  2.831559e+000 -2.057248e+000  5.500000e+000
      vertex  3.500000e+000  0.000000e+000  5.500000e+000
    endloop
  endfacet
  facet normal  0.000000e+000  0.000000e+000  1.000000e+000
    outer loop
      vertex  2.000000e+000  0.000000e+000  5.500000e+000
      vertex  3.500000e+000  0.000000e+000  5.500000e+000
      vertex  1.414214e+000  1.414214e+000  5.500000e+000
    endloop
  endfacet
  facet normal  0.000000e+000  0.000000e+000  1.000000e+000
    outer loop
      vertex  1.414214e+000  1.414214e+000  5.500000e+000
      vertex  3.500000e+000  0.000000e+000  5.500000e+000
      vertex  2.831559e+000  2.057248e+000  5.500000e+000
    endloop
  endfacet
  facet normal  0.000000e+000  0.000000e+000 -1.000000e+000
    outer loop
      vertex -1.081560e+000  3.328698e+000  4.500000e+000
      vertex  1.081560e+000  3.328698e+000  4.500000e+000
      vertex -3.673819e-016  2.000000e+000  4.500000e+000
    endloop
  endfacet
  facet normal  0.000000e+000  0.000000e+000 -1.000000e+000
    outer loop
      vertex -3.673819e-016  2.000000e+000  4.500000e+000
      vertex  1.081560e+000  3.328698e+000  4.500000e+000
      vertex  2.831559e+000  2.057248e+000  4.500000e+000
    endloop
  endfacet
  facet normal  0.000000e+000  0.000000e+000 -1.000000e+000
    outer loop
      vertex -3.673819e-016  2.000000e+000  4.500000e+000
      vertex  2.831559e+000  2.057248e+000  4.500000e+000
      vertex  1.414214e+000  1.414214e+000  4.500000e+000
    endloop
  endfacet
  facet normal  0.000000e+000  0.000000e+000 -1.000000e+000
    outer loop
      vertex  1.081560e+000 -3.328698e+000  4.500000e+000
      vertex -1.081560e+000 -3.328698e+000  4.500000e+000
      vertex  5.719166e-017 -2.000000e+000  4.500000e+000
    endloop
  endfacet
  facet normal  0.000000e+000  0.000000e+000 -1.000000e+000
    outer loop
      vertex  5.719166e-017 -2.000000e+000  4.500000e+000
      vertex -1.081560e+000 -3.328698e+000  4.500000e+000
      vertex -2.831559e+000 -2.057248e+000  4.500000e+000
    endloop
  endfacet
  facet normal  0.000000e+000  0.000000e+000 -1.000000e+000
    outer loop
      vertex  5.719166e-017 -2.000000e+000  4.500000e+000
      vertex -2.831559e+000 -2.057248e+000  4.500000e+000
      vertex -1.414214e+000 -1.414214e+000  4.500000e+000
    endloop
  endfacet
  facet normal  0.000000e+000  0.000000e+000 -1.000000e+000
    outer loop
      vertex -1.081560e+000  3.328698e+000  4.500000e+000
      vertex -3.673819e-016  2.000000e+000  4.500000e+000
      vertex -2.831559e+000  2.057248e+000  4.500000e+000
    endloop
  endfacet
  facet normal  0.000000e+000  0.000000e+000 -1.000000e+000
    outer loop
      vertex -2.831559e+000  2.057248e+000  4.500000e+000
      vertex -3.673819e-016  2.000000e+000  4.500000e+000
      vertex -1.414214e+000  1.414214e+000  4.500000e+000
    endloop
  endfacet
  facet normal  0.000000e+000  0.000000e+000 -1.000000e+000
    outer loop
      vertex -2.831559e+000  2.057248e+000  4.500000e+000
      vertex -1.414214e+000  1.414214e+000  4.500000e+000
      vertex -3.500000e+000 -4.286122e-016  4.500000e+000
    endloop
  endfacet
  facet normal  0.000000e+000  0.000000e+000 -1.000000e+000
    outer loop
      vertex -3.500000e+000 -4.286122e-016  4.500000e+000
      vertex -1.414214e+000  1.414214e+000  4.500000e+000
      vertex -2.000000e+000  2.449213e-016  4.500000e+000
    endloop
  endfacet
  facet normal  0.000000e+000  0.000000e+000 -1.000000e+000
    outer loop
      vertex -3.500000e+000 -4.286122e-016  4.500000e+000
      vertex -2.000000e+000  2.449213e-016  4.500000e+000
      vertex -2.831559e+000 -2.057248e+000  4.500000e+000
    endloop
  endfacet
  facet normal  0.000000e+000  0.000000e+000 -1.000000e+000
    outer loop
      vertex -2.831559e+000 -2.057248e+000  4.500000e+000
      vertex -2.000000e+000  2.449213e-016  4.500000e+000
      vertex -1.414214e+000 -1.414214e+000  4.500000e+000
    endloop
  endfacet
  facet normal  0.000000e+000  0.000000e+000 -1.000000e+000
    outer loop
      vertex  1.081560e+000 -3.328698e+000  4.500000e+000
      vertex  5.719166e-017 -2.000000e+000  4.500000e+000
      vertex  2.831559e+000 -2.057248e+000  4.500000e+000
    endloop
  endfacet
  facet normal  0.000000e+000  0.000000e+000 -1.000000e+000
    outer loop
      vertex  2.831559e+000 -2.057248e+000  4.500000e+000
      vertex  5.719166e-017 -2.000000e+000  4.500000e+000
      vertex  1.414214e+000 -1.414214e+000  4.500000e+000
    endloop
  endfacet
  facet normal  0.000000e+000  0.000000e+000 -1.000000e+000
    outer loop
      vertex  2.831559e+000 -2.057248e+000  4.500000e+000
      vertex  1.414214e+000 -1.414214e+000  4.500000e+000
      vertex  3.500000e+000  0.000000e+000  4.500000e+000
    endloop
  endfacet
  facet normal  0.000000e+000  0.000000e+000 -1.000000e+000
    outer loop
      vertex  3.500000e+000  0.000000e+000  4.500000e+000
      vertex  1.414214e+000 -1.414214e+000  4.500000e+000
      vertex  2.000000e+000  0.000000e+000  4.500000e+000
    endloop
  endfacet
  facet normal  0.000000e+000  0.000000e+000 -1.000000e+000
    outer loop
      vertex  3.500000e+000  0.000000e+000  4.500000e+000
      vertex  2.000000e+000  0.000000e+000  4.500000e+000
      vertex  2.831559e+000  2.057248e+000  4.500000e+000
    endloop
  endfacet
  facet normal  0.000000e+000  0.000000e+000 -1.000000e+000
    outer loop
      vertex  2.831559e+000  2.057248e+000  4.500000e+000
      vertex  2.000000e+000  0.000000e+000  4.500000e+000
      vertex  1.414214e+000  1.414214e+000  4.500000e+000
    endloop
  endfacet
  facet normal  9.510565e-001  3.090170e-001  0.000000e+000
    outer loop
      vertex  3.500000e+000  0.000000e+000  5.500000e+000
      vertex  3.500000e+000  0.000000e+000  4.500000e+000
      vertex  2.831559e+000  2.057248e+000  5.500000e+000
    endloop
  endfacet
  facet normal  9.510565e-001  3.090170e-001  0.000000e+000
    outer loop
      vertex  2.831559e+000  2.057248e+000  5.500000e+000
      vertex  3.500000e+000  0.000000e+000  4.500000e+000
      vertex  2.831559e+000  2.057248e+000  4.500000e+000
    endloop
  endfacet
  facet normal  5.877853e-001  8.090169e-001  0.000000e+000
    outer loop
      vertex  2.831559e+000  2.057248e+000  5.500000e+000
      vertex  2.831559e+000  2.057248e+000  4.500000e+000
      vertex  1.081560e+000  3.328698e+000  5.500000e+000
    endloop
  endfacet
  facet normal  5.877853e-001  8.090169e-001  0.000000e+000
    outer loop
      vertex  1.081560e+000  3.328698e+000  5.500000e+000
      vertex  2.831559e+000  2.057248e+000  4.500000e+000
      vertex  1.081560e+000  3.328698e+000  4.500000e+000
    endloop
  endfacet
  facet normal  0.000000e+000  1.000000e+000  0.000000e+000
    outer loop
      vertex  1.081560e+000  3.328698e+000  5.500000e+000
      vertex  1.081560e+000  3.328698e+000  4.500000e+000
      vertex -1.081560e+000  3.328698e+000  5.500000e+000
    endloop
  endfacet
  facet normal  0.000000e+000  1.000000e+000  0.000000e+000
    outer loop
      vertex -1.081560e+000  3.328698e+000  5.500000e+000
      vertex  1.081560e+000  3.328698e+000  4.500000e+000
      vertex -1.081560e+000  3.328698e+000  4.500000e+000
    endloop
  endfacet
  facet normal -5.877853e-001  8.090169e-001  0.000000e+000
    outer loop
      vertex -1.081560e+000  3.328698e+000  5.500000e+000
      vertex -1.081560e+000  3.328698e+000  4.500000e+000
      vertex -2.831559e+000  2.057248e+000  5.500000e+000
    endloop
  endfacet
  facet normal -5.877853e-001  8.090169e-001  0.000000e+000
    outer loop
      vertex -2.831559e+000  2.057248e+000  5.500000e+000
      vertex -1.081560e+000  3.328698e+000  4.500000e+000
      vertex -2.831559e+000  2.057248e+000  4.500000e+000
    endloop
  endfacet
  facet normal -9.510565e-001  3.090170e-001  0.000000e+000
    outer loop
      vertex -2.831559e+000  2.057248e+000  5.500000e+000
      vertex -2.831559e+000  2.057248e+000  4.500000e+000
      vertex -3.500000e+000 -4.286122e-016  5.500000e+000
    endloop
  endfacet
  facet normal -9.510565e-001  3.090170e-001  0.000000e+000
    outer loop
      vertex -3.500000e+000 -4.286122e-016  5.500000e+000
      vertex -2.831559e+000  2.057248e+000  4.500000e+000
      vertex -3.500000e+000 -4.286122e-016  4.500000e+000
    endloop
  endfacet
  facet normal -9.510565e-001 -3.090170e-001  0.000000e+000
    outer loop
      vertex -3.500000e+000 -4.286122e-016  5.500000e+000
      vertex -3.500000e+000 -4.286122e-016  4.500000e+000
      vertex -2.831559e+000 -2.057248e+000  5.500000e+000
    endloop
  endfacet
  facet normal -9.510565e-001 -3.090170e-001  0.000000e+000
    outer loop
      vertex -2.831559e+000 -2.057248e+000  5.500000e+000
      vertex -3.500000e+000 -4.286122e-016  4.500000e+000
      vertex -2.831559e+000 -2.057248e+000  4.500000e+000
    endloop
  endfacet
  facet normal -5.877853e-001 -8.090169e-001  0.000000e+000
    outer loop
      vertex -2.831559e+000 -2.057248e+000  5.500000e+000
      vertex -2.831559e+000 -2.057248e+000  4.500000e+000
      vertex -1.081560e+000 -3.328698e+000  5.500000e+000
    endloop
  endfacet
  facet normal -5.877853e-001 -8.090169e-001  0.000000e+000
    outer loop
      vertex -1.081560e+000 -3.328698e+000  5.500000e+000
      vertex -2.831559e+000 -2.057248e+000  4.500000e+000
      vertex -1.081560e+000 -3.328698e+000  4.500000e+000
    endloop
  endfacet
  facet normal  0.000000e+000 -1.000000e+000  0.000000e+000
    outer loop
      vertex -1.081560e+000 -3.328698e+000  5.500000e+000
      vertex -1.081560e+000 -3.328698e+000  4.500000e+000
      vertex  1.081560e+000 -3.328698e+000  5.500000e+000
    endloop
  endfacet
  facet normal  0.000000e+000 -1.000000e+000  0.000000e+000
    outer loop
      vertex  1.081560e+000 -3.328698e+000  5.500000e+000
      vertex -1.081560e+000 -3.328698e+000  4.500000e+000
      vertex  1.081560e+000 -3.328698e+000  4.500000e+000
    endloop
  endfacet
  facet normal  5.877853e-001 -8.090169e-001  0.000000e+000
    outer loop
      vertex  1.081560e+000 -3.328698e+000  5.500000e+000
      vertex  1.081560e+000 -3.328698e+000  4.500000e+000
      vertex  2.831559e+000 -2.057248e+000  5.500000e+000
    endloop
  endfacet
  facet normal  5.877853e-001 -8.090169e-001  0.000000e+000
    outer loop
      vertex  2.831559e+000 -2.057248e+000  5.500000e+000
      vertex  1.081560e+000 -3.328698e+000  4.500000e+000
      vertex  2.831559e+000 -2.057248e+000  4.500000e+000
    endloop
  endfacet
  facet normal  9.510565e-001 -3.090170e-001  0.000000e+000
    outer loop
      vertex  2.831559e+000 -2.057248e+000  5.500000e+000
      vertex  2.831559e+000 -2.057248e+000  4.500000e+000
      vertex  3.500000e+000  0.000000e+000  5.500000e+000
    endloop
  endfacet
  facet normal  9.510565e-001 -3.090170e-001  0.000000e+000
    outer loop
      vertex  3.500000e+000  0.000000e+000  5.500000e+000
      vertex  2.831559e+000 -2.057248e+000  4.500000e+000
      vertex  3.500000e+000  0.000000e+000  4.500000e+000
    endloop
  endfacet
  facet normal  0.000000e+000  0.000000e+000 -1.000000e+000
    outer loop
      vertex  1.224606e-016  2.000000e+000  0.000000e+000
      vertex  1.414214e+000  1.414214e+000  0.000000e+000
      vertex -1.414214e+000  1.414214e+000  0.000000e+000
    endloop
  endfacet
  facet normal  0.000000e+000  0.000000e+000 -1.000000e+000
    outer loop
      vertex -1.414214e+000  1.414214e+000  0.000000e+000
      vertex  1.414214e+000  1.414214e+000  0.000000e+000
      vertex -2.000000e+000  2.449213e-016  0.000000e+000
    endloop
  endfacet
  facet normal  0.000000e+000  0.000000e+000 -1.000000e+000
    outer loop
      vertex -2.000000e+000  2.449213e-016  0.000000e+000
      vertex  1.414214e+000  1.414214e+000  0.000000e+000
      vertex  2.000000e+000  0.000000e+000  0.000000e+000
    endloop
  endfacet
  facet normal  0.000000e+000  0.000000e+000 -1.000000e+000
    outer loop
      vertex -2.000000e+000  2.449213e-016  0.000000e+000
      vertex  2.000000e+000  0.000000e+000  0.000000e+000
      vertex -1.414214e+000 -1.414214e+000  0.000000e+000
    endloop
  endfacet
  facet normal  0.000000e+000  0.000000e+000 -1.000000e+000
    outer loop
      vertex -1.414214e+000 -1.414214e+000  0.000000e+000
      vertex  2.000000e+000  0.000000e+000  0.000000e+000
      vertex  1.414214e+000 -1.414214e+000  0.000000e+000
    endloop
  endfacet
  facet normal  0.000000e+000  0.000000e+000 -1.000000e+000
    outer loop
      vertex -1.414214e+000 -1.414214e+000  0.000000e+000
      vertex  1.414214e+000 -1.414214e+000  0.000000e+000
      vertex -3.673819e-016 -2.000000e+000  0.000000e+000
    endloop
  endfacet
endsolid CATIA STL
