solid CATIA STL
  facet normal  0.000000e+000  0.000000e+000 -1.000000e+000
    outer loop
      vertex  2.427051e+000 -1.763356e+000  0.000000e+000
      vertex  9.270510e-001 -2.853169e+000  0.000000e+000
      vertex  5.992819e-001 -1.096978e+000  0.000000e+000
    endloop
  endfacet
  facet normal  0.000000e+000  0.000000e+000 -1.000000e+000
    outer loop
      vertex  5.992819e-001 -1.096978e+000  0.000000e+000
      vertex  9.270510e-001 -2.853169e+000  0.000000e+000
      vertex -9.270510e-001 -2.853169e+000  0.000000e+000
    endloop
  endfacet
  facet normal  0.000000e+000  0.000000e+000 -1.000000e+000
    outer loop
      vertex  5.992819e-001 -1.096978e+000  0.000000e+000
      vertex -9.270510e-001 -2.853169e+000  0.000000e+000
      vertex -3.519244e-001 -1.199437e+000  0.000000e+000
    endloop
  endfacet
  facet normal  0.000000e+000  0.000000e+000 -1.000000e+000
    outer loop
      vertex -3.519244e-001 -1.199437e+000  0.000000e+000
      vertex -9.270510e-001 -2.853169e+000  0.000000e+000
      vertex -2.427051e+000 -1.763356e+000  0.000000e+000
    endloop
  endfacet
  facet normal  2.819233e-017 -1.037431e-016 -1.000000e+000
    outer loop
      vertex -3.519244e-001 -1.199437e+000  0.000000e+000
      vertex -2.427051e+000 -1.763356e+000  0.000000e+000
      vertex -1.096978e+000 -5.992819e-001 -8.326673e-017
    endloop
  endfacet
  facet normal  0.000000e+000  0.000000e+000 -1.000000e+000
    outer loop
      vertex  9.270510e-001  2.853169e+000  0.000000e+000
      vertex  2.427051e+000  1.763356e+000  0.000000e+000
      vertex -9.270510e-001  2.853169e+000  0.000000e+000
    endloop
  endfacet
  facet normal  0.000000e+000  0.000000e+000 -1.000000e+000
    outer loop
      vertex -9.270510e-001  2.853169e+000  0.000000e+000
      vertex  2.427051e+000  1.763356e+000  0.000000e+000
      vertex  3.519244e-001  1.199437e+000  0.000000e+000
    endloop
  endfacet
  facet normal  0.000000e+000  0.000000e+000 -1.000000e+000
    outer loop
      vertex -9.270510e-001  2.853169e+000  0.000000e+000
      vertex  3.519244e-001  1.199437e+000  0.000000e+000
      vertex -2.427051e+000  1.763356e+000  0.000000e+000
    endloop
  endfacet
  facet normal  0.000000e+000  0.000000e+000 -1.000000e+000
    outer loop
      vertex -2.427051e+000  1.763356e+000  0.000000e+000
      vertex  3.519244e-001  1.199437e+000  0.000000e+000
      vertex -5.992819e-001  1.096978e+000  0.000000e+000
    endloop
  endfacet
  facet normal  0.000000e+000  0.000000e+000 -1.000000e+000
    outer loop
      vertex -2.427051e+000  1.763356e+000  0.000000e+000
      vertex -5.992819e-001  1.096978e+000  0.000000e+000
      vertex -3.000000e+000  3.673819e-016  0.000000e+000
    endloop
  endfacet
  facet normal  0.000000e+000  0.000000e+000 -1.000000e+000
    outer loop
      vertex -3.000000e+000  3.673819e-016  0.000000e+000
      vertex -5.992819e-001  1.096978e+000  0.000000e+000
      vertex -1.199437e+000  3.519244e-001  0.000000e+000
    endloop
  endfacet
  facet normal  0.000000e+000  0.000000e+000 -1.000000e+000
    outer loop
      vertex -3.000000e+000  3.673819e-016  0.000000e+000
      vertex -1.199437e+000  3.519244e-001  0.000000e+000
      vertex -2.427051e+000 -1.763356e+000  0.000000e+000
    endloop
  endfacet
  facet normal -1.272226e-016  7.383430e-017 -1.000000e+000
    outer loop
      vertex -2.427051e+000 -1.763356e+000  0.000000e+000
      vertex -1.199437e+000  3.519244e-001  0.000000e+000
      vertex -1.096978e+000 -5.992819e-001 -8.326673e-017
    endloop
  endfacet
  facet normal -2.819233e-017  1.037431e-016 -1.000000e+000
    outer loop
      vertex  3.519244e-001  1.199437e+000  0.000000e+000
      vertex  2.427051e+000  1.763356e+000  0.000000e+000
      vertex  1.096978e+000  5.992819e-001 -8.326673e-017
    endloop
  endfacet
  facet normal  4.874236e-017  1.583735e-017 -1.000000e+000
    outer loop
      vertex  1.096978e+000  5.992819e-001 -8.326673e-017
      vertex  2.427051e+000  1.763356e+000  0.000000e+000
      vertex  3.000000e+000  0.000000e+000  0.000000e+000
    endloop
  endfacet
  facet normal  1.675674e-017 -8.573309e-017 -1.000000e+000
    outer loop
      vertex  1.096978e+000  5.992819e-001 -8.326673e-017
      vertex  3.000000e+000  0.000000e+000  0.000000e+000
      vertex  1.199437e+000 -3.519244e-001  0.000000e+000
    endloop
  endfacet
  facet normal  0.000000e+000  0.000000e+000 -1.000000e+000
    outer loop
      vertex  5.992819e-001 -1.096978e+000  0.000000e+000
      vertex  1.199437e+000 -3.519244e-001  0.000000e+000
      vertex  2.427051e+000 -1.763356e+000  0.000000e+000
    endloop
  endfacet
  facet normal  0.000000e+000  0.000000e+000 -1.000000e+000
    outer loop
      vertex  2.427051e+000 -1.763356e+000  0.000000e+000
      vertex  1.199437e+000 -3.519244e-001  0.000000e+000
      vertex  3.000000e+000  0.000000e+000  0.000000e+000
    endloop
  endfacet
  facet normal  9.942487e-001  1.070951e-001  0.000000e+000
    outer loop
      vertex -1.096978e+000 -5.992819e-001  5.000000e+000
      vertex -1.096978e+000 -5.992819e-001 -8.326673e-017
      vertex -1.199437e+000  3.519244e-001  5.000000e+000
    endloop
  endfacet
  facet normal  9.942487e-001  1.070951e-001  0.000000e+000
    outer loop
      vertex -1.199437e+000  3.519244e-001  5.000000e+000
      vertex -1.096978e+000 -5.992819e-001 -8.326673e-017
      vertex -1.199437e+000  3.519244e-001  0.000000e+000
    endloop
  endfacet
  facet normal  7.787678e-001 -6.273124e-001  0.000000e+000
    outer loop
      vertex -1.199437e+000  3.519244e-001  5.000000e+000
      vertex -1.199437e+000  3.519244e-001  0.000000e+000
      vertex -5.992819e-001  1.096978e+000  5.000000e+000
    endloop
  endfacet
  facet normal  7.787678e-001 -6.273124e-001  0.000000e+000
    outer loop
      vertex -5.992819e-001  1.096978e+000  5.000000e+000
      vertex -1.199437e+000  3.519244e-001  0.000000e+000
      vertex -5.992819e-001  1.096978e+000  0.000000e+000
    endloop
  endfacet
  facet normal  1.070951e-001 -9.942487e-001  0.000000e+000
    outer loop
      vertex -5.992819e-001  1.096978e+000  5.000000e+000
      vertex -5.992819e-001  1.096978e+000  0.000000e+000
      vertex  3.519244e-001  1.199437e+000  5.000000e+000
    endloop
  endfacet
  facet normal  1.070951e-001 -9.942487e-001  0.000000e+000
    outer loop
      vertex  3.519244e-001  1.199437e+000  5.000000e+000
      vertex -5.992819e-001  1.096978e+000  0.000000e+000
      vertex  3.519244e-001  1.199437e+000  0.000000e+000
    endloop
  endfacet
  facet normal -6.273124e-001 -7.787678e-001  0.000000e+000
    outer loop
      vertex  3.519244e-001  1.199437e+000  5.000000e+000
      vertex  3.519244e-001  1.199437e+000  0.000000e+000
      vertex  1.096978e+000  5.992819e-001  5.000000e+000
    endloop
  endfacet
  facet normal -6.273124e-001 -7.787678e-001  0.000000e+000
    outer loop
      vertex  1.096978e+000  5.992819e-001  5.000000e+000
      vertex  3.519244e-001  1.199437e+000  0.000000e+000
      vertex  1.096978e+000  5.992819e-001 -8.326673e-017
    endloop
  endfacet
  facet normal -9.942487e-001 -1.070951e-001  0.000000e+000
    outer loop
      vertex  1.096978e+000  5.992819e-001  5.000000e+000
      vertex  1.096978e+000  5.992819e-001 -8.326673e-017
      vertex  1.199437e+000 -3.519244e-001  5.000000e+000
    endloop
  endfacet
  facet normal -9.942487e-001 -1.070951e-001  0.000000e+000
    outer loop
      vertex  1.199437e+000 -3.519244e-001  5.000000e+000
      vertex  1.096978e+000  5.992819e-001 -8.326673e-017
      vertex  1.199437e+000 -3.519244e-001  0.000000e+000
    endloop
  endfacet
  facet normal -7.787678e-001  6.273124e-001  0.000000e+000
    outer loop
      vertex  1.199437e+000 -3.519244e-001  5.000000e+000
      vertex  1.199437e+000 -3.519244e-001  0.000000e+000
      vertex  5.992819e-001 -1.096978e+000  5.000000e+000
    endloop
  endfacet
  facet normal -7.787678e-001  6.273124e-001  0.000000e+000
    outer loop
      vertex  5.992819e-001 -1.096978e+000  5.000000e+000
      vertex  1.199437e+000 -3.519244e-001  0.000000e+000
      vertex  5.992819e-001 -1.096978e+000  0.000000e+000
    endloop
  endfacet
  facet normal -1.070951e-001  9.942487e-001  0.000000e+000
    outer loop
      vertex  5.992819e-001 -1.096978e+000  5.000000e+000
      vertex  5.992819e-001 -1.096978e+000  0.000000e+000
      vertex -3.519244e-001 -1.199437e+000  5.000000e+000
    endloop
  endfacet
  facet normal -1.070951e-001  9.942487e-001  0.000000e+000
    outer loop
      vertex -3.519244e-001 -1.199437e+000  5.000000e+000
      vertex  5.992819e-001 -1.096978e+000  0.000000e+000
      vertex -3.519244e-001 -1.199437e+000  0.000000e+000
    endloop
  endfacet
  facet normal  6.273124e-001  7.787678e-001  0.000000e+000
    outer loop
      vertex -3.519244e-001 -1.199437e+000  5.000000e+000
      vertex -3.519244e-001 -1.199437e+000  0.000000e+000
      vertex -1.096978e+000 -5.992819e-001  5.000000e+000
    endloop
  endfacet
  facet normal  6.273124e-001  7.787678e-001  0.000000e+000
    outer loop
      vertex -1.096978e+000 -5.992819e-001  5.000000e+000
      vertex -3.519244e-001 -1.199437e+000  0.000000e+000
      vertex -1.096978e+000 -5.992819e-001 -8.326673e-017
    endloop
  endfacet
  facet normal  0.000000e+000  0.000000e+000 -1.000000e+000
    outer loop
      vertex -5.992819e-001  1.096978e+000  5.000000e+000
      vertex  3.519244e-001  1.199437e+000  5.000000e+000
      vertex -1.199437e+000  3.519244e-001  5.000000e+000
    endloop
  endfacet
  facet normal  0.000000e+000  0.000000e+000 -1.000000e+000
    outer loop
      vertex -1.199437e+000  3.519244e-001  5.000000e+000
      vertex  3.519244e-001  1.199437e+000  5.000000e+000
      vertex  1.096978e+000  5.992819e-001  5.000000e+000
    endloop
  endfacet
  facet normal  0.000000e+000  0.000000e+000 -1.000000e+000
    outer loop
      vertex -1.199437e+000  3.519244e-001  5.000000e+000
      vertex  1.096978e+000  5.992819e-001  5.000000e+000
      vertex -1.096978e+000 -5.992819e-001  5.000000e+000
    endloop
  endfacet
  facet normal  0.000000e+000  0.000000e+000 -1.000000e+000
    outer loop
      vertex -1.096978e+000 -5.992819e-001  5.000000e+000
      vertex  1.096978e+000  5.992819e-001  5.000000e+000
      vertex  1.199437e+000 -3.519244e-001  5.000000e+000
    endloop
  endfacet
  facet normal  0.000000e+000  0.000000e+000 -1.000000e+000
    outer loop
      vertex -1.096978e+000 -5.992819e-001  5.000000e+000
      vertex  1.199437e+000 -3.519244e-001  5.000000e+000
      vertex -3.519244e-001 -1.199437e+000  5.000000e+000
    endloop
  endfacet
  facet normal  0.000000e+000  0.000000e+000 -1.000000e+000
    outer loop
      vertex -3.519244e-001 -1.199437e+000  5.000000e+000
      vertex  1.199437e+000 -3.519244e-001  5.000000e+000
      vertex  5.992819e-001 -1.096978e+000  5.000000e+000
    endloop
  endfacet
  facet normal -2.446099e-001 -9.128962e-001 -3.267820e-001
    outer loop
      vertex -1.618960e+000 -3.000000e+000  1.221186e+001
      vertex -1.500000e+000 -2.598076e+000  1.100000e+001
      vertex -5.510729e-016 -3.000000e+000  1.100000e+001
    endloop
  endfacet
  facet normal -8.486329e-001 -4.086801e-001 -3.358613e-001
    outer loop
      vertex -2.803481e+000 -2.235701e+000  1.241421e+001
      vertex -3.495883e+000 -7.979125e-001  1.241421e+001
      vertex -2.598076e+000 -1.500000e+000  1.100000e+001
    endloop
  endfacet
  facet normal -6.398121e-001 -6.398121e-001 -4.257710e-001
    outer loop
      vertex -1.500000e+000 -2.598076e+000  1.100000e+001
      vertex -2.803481e+000 -2.235701e+000  1.241421e+001
      vertex -2.598076e+000 -1.500000e+000  1.100000e+001
    endloop
  endfacet
  facet normal -5.522426e-001 -7.735921e-001 -3.107787e-001
    outer loop
      vertex -1.500000e+000 -2.598076e+000  1.100000e+001
      vertex -1.618960e+000 -3.000000e+000  1.221186e+001
      vertex -2.803481e+000 -2.235701e+000  1.241421e+001
    endloop
  endfacet
  facet normal -3.305491e-001 -1.591840e-001 -9.302676e-001
    outer loop
      vertex -3.495883e+000 -7.979125e-001  1.241421e+001
      vertex -2.803481e+000 -2.235701e+000  1.241421e+001
      vertex -4.300000e+000 -2.551470e+000  1.300000e+001
    endloop
  endfacet
  facet normal -5.522426e-001  7.735921e-001 -3.107787e-001
    outer loop
      vertex -2.803481e+000  2.235701e+000  1.241421e+001
      vertex -1.618960e+000  3.000000e+000  1.221186e+001
      vertex -1.500000e+000  2.598076e+000  1.100000e+001
    endloop
  endfacet
  facet normal -6.398121e-001  6.398121e-001 -4.257710e-001
    outer loop
      vertex -2.598076e+000  1.500000e+000  1.100000e+001
      vertex -2.803481e+000  2.235701e+000  1.241421e+001
      vertex -1.500000e+000  2.598076e+000  1.100000e+001
    endloop
  endfacet
  facet normal -1.553770e-001  4.361087e-001 -8.863787e-001
    outer loop
      vertex -2.810593e+000  3.000000e+000  1.279150e+001
      vertex -2.803481e+000  2.235701e+000  1.241421e+001
      vertex -4.000000e+000  3.000000e+000  1.300000e+001
    endloop
  endfacet
  facet normal -2.446099e-001  9.128962e-001 -3.267820e-001
    outer loop
      vertex -1.500000e+000  2.598076e+000  1.100000e+001
      vertex -1.618960e+000  3.000000e+000  1.221186e+001
      vertex  2.182092e-015  3.000000e+000  1.100000e+001
    endloop
  endfacet
  facet normal -4.004043e-001  4.026162e-001 -8.231504e-001
    outer loop
      vertex -1.618960e+000  3.000000e+000  1.221186e+001
      vertex -2.803481e+000  2.235701e+000  1.241421e+001
      vertex -2.810593e+000  3.000000e+000  1.279150e+001
    endloop
  endfacet
  facet normal -8.691965e-001 -2.329006e-001 -4.361820e-001
    outer loop
      vertex -3.000000e+000  3.673819e-016  1.100000e+001
      vertex -2.598076e+000 -1.500000e+000  1.100000e+001
      vertex -3.495883e+000 -7.979125e-001  1.241421e+001
    endloop
  endfacet
  facet normal -9.436691e-001  0.000000e+000 -3.308905e-001
    outer loop
      vertex -3.000000e+000  3.673819e-016  1.100000e+001
      vertex -3.495883e+000 -7.979125e-001  1.241421e+001
      vertex -3.495883e+000  7.979125e-001  1.241421e+001
    endloop
  endfacet
  facet normal -8.691965e-001  2.329006e-001 -4.361820e-001
    outer loop
      vertex -3.000000e+000  3.673819e-016  1.100000e+001
      vertex -3.495883e+000  7.979125e-001  1.241421e+001
      vertex -2.598076e+000  1.500000e+000  1.100000e+001
    endloop
  endfacet
  facet normal -5.266969e-001  4.209334e-002 -8.490103e-001
    outer loop
      vertex -4.300000e+000 -3.045078e-007  1.287350e+001
      vertex -4.300000e+000  2.551470e+000  1.300000e+001
      vertex -3.495883e+000  7.979125e-001  1.241421e+001
    endloop
  endfacet
  facet normal -4.959690e-001  0.000000e+000 -8.683403e-001
    outer loop
      vertex -4.300000e+000 -3.045078e-007  1.287350e+001
      vertex -3.495883e+000  7.979125e-001  1.241421e+001
      vertex -3.495883e+000 -7.979125e-001  1.241421e+001
    endloop
  endfacet
  facet normal -5.266969e-001 -4.209335e-002 -8.490103e-001
    outer loop
      vertex -4.300000e+000 -3.045078e-007  1.287350e+001
      vertex -3.495883e+000 -7.979125e-001  1.241421e+001
      vertex -4.300000e+000 -2.551470e+000  1.300000e+001
    endloop
  endfacet
  facet normal -1.715215e-001 -1.147226e-001 -9.784780e-001
    outer loop
      vertex -4.000000e+000 -3.000000e+000  1.300000e+001
      vertex -4.300000e+000 -2.551470e+000  1.300000e+001
      vertex -2.810593e+000 -3.000000e+000  1.279150e+001
    endloop
  endfacet
  facet normal -2.501620e-001 -4.267002e-001 -8.691064e-001
    outer loop
      vertex -2.810593e+000 -3.000000e+000  1.279150e+001
      vertex -4.300000e+000 -2.551470e+000  1.300000e+001
      vertex -2.803481e+000 -2.235701e+000  1.241421e+001
    endloop
  endfacet
  facet normal -4.004043e-001 -4.026162e-001 -8.231504e-001
    outer loop
      vertex -2.810593e+000 -3.000000e+000  1.279150e+001
      vertex -2.803481e+000 -2.235701e+000  1.241421e+001
      vertex -1.618960e+000 -3.000000e+000  1.221186e+001
    endloop
  endfacet
  facet normal -2.790999e-001  1.866767e-001 -9.419422e-001
    outer loop
      vertex -4.300000e+000  2.551470e+000  1.300000e+001
      vertex -4.000000e+000  3.000000e+000  1.300000e+001
      vertex -3.495883e+000  7.979125e-001  1.241421e+001
    endloop
  endfacet
  facet normal -3.457395e-001  1.664994e-001 -9.234404e-001
    outer loop
      vertex -3.495883e+000  7.979125e-001  1.241421e+001
      vertex -4.000000e+000  3.000000e+000  1.300000e+001
      vertex -2.803481e+000  2.235701e+000  1.241421e+001
    endloop
  endfacet
  facet normal -8.486329e-001  4.086801e-001 -3.358613e-001
    outer loop
      vertex -3.495883e+000  7.979125e-001  1.241421e+001
      vertex -2.803481e+000  2.235701e+000  1.241421e+001
      vertex -2.598076e+000  1.500000e+000  1.100000e+001
    endloop
  endfacet
  facet normal  5.877697e-001 -8.089958e-001 -7.244037e-003
    outer loop
      vertex  2.427051e+000 -1.763356e+000  0.000000e+000
      vertex  1.500000e+000 -2.598076e+000  1.800000e+001
      vertex  9.270510e-001 -2.853169e+000  0.000000e+000
    endloop
  endfacet
  facet normal -5.877439e-001 -8.089601e-001 -1.185336e-002
    outer loop
      vertex -2.427051e+000 -1.763356e+000  0.000000e+000
      vertex -9.270510e-001 -2.853169e+000  0.000000e+000
      vertex -1.500000e+000 -2.598076e+000  1.100000e+001
    endloop
  endfacet
  facet normal -2.588088e-001 -9.658874e-001  8.918835e-003
    outer loop
      vertex -5.510729e-016 -3.000000e+000  1.100000e+001
      vertex -1.500000e+000 -2.598076e+000  1.100000e+001
      vertex -9.270510e-001 -2.853169e+000  0.000000e+000
    endloop
  endfacet
  facet normal  0.000000e+000 -9.999110e-001 -1.334704e-002
    outer loop
      vertex -5.510729e-016 -3.000000e+000  1.100000e+001
      vertex -9.270510e-001 -2.853169e+000  0.000000e+000
      vertex  9.270510e-001 -2.853169e+000  0.000000e+000
    endloop
  endfacet
  facet normal  2.306271e-001 -9.730209e-001  6.448533e-003
    outer loop
      vertex -5.510729e-016 -3.000000e+000  1.100000e+001
      vertex  9.270510e-001 -2.853169e+000  0.000000e+000
      vertex  1.500000e+000 -2.598076e+000  1.800000e+001
    endloop
  endfacet
  facet normal  2.588191e-001 -9.659258e-001  0.000000e+000
    outer loop
      vertex -5.510729e-016 -3.000000e+000  1.100000e+001
      vertex  1.500000e+000 -2.598076e+000  1.800000e+001
      vertex  0.000000e+000 -3.000000e+000  1.800000e+001
    endloop
  endfacet
  facet normal  9.510565e-001 -3.090169e-001 -1.261414e-017
    outer loop
      vertex  3.000000e+000  0.000000e+000  0.000000e+000
      vertex  3.000000e+000 -7.347638e-016  1.800000e+001
      vertex  2.427051e+000 -1.763356e+000  0.000000e+000
    endloop
  endfacet
  facet normal  9.659117e-001 -2.588153e-001 -5.390810e-003
    outer loop
      vertex  2.427051e+000 -1.763356e+000  0.000000e+000
      vertex  3.000000e+000 -7.347638e-016  1.800000e+001
      vertex  2.598076e+000 -1.500000e+000  1.800000e+001
    endloop
  endfacet
  facet normal  7.071021e-001 -7.071021e-001  3.627068e-003
    outer loop
      vertex  2.427051e+000 -1.763356e+000  0.000000e+000
      vertex  2.598076e+000 -1.500000e+000  1.800000e+001
      vertex  1.500000e+000 -2.598076e+000  1.800000e+001
    endloop
  endfacet
  facet normal -9.659258e-001 -2.588191e-001  0.000000e+000
    outer loop
      vertex -3.000000e+000  3.673819e-016  1.100000e+001
      vertex -3.000000e+000  3.673819e-016  0.000000e+000
      vertex -2.598076e+000 -1.500000e+000  1.100000e+001
    endloop
  endfacet
  facet normal -9.510306e-001 -3.090085e-001 -7.388261e-003
    outer loop
      vertex -2.598076e+000 -1.500000e+000  1.100000e+001
      vertex -3.000000e+000  3.673819e-016  0.000000e+000
      vertex -2.427051e+000 -1.763356e+000  0.000000e+000
    endloop
  endfacet
  facet normal -7.070943e-001 -7.070943e-001  5.935137e-003
    outer loop
      vertex -2.598076e+000 -1.500000e+000  1.100000e+001
      vertex -2.427051e+000 -1.763356e+000  0.000000e+000
      vertex -1.500000e+000 -2.598076e+000  1.100000e+001
    endloop
  endfacet
  facet normal -5.877439e-001  8.089601e-001 -1.185336e-002
    outer loop
      vertex -2.427051e+000  1.763356e+000  0.000000e+000
      vertex -1.500000e+000  2.598076e+000  1.100000e+001
      vertex -9.270510e-001  2.853169e+000  0.000000e+000
    endloop
  endfacet
  facet normal  5.877698e-001  8.089958e-001 -7.244038e-003
    outer loop
      vertex  2.427051e+000  1.763356e+000  0.000000e+000
      vertex  9.270510e-001  2.853169e+000  0.000000e+000
      vertex  1.500000e+000  2.598076e+000  1.800000e+001
    endloop
  endfacet
  facet normal  2.588191e-001  9.659258e-001  0.000000e+000
    outer loop
      vertex  2.182092e-015  3.000000e+000  1.100000e+001
      vertex  2.182092e-015  3.000000e+000  1.800000e+001
      vertex  1.500000e+000  2.598076e+000  1.800000e+001
    endloop
  endfacet
  facet normal  2.306271e-001  9.730209e-001  6.448533e-003
    outer loop
      vertex  2.182092e-015  3.000000e+000  1.100000e+001
      vertex  1.500000e+000  2.598076e+000  1.800000e+001
      vertex  9.270510e-001  2.853169e+000  0.000000e+000
    endloop
  endfacet
  facet normal  0.000000e+000  9.999110e-001 -1.334704e-002
    outer loop
      vertex  2.182092e-015  3.000000e+000  1.100000e+001
      vertex  9.270510e-001  2.853169e+000  0.000000e+000
      vertex -9.270510e-001  2.853169e+000  0.000000e+000
    endloop
  endfacet
  facet normal -2.588088e-001  9.658874e-001  8.918835e-003
    outer loop
      vertex  2.182092e-015  3.000000e+000  1.100000e+001
      vertex -9.270510e-001  2.853169e+000  0.000000e+000
      vertex -1.500000e+000  2.598076e+000  1.100000e+001
    endloop
  endfacet
  facet normal -9.510565e-001  3.090169e-001  0.000000e+000
    outer loop
      vertex -3.000000e+000  3.673819e-016  0.000000e+000
      vertex -3.000000e+000  3.673819e-016  1.100000e+001
      vertex -2.427051e+000  1.763356e+000  0.000000e+000
    endloop
  endfacet
  facet normal -9.658882e-001  2.588090e-001 -8.821111e-003
    outer loop
      vertex -2.427051e+000  1.763356e+000  0.000000e+000
      vertex -3.000000e+000  3.673819e-016  1.100000e+001
      vertex -2.598076e+000  1.500000e+000  1.100000e+001
    endloop
  endfacet
  facet normal -7.070943e-001  7.070943e-001  5.935137e-003
    outer loop
      vertex -2.427051e+000  1.763356e+000  0.000000e+000
      vertex -2.598076e+000  1.500000e+000  1.100000e+001
      vertex -1.500000e+000  2.598076e+000  1.100000e+001
    endloop
  endfacet
  facet normal  9.659258e-001  2.588191e-001  1.056505e-017
    outer loop
      vertex  3.000000e+000 -7.347638e-016  1.800000e+001
      vertex  3.000000e+000  0.000000e+000  0.000000e+000
      vertex  2.598076e+000  1.500000e+000  1.800000e+001
    endloop
  endfacet
  facet normal  9.510468e-001  3.090138e-001 -4.515126e-003
    outer loop
      vertex  2.598076e+000  1.500000e+000  1.800000e+001
      vertex  3.000000e+000  0.000000e+000  0.000000e+000
      vertex  2.427051e+000  1.763356e+000  0.000000e+000
    endloop
  endfacet
  facet normal  7.071021e-001  7.071021e-001  3.627068e-003
    outer loop
      vertex  2.598076e+000  1.500000e+000  1.800000e+001
      vertex  2.427051e+000  1.763356e+000  0.000000e+000
      vertex  1.500000e+000  2.598076e+000  1.800000e+001
    endloop
  endfacet
  facet normal  0.000000e+000  0.000000e+000 -1.000000e+000
    outer loop
      vertex -4.300000e+000  2.551470e+000  1.300000e+001
      vertex -4.300000e+000  3.000000e+000  1.300000e+001
      vertex -4.000000e+000  3.000000e+000  1.300000e+001
    endloop
  endfacet
  facet normal  0.000000e+000  0.000000e+000 -1.000000e+000
    outer loop
      vertex -4.000000e+000 -3.000000e+000  1.300000e+001
      vertex -4.300000e+000 -3.000000e+000  1.300000e+001
      vertex -4.300000e+000 -2.551470e+000  1.300000e+001
    endloop
  endfacet
  facet normal  0.000000e+000  1.000000e+000  0.000000e+000
    outer loop
      vertex -4.300000e+000  3.000000e+000  1.500000e+001
      vertex -1.130000e+001  3.000000e+000  1.500000e+001
      vertex -1.130000e+001  3.000000e+000  1.800000e+001
    endloop
  endfacet
  facet normal  0.000000e+000  1.000000e+000  0.000000e+000
    outer loop
      vertex -4.300000e+000  3.000000e+000  1.500000e+001
      vertex -1.130000e+001  3.000000e+000  1.800000e+001
      vertex  2.182092e-015  3.000000e+000  1.800000e+001
    endloop
  endfacet
  facet normal  0.000000e+000  1.000000e+000  0.000000e+000
    outer loop
      vertex -4.300000e+000  3.000000e+000  1.500000e+001
      vertex  2.182092e-015  3.000000e+000  1.800000e+001
      vertex  2.182092e-015  3.000000e+000  1.100000e+001
    endloop
  endfacet
  facet normal  0.000000e+000  1.000000e+000  0.000000e+000
    outer loop
      vertex -4.300000e+000  3.000000e+000  1.500000e+001
      vertex  2.182092e-015  3.000000e+000  1.100000e+001
      vertex -1.618960e+000  3.000000e+000  1.221186e+001
    endloop
  endfacet
  facet normal  0.000000e+000  1.000000e+000  0.000000e+000
    outer loop
      vertex -4.300000e+000  3.000000e+000  1.500000e+001
      vertex -1.618960e+000  3.000000e+000  1.221186e+001
      vertex -2.810593e+000  3.000000e+000  1.279150e+001
    endloop
  endfacet
  facet normal  0.000000e+000  1.000000e+000  0.000000e+000
    outer loop
      vertex -4.300000e+000  3.000000e+000  1.500000e+001
      vertex -2.810593e+000  3.000000e+000  1.279150e+001
      vertex -4.000000e+000  3.000000e+000  1.300000e+001
    endloop
  endfacet
  facet normal  0.000000e+000  1.000000e+000  0.000000e+000
    outer loop
      vertex -4.300000e+000  3.000000e+000  1.500000e+001
      vertex -4.000000e+000  3.000000e+000  1.300000e+001
      vertex -4.300000e+000  3.000000e+000  1.300000e+001
    endloop
  endfacet
  facet normal  0.000000e+000 -1.000000e+000  0.000000e+000
    outer loop
      vertex  0.000000e+000 -3.000000e+000  1.800000e+001
      vertex -1.130000e+001 -3.000000e+000  1.800000e+001
      vertex -1.130000e+001 -3.000000e+000  1.500000e+001
    endloop
  endfacet
  facet normal  0.000000e+000 -1.000000e+000  0.000000e+000
    outer loop
      vertex  0.000000e+000 -3.000000e+000  1.800000e+001
      vertex -1.130000e+001 -3.000000e+000  1.500000e+001
      vertex -4.300000e+000 -3.000000e+000  1.500000e+001
    endloop
  endfacet
  facet normal  0.000000e+000 -1.000000e+000  0.000000e+000
    outer loop
      vertex  0.000000e+000 -3.000000e+000  1.800000e+001
      vertex -4.300000e+000 -3.000000e+000  1.500000e+001
      vertex -4.300000e+000 -3.000000e+000  1.300000e+001
    endloop
  endfacet
  facet normal  0.000000e+000 -1.000000e+000  0.000000e+000
    outer loop
      vertex  0.000000e+000 -3.000000e+000  1.800000e+001
      vertex -4.300000e+000 -3.000000e+000  1.300000e+001
      vertex -4.000000e+000 -3.000000e+000  1.300000e+001
    endloop
  endfacet
  facet normal  0.000000e+000 -1.000000e+000  0.000000e+000
    outer loop
      vertex  0.000000e+000 -3.000000e+000  1.800000e+001
      vertex -4.000000e+000 -3.000000e+000  1.300000e+001
      vertex -2.810593e+000 -3.000000e+000  1.279150e+001
    endloop
  endfacet
  facet normal  0.000000e+000 -1.000000e+000  0.000000e+000
    outer loop
      vertex  0.000000e+000 -3.000000e+000  1.800000e+001
      vertex -2.810593e+000 -3.000000e+000  1.279150e+001
      vertex -1.618960e+000 -3.000000e+000  1.221186e+001
    endloop
  endfacet
  facet normal  0.000000e+000 -1.000000e+000  0.000000e+000
    outer loop
      vertex  0.000000e+000 -3.000000e+000  1.800000e+001
      vertex -1.618960e+000 -3.000000e+000  1.221186e+001
      vertex -5.510729e-016 -3.000000e+000  1.100000e+001
    endloop
  endfacet
  facet normal -1.000000e+000  0.000000e+000  0.000000e+000
    outer loop
      vertex -4.300000e+000  2.551470e+000  1.300000e+001
      vertex -4.300000e+000  3.000000e+000  1.500000e+001
      vertex -4.300000e+000  3.000000e+000  1.300000e+001
    endloop
  endfacet
  facet normal -1.000000e+000  0.000000e+000  0.000000e+000
    outer loop
      vertex -4.300000e+000  2.551470e+000  1.300000e+001
      vertex -4.300000e+000 -3.045078e-007  1.287350e+001
      vertex -4.300000e+000  3.000000e+000  1.500000e+001
    endloop
  endfacet
  facet normal -1.000000e+000  0.000000e+000  0.000000e+000
    outer loop
      vertex -4.300000e+000  3.000000e+000  1.500000e+001
      vertex -4.300000e+000 -3.045078e-007  1.287350e+001
      vertex -4.300000e+000 -2.551470e+000  1.300000e+001
    endloop
  endfacet
  facet normal -1.000000e+000  0.000000e+000  0.000000e+000
    outer loop
      vertex -4.300000e+000  3.000000e+000  1.500000e+001
      vertex -4.300000e+000 -2.551470e+000  1.300000e+001
      vertex -4.300000e+000 -3.000000e+000  1.500000e+001
    endloop
  endfacet
  facet normal -1.000000e+000  0.000000e+000  0.000000e+000
    outer loop
      vertex -4.300000e+000 -3.000000e+000  1.500000e+001
      vertex -4.300000e+000 -2.551470e+000  1.300000e+001
      vertex -4.300000e+000 -3.000000e+000  1.300000e+001
    endloop
  endfacet
  facet normal  0.000000e+000  0.000000e+000  1.000000e+000
    outer loop
      vertex  2.598076e+000 -1.500000e+000  1.800000e+001
      vertex -1.041612e+001 -8.838835e-001  1.800000e+001
      vertex -1.130000e+001 -1.250000e+000  1.800000e+001
    endloop
  endfacet
  facet normal  0.000000e+000  0.000000e+000  1.000000e+000
    outer loop
      vertex  0.000000e+000 -3.000000e+000  1.800000e+001
      vertex  1.500000e+000 -2.598076e+000  1.800000e+001
      vertex -1.130000e+001 -3.000000e+000  1.800000e+001
    endloop
  endfacet
  facet normal  0.000000e+000  0.000000e+000  1.000000e+000
    outer loop
      vertex -1.415317e+001 -9.270510e-001  1.800000e+001
      vertex -1.306336e+001 -2.427051e+000  1.800000e+001
      vertex -1.130000e+001 -1.250000e+000  1.800000e+001
    endloop
  endfacet
  facet normal  0.000000e+000  0.000000e+000  1.000000e+000
    outer loop
      vertex -1.415317e+001 -9.270510e-001  1.800000e+001
      vertex -1.130000e+001 -1.250000e+000  1.800000e+001
      vertex -1.218388e+001 -8.838835e-001  1.800000e+001
    endloop
  endfacet
  facet normal  0.000000e+000  0.000000e+000  1.000000e+000
    outer loop
      vertex -1.415317e+001 -9.270510e-001  1.800000e+001
      vertex -1.218388e+001 -8.838835e-001  1.800000e+001
      vertex -1.255000e+001  1.530758e-016  1.800000e+001
    endloop
  endfacet
  facet normal  0.000000e+000  0.000000e+000  1.000000e+000
    outer loop
      vertex -1.415317e+001 -9.270510e-001  1.800000e+001
      vertex -1.255000e+001  1.530758e-016  1.800000e+001
      vertex -1.218388e+001  8.838835e-001  1.800000e+001
    endloop
  endfacet
  facet normal  0.000000e+000  0.000000e+000  1.000000e+000
    outer loop
      vertex -1.415317e+001 -9.270510e-001  1.800000e+001
      vertex -1.218388e+001  8.838835e-001  1.800000e+001
      vertex -1.415317e+001  9.270510e-001  1.800000e+001
    endloop
  endfacet
  facet normal  0.000000e+000  0.000000e+000  1.000000e+000
    outer loop
      vertex -1.130000e+001  1.250000e+000  1.800000e+001
      vertex -1.041612e+001  8.838835e-001  1.800000e+001
      vertex  3.000000e+000 -7.347638e-016  1.800000e+001
    endloop
  endfacet
  facet normal  0.000000e+000  0.000000e+000  1.000000e+000
    outer loop
      vertex -1.130000e+001  1.250000e+000  1.800000e+001
      vertex  3.000000e+000 -7.347638e-016  1.800000e+001
      vertex  2.598076e+000  1.500000e+000  1.800000e+001
    endloop
  endfacet
  facet normal  0.000000e+000  0.000000e+000  1.000000e+000
    outer loop
      vertex -1.130000e+001  1.250000e+000  1.800000e+001
      vertex  2.598076e+000  1.500000e+000  1.800000e+001
      vertex  1.500000e+000  2.598076e+000  1.800000e+001
    endloop
  endfacet
  facet normal  0.000000e+000  0.000000e+000  1.000000e+000
    outer loop
      vertex -1.130000e+001  1.250000e+000  1.800000e+001
      vertex  1.500000e+000  2.598076e+000  1.800000e+001
      vertex  2.182092e-015  3.000000e+000  1.800000e+001
    endloop
  endfacet
  facet normal  0.000000e+000  0.000000e+000  1.000000e+000
    outer loop
      vertex -1.130000e+001  1.250000e+000  1.800000e+001
      vertex  2.182092e-015  3.000000e+000  1.800000e+001
      vertex -1.130000e+001  3.000000e+000  1.800000e+001
    endloop
  endfacet
  facet normal  0.000000e+000  0.000000e+000  1.000000e+000
    outer loop
      vertex -1.130000e+001  1.250000e+000  1.800000e+001
      vertex -1.130000e+001  3.000000e+000  1.800000e+001
      vertex -1.306336e+001  2.427051e+000  1.800000e+001
    endloop
  endfacet
  facet normal  0.000000e+000  0.000000e+000  1.000000e+000
    outer loop
      vertex -1.130000e+001  1.250000e+000  1.800000e+001
      vertex -1.306336e+001  2.427051e+000  1.800000e+001
      vertex -1.415317e+001  9.270510e-001  1.800000e+001
    endloop
  endfacet
  facet normal  0.000000e+000  0.000000e+000  1.000000e+000
    outer loop
      vertex -1.130000e+001  1.250000e+000  1.800000e+001
      vertex -1.415317e+001  9.270510e-001  1.800000e+001
      vertex -1.218388e+001  8.838835e-001  1.800000e+001
    endloop
  endfacet
  facet normal  0.000000e+000  0.000000e+000  1.000000e+000
    outer loop
      vertex -1.041612e+001 -8.838835e-001  1.800000e+001
      vertex  2.598076e+000 -1.500000e+000  1.800000e+001
      vertex -1.005000e+001  0.000000e+000  1.800000e+001
    endloop
  endfacet
  facet normal  0.000000e+000  0.000000e+000  1.000000e+000
    outer loop
      vertex -1.005000e+001  0.000000e+000  1.800000e+001
      vertex  2.598076e+000 -1.500000e+000  1.800000e+001
      vertex  3.000000e+000 -7.347638e-016  1.800000e+001
    endloop
  endfacet
  facet normal  0.000000e+000  0.000000e+000  1.000000e+000
    outer loop
      vertex -1.005000e+001  0.000000e+000  1.800000e+001
      vertex  3.000000e+000 -7.347638e-016  1.800000e+001
      vertex -1.041612e+001  8.838835e-001  1.800000e+001
    endloop
  endfacet
  facet normal  0.000000e+000  0.000000e+000  1.000000e+000
    outer loop
      vertex  1.500000e+000 -2.598076e+000  1.800000e+001
      vertex  2.598076e+000 -1.500000e+000  1.800000e+001
      vertex -1.130000e+001 -3.000000e+000  1.800000e+001
    endloop
  endfacet
  facet normal  0.000000e+000  0.000000e+000  1.000000e+000
    outer loop
      vertex -1.130000e+001 -3.000000e+000  1.800000e+001
      vertex  2.598076e+000 -1.500000e+000  1.800000e+001
      vertex -1.130000e+001 -1.250000e+000  1.800000e+001
    endloop
  endfacet
  facet normal  0.000000e+000  0.000000e+000  1.000000e+000
    outer loop
      vertex -1.130000e+001 -3.000000e+000  1.800000e+001
      vertex -1.130000e+001 -1.250000e+000  1.800000e+001
      vertex -1.306336e+001 -2.427051e+000  1.800000e+001
    endloop
  endfacet
  facet normal  0.000000e+000  0.000000e+000 -1.000000e+000
    outer loop
      vertex -1.218388e+001  8.838835e-001  1.500000e+001
      vertex -1.415317e+001  9.270510e-001  1.500000e+001
      vertex -1.130000e+001  1.250000e+000  1.500000e+001
    endloop
  endfacet
  facet normal  0.000000e+000  0.000000e+000 -1.000000e+000
    outer loop
      vertex -1.306336e+001 -2.427051e+000  1.500000e+001
      vertex -1.130000e+001 -1.250000e+000  1.500000e+001
      vertex -1.130000e+001 -3.000000e+000  1.500000e+001
    endloop
  endfacet
  facet normal  0.000000e+000  0.000000e+000 -1.000000e+000
    outer loop
      vertex -1.415317e+001 -9.270510e-001  1.500000e+001
      vertex -1.415317e+001  9.270510e-001  1.500000e+001
      vertex -1.218388e+001  8.838835e-001  1.500000e+001
    endloop
  endfacet
  facet normal  0.000000e+000  0.000000e+000 -1.000000e+000
    outer loop
      vertex -1.415317e+001 -9.270510e-001  1.500000e+001
      vertex -1.218388e+001  8.838835e-001  1.500000e+001
      vertex -1.255000e+001  1.530758e-016  1.500000e+001
    endloop
  endfacet
  facet normal  0.000000e+000  0.000000e+000 -1.000000e+000
    outer loop
      vertex -1.415317e+001 -9.270510e-001  1.500000e+001
      vertex -1.255000e+001  1.530758e-016  1.500000e+001
      vertex -1.218388e+001 -8.838835e-001  1.500000e+001
    endloop
  endfacet
  facet normal  0.000000e+000  0.000000e+000 -1.000000e+000
    outer loop
      vertex -1.415317e+001 -9.270510e-001  1.500000e+001
      vertex -1.218388e+001 -8.838835e-001  1.500000e+001
      vertex -1.130000e+001 -1.250000e+000  1.500000e+001
    endloop
  endfacet
  facet normal  0.000000e+000  0.000000e+000 -1.000000e+000
    outer loop
      vertex -1.415317e+001 -9.270510e-001  1.500000e+001
      vertex -1.130000e+001 -1.250000e+000  1.500000e+001
      vertex -1.306336e+001 -2.427051e+000  1.500000e+001
    endloop
  endfacet
  facet normal  0.000000e+000  0.000000e+000 -1.000000e+000
    outer loop
      vertex -4.300000e+000 -3.000000e+000  1.500000e+001
      vertex -1.130000e+001 -3.000000e+000  1.500000e+001
      vertex -1.130000e+001 -1.250000e+000  1.500000e+001
    endloop
  endfacet
  facet normal  0.000000e+000  0.000000e+000 -1.000000e+000
    outer loop
      vertex -4.300000e+000 -3.000000e+000  1.500000e+001
      vertex -1.130000e+001 -1.250000e+000  1.500000e+001
      vertex -1.041612e+001 -8.838835e-001  1.500000e+001
    endloop
  endfacet
  facet normal  0.000000e+000  0.000000e+000 -1.000000e+000
    outer loop
      vertex -4.300000e+000 -3.000000e+000  1.500000e+001
      vertex -1.041612e+001 -8.838835e-001  1.500000e+001
      vertex -1.005000e+001  0.000000e+000  1.500000e+001
    endloop
  endfacet
  facet normal  0.000000e+000  0.000000e+000 -1.000000e+000
    outer loop
      vertex -4.300000e+000 -3.000000e+000  1.500000e+001
      vertex -1.005000e+001  0.000000e+000  1.500000e+001
      vertex -1.041612e+001  8.838835e-001  1.500000e+001
    endloop
  endfacet
  facet normal  0.000000e+000  0.000000e+000 -1.000000e+000
    outer loop
      vertex -4.300000e+000 -3.000000e+000  1.500000e+001
      vertex -1.041612e+001  8.838835e-001  1.500000e+001
      vertex -4.300000e+000  3.000000e+000  1.500000e+001
    endloop
  endfacet
  facet normal  0.000000e+000  0.000000e+000 -1.000000e+000
    outer loop
      vertex -4.300000e+000  3.000000e+000  1.500000e+001
      vertex -1.041612e+001  8.838835e-001  1.500000e+001
      vertex -1.130000e+001  3.000000e+000  1.500000e+001
    endloop
  endfacet
  facet normal  0.000000e+000  0.000000e+000 -1.000000e+000
    outer loop
      vertex -1.130000e+001  3.000000e+000  1.500000e+001
      vertex -1.041612e+001  8.838835e-001  1.500000e+001
      vertex -1.130000e+001  1.250000e+000  1.500000e+001
    endloop
  endfacet
  facet normal  0.000000e+000  0.000000e+000 -1.000000e+000
    outer loop
      vertex -1.130000e+001  3.000000e+000  1.500000e+001
      vertex -1.130000e+001  1.250000e+000  1.500000e+001
      vertex -1.306336e+001  2.427051e+000  1.500000e+001
    endloop
  endfacet
  facet normal  0.000000e+000  0.000000e+000 -1.000000e+000
    outer loop
      vertex -1.306336e+001  2.427051e+000  1.500000e+001
      vertex -1.130000e+001  1.250000e+000  1.500000e+001
      vertex -1.415317e+001  9.270510e-001  1.500000e+001
    endloop
  endfacet
  facet normal  9.238795e-001 -3.826834e-001  0.000000e+000
    outer loop
      vertex -1.255000e+001  1.530758e-016  1.800000e+001
      vertex -1.255000e+001  1.530758e-016  1.500000e+001
      vertex -1.218388e+001  8.838835e-001  1.800000e+001
    endloop
  endfacet
  facet normal  9.238795e-001 -3.826834e-001  0.000000e+000
    outer loop
      vertex -1.218388e+001  8.838835e-001  1.800000e+001
      vertex -1.255000e+001  1.530758e-016  1.500000e+001
      vertex -1.218388e+001  8.838835e-001  1.500000e+001
    endloop
  endfacet
  facet normal  3.826834e-001 -9.238795e-001  0.000000e+000
    outer loop
      vertex -1.218388e+001  8.838835e-001  1.800000e+001
      vertex -1.218388e+001  8.838835e-001  1.500000e+001
      vertex -1.130000e+001  1.250000e+000  1.800000e+001
    endloop
  endfacet
  facet normal  3.826834e-001 -9.238795e-001  0.000000e+000
    outer loop
      vertex -1.130000e+001  1.250000e+000  1.800000e+001
      vertex -1.218388e+001  8.838835e-001  1.500000e+001
      vertex -1.130000e+001  1.250000e+000  1.500000e+001
    endloop
  endfacet
  facet normal -3.826834e-001 -9.238795e-001  0.000000e+000
    outer loop
      vertex -1.130000e+001  1.250000e+000  1.800000e+001
      vertex -1.130000e+001  1.250000e+000  1.500000e+001
      vertex -1.041612e+001  8.838835e-001  1.800000e+001
    endloop
  endfacet
  facet normal -3.826834e-001 -9.238795e-001  0.000000e+000
    outer loop
      vertex -1.041612e+001  8.838835e-001  1.800000e+001
      vertex -1.130000e+001  1.250000e+000  1.500000e+001
      vertex -1.041612e+001  8.838835e-001  1.500000e+001
    endloop
  endfacet
  facet normal -9.238795e-001 -3.826834e-001  0.000000e+000
    outer loop
      vertex -1.041612e+001  8.838835e-001  1.800000e+001
      vertex -1.041612e+001  8.838835e-001  1.500000e+001
      vertex -1.005000e+001  0.000000e+000  1.800000e+001
    endloop
  endfacet
  facet normal -9.238795e-001 -3.826834e-001  0.000000e+000
    outer loop
      vertex -1.005000e+001  0.000000e+000  1.800000e+001
      vertex -1.041612e+001  8.838835e-001  1.500000e+001
      vertex -1.005000e+001  0.000000e+000  1.500000e+001
    endloop
  endfacet
  facet normal -9.238795e-001  3.826834e-001  0.000000e+000
    outer loop
      vertex -1.005000e+001  0.000000e+000  1.800000e+001
      vertex -1.005000e+001  0.000000e+000  1.500000e+001
      vertex -1.041612e+001 -8.838835e-001  1.800000e+001
    endloop
  endfacet
  facet normal -9.238795e-001  3.826834e-001  0.000000e+000
    outer loop
      vertex -1.041612e+001 -8.838835e-001  1.800000e+001
      vertex -1.005000e+001  0.000000e+000  1.500000e+001
      vertex -1.041612e+001 -8.838835e-001  1.500000e+001
    endloop
  endfacet
  facet normal -3.826834e-001  9.238795e-001  0.000000e+000
    outer loop
      vertex -1.041612e+001 -8.838835e-001  1.800000e+001
      vertex -1.041612e+001 -8.838835e-001  1.500000e+001
      vertex -1.130000e+001 -1.250000e+000  1.800000e+001
    endloop
  endfacet
  facet normal -3.826834e-001  9.238795e-001  0.000000e+000
    outer loop
      vertex -1.130000e+001 -1.250000e+000  1.800000e+001
      vertex -1.041612e+001 -8.838835e-001  1.500000e+001
      vertex -1.130000e+001 -1.250000e+000  1.500000e+001
    endloop
  endfacet
  facet normal  3.826834e-001  9.238795e-001  0.000000e+000
    outer loop
      vertex -1.130000e+001 -1.250000e+000  1.800000e+001
      vertex -1.130000e+001 -1.250000e+000  1.500000e+001
      vertex -1.218388e+001 -8.838835e-001  1.800000e+001
    endloop
  endfacet
  facet normal  3.826834e-001  9.238795e-001  0.000000e+000
    outer loop
      vertex -1.218388e+001 -8.838835e-001  1.800000e+001
      vertex -1.130000e+001 -1.250000e+000  1.500000e+001
      vertex -1.218388e+001 -8.838835e-001  1.500000e+001
    endloop
  endfacet
  facet normal  9.238795e-001  3.826834e-001  0.000000e+000
    outer loop
      vertex -1.218388e+001 -8.838835e-001  1.800000e+001
      vertex -1.218388e+001 -8.838835e-001  1.500000e+001
      vertex -1.255000e+001  1.530758e-016  1.800000e+001
    endloop
  endfacet
  facet normal  9.238795e-001  3.826834e-001  0.000000e+000
    outer loop
      vertex -1.255000e+001  1.530758e-016  1.800000e+001
      vertex -1.218388e+001 -8.838835e-001  1.500000e+001
      vertex -1.255000e+001  1.530758e-016  1.500000e+001
    endloop
  endfacet
  facet normal -3.090170e-001 -9.510565e-001  0.000000e+000
    outer loop
      vertex -1.130000e+001 -3.000000e+000  1.500000e+001
      vertex -1.130000e+001 -3.000000e+000  1.800000e+001
      vertex -1.306336e+001 -2.427051e+000  1.500000e+001
    endloop
  endfacet
  facet normal -3.090170e-001 -9.510565e-001  0.000000e+000
    outer loop
      vertex -1.306336e+001 -2.427051e+000  1.500000e+001
      vertex -1.130000e+001 -3.000000e+000  1.800000e+001
      vertex -1.306336e+001 -2.427051e+000  1.800000e+001
    endloop
  endfacet
  facet normal -8.090169e-001 -5.877854e-001  0.000000e+000
    outer loop
      vertex -1.306336e+001 -2.427051e+000  1.500000e+001
      vertex -1.306336e+001 -2.427051e+000  1.800000e+001
      vertex -1.415317e+001 -9.270510e-001  1.500000e+001
    endloop
  endfacet
  facet normal -8.090169e-001 -5.877854e-001  0.000000e+000
    outer loop
      vertex -1.415317e+001 -9.270510e-001  1.500000e+001
      vertex -1.306336e+001 -2.427051e+000  1.800000e+001
      vertex -1.415317e+001 -9.270510e-001  1.800000e+001
    endloop
  endfacet
  facet normal -1.000000e+000  0.000000e+000  0.000000e+000
    outer loop
      vertex -1.415317e+001 -9.270510e-001  1.500000e+001
      vertex -1.415317e+001 -9.270510e-001  1.800000e+001
      vertex -1.415317e+001  9.270510e-001  1.500000e+001
    endloop
  endfacet
  facet normal -1.000000e+000  0.000000e+000  0.000000e+000
    outer loop
      vertex -1.415317e+001  9.270510e-001  1.500000e+001
      vertex -1.415317e+001 -9.270510e-001  1.800000e+001
      vertex -1.415317e+001  9.270510e-001  1.800000e+001
    endloop
  endfacet
  facet normal -8.090169e-001  5.877854e-001  0.000000e+000
    outer loop
      vertex -1.415317e+001  9.270510e-001  1.500000e+001
      vertex -1.415317e+001  9.270510e-001  1.800000e+001
      vertex -1.306336e+001  2.427051e+000  1.500000e+001
    endloop
  endfacet
  facet normal -8.090169e-001  5.877854e-001  0.000000e+000
    outer loop
      vertex -1.306336e+001  2.427051e+000  1.500000e+001
      vertex -1.415317e+001  9.270510e-001  1.800000e+001
      vertex -1.306336e+001  2.427051e+000  1.800000e+001
    endloop
  endfacet
  facet normal -3.090170e-001  9.510565e-001  0.000000e+000
    outer loop
      vertex -1.306336e+001  2.427051e+000  1.500000e+001
      vertex -1.306336e+001  2.427051e+000  1.800000e+001
      vertex -1.130000e+001  3.000000e+000  1.500000e+001
    endloop
  endfacet
  facet normal -3.090170e-001  9.510565e-001  0.000000e+000
    outer loop
      vertex -1.130000e+001  3.000000e+000  1.500000e+001
      vertex -1.306336e+001  2.427051e+000  1.800000e+001
      vertex -1.130000e+001  3.000000e+000  1.800000e+001
    endloop
  endfacet
endsolid CATIA STL
