solid CATIA STL
  facet normal  8.088524e-001 -5.876651e-001 -2.018715e-002
    outer loop
      vertex  2.205725e+001 -2.831559e+000 -6.000000e+000
      vertex  2.332870e+001 -1.081560e+000 -6.000000e+000
      vertex  2.297728e+001 -1.840059e+000  2.000000e+000
    endloop
  endfacet
  facet normal  9.554585e-001 -2.947923e-001  1.402086e-002
    outer loop
      vertex  2.349646e+001 -1.573188e-001  2.000000e+000
      vertex  2.297728e+001 -1.840059e+000  2.000000e+000
      vertex  2.332870e+001 -1.081560e+000 -6.000000e+000
    endloop
  endfacet
  facet normal  9.997802e-001  0.000000e+000 -2.096597e-002
    outer loop
      vertex  2.332870e+001 -1.081560e+000 -6.000000e+000
      vertex  2.332870e+001  1.081560e+000 -6.000000e+000
      vertex  2.349646e+001 -1.573188e-001  2.000000e+000
    endloop
  endfacet
  facet normal  9.781679e-001  2.078161e-001  0.000000e+000
    outer loop
      vertex  2.313050e+001  1.565248e+000  2.000000e+000
      vertex  2.349646e+001 -1.573188e-001  2.000000e+000
      vertex  2.313050e+001  1.565248e+000  5.000000e-001
    endloop
  endfacet
  facet normal  9.756337e-001  2.189930e-001  1.345360e-002
    outer loop
      vertex  2.313050e+001  1.565248e+000  5.000000e-001
      vertex  2.349646e+001 -1.573188e-001  2.000000e+000
      vertex  2.332870e+001  1.081560e+000 -6.000000e+000
    endloop
  endfacet
  facet normal  8.063170e-001  5.911653e-001 -1.940397e-002
    outer loop
      vertex  2.313050e+001  1.565248e+000  5.000000e-001
      vertex  2.332870e+001  1.081560e+000 -6.000000e+000
      vertex  2.240144e+001  2.546191e+000  9.029493e-002
    endloop
  endfacet
  facet normal  8.088836e-001  5.876878e-001 -1.817691e-002
    outer loop
      vertex  2.240144e+001  2.546191e+000  9.029493e-002
      vertex  2.332870e+001  1.081560e+000 -6.000000e+000
      vertex  2.205725e+001  2.831559e+000 -6.000000e+000
    endloop
  endfacet
  facet normal  6.137356e-001  7.895083e-001  2.308354e-003
    outer loop
      vertex  2.240144e+001  2.546191e+000  9.029493e-002
      vertex  2.205725e+001  2.831559e+000 -6.000000e+000
      vertex  2.187706e+001  2.954092e+000  0.000000e+000
    endloop
  endfacet
  facet normal  2.515733e-001 -9.678382e-001  0.000000e+000
    outer loop
      vertex  2.000000e+001 -3.500000e+000  2.000000e+000
      vertex  2.000000e+001 -3.500000e+000 -6.000000e+000
      vertex  2.170438e+001 -3.056976e+000  2.000000e+000
    endloop
  endfacet
  facet normal  3.089902e-001 -9.509741e-001 -1.316640e-002
    outer loop
      vertex  2.170438e+001 -3.056976e+000  2.000000e+000
      vertex  2.000000e+001 -3.500000e+000 -6.000000e+000
      vertex  2.205725e+001 -2.831559e+000 -6.000000e+000
    endloop
  endfacet
  facet normal  6.909972e-001 -7.227867e-001  1.011325e-002
    outer loop
      vertex  2.170438e+001 -3.056976e+000  2.000000e+000
      vertex  2.205725e+001 -2.831559e+000 -6.000000e+000
      vertex  2.297728e+001 -1.840059e+000  2.000000e+000
    endloop
  endfacet
  facet normal  3.090169e-001  9.510565e-001  0.000000e+000
    outer loop
      vertex  2.000000e+001  3.500000e+000 -6.000000e+000
      vertex  2.000000e+001  3.500000e+000  0.000000e+000
      vertex  2.205725e+001  2.831559e+000 -6.000000e+000
    endloop
  endfacet
  facet normal  2.792436e-001  9.601547e-001 -1.122213e-002
    outer loop
      vertex  2.205725e+001  2.831559e+000 -6.000000e+000
      vertex  2.000000e+001  3.500000e+000  0.000000e+000
      vertex  2.187706e+001  2.954092e+000  0.000000e+000
    endloop
  endfacet
  facet normal  0.000000e+000  0.000000e+000 -1.000000e+000
    outer loop
      vertex  1.485410e+001  1.650000e+001  0.000000e+000
      vertex  1.507771e+001  1.655279e+001  0.000000e+000
      vertex  2.187706e+001  2.954092e+000  0.000000e+000
    endloop
  endfacet
  facet normal  0.000000e+000  0.000000e+000 -1.000000e+000
    outer loop
      vertex  1.485410e+001  1.650000e+001  0.000000e+000
      vertex  2.187706e+001  2.954092e+000  0.000000e+000
      vertex  2.000000e+001  3.500000e+000  0.000000e+000
    endloop
  endfacet
  facet normal  0.000000e+000  0.000000e+000 -1.000000e+000
    outer loop
      vertex  1.485410e+001  1.650000e+001  0.000000e+000
      vertex  2.000000e+001  3.500000e+000  0.000000e+000
      vertex  0.000000e+000  3.500000e+000  0.000000e+000
    endloop
  endfacet
  facet normal  0.000000e+000  0.000000e+000 -1.000000e+000
    outer loop
      vertex  1.485410e+001  1.650000e+001  0.000000e+000
      vertex  0.000000e+000  3.500000e+000  0.000000e+000
      vertex  5.145898e+000  1.650000e+001  0.000000e+000
    endloop
  endfacet
  facet normal  1.816307e-015 -7.189636e-016 -1.000000e+000
    outer loop
      vertex  5.145898e+000  1.650000e+001  0.000000e+000
      vertex  0.000000e+000  3.500000e+000  0.000000e+000
      vertex  4.922291e+000  1.655279e+001 -4.440892e-016
    endloop
  endfacet
  facet normal  1.111375e-017 -3.821363e-017 -1.000000e+000
    outer loop
      vertex  4.922291e+000  1.655279e+001 -4.440892e-016
      vertex  0.000000e+000  3.500000e+000  0.000000e+000
      vertex -1.877056e+000  2.954092e+000  0.000000e+000
    endloop
  endfacet
  facet normal  0.000000e+000 -1.000000e+000  0.000000e+000
    outer loop
      vertex  5.145898e+000  1.650000e+001  0.000000e+000
      vertex  5.145898e+000  1.650000e+001 -6.000000e+000
      vertex  1.485410e+001  1.650000e+001  0.000000e+000
    endloop
  endfacet
  facet normal  0.000000e+000 -1.000000e+000  0.000000e+000
    outer loop
      vertex  1.485410e+001  1.650000e+001  0.000000e+000
      vertex  5.145898e+000  1.650000e+001 -6.000000e+000
      vertex  1.485410e+001  1.650000e+001 -6.000000e+000
    endloop
  endfacet
  facet normal  0.000000e+000  0.000000e+000 -1.000000e+000
    outer loop
      vertex  8.840566e+000  1.912625e+001 -6.000000e+000
      vertex  9.573400e+000  1.853593e+001 -6.000000e+000
      vertex  4.698684e+000  1.722361e+001 -6.000000e+000
    endloop
  endfacet
  facet normal  0.000000e+000  0.000000e+000 -1.000000e+000
    outer loop
      vertex  6.869505e+000  2.156525e+001 -6.000000e+000
      vertex  8.159941e+000  2.297728e+001 -6.000000e+000
      vertex  9.330100e+000  2.079469e+001 -6.000000e+000
    endloop
  endfacet
  facet normal  0.000000e+000  0.000000e+000 -1.000000e+000
    outer loop
      vertex  6.869505e+000  2.156525e+001 -6.000000e+000
      vertex  9.330100e+000  2.079469e+001 -6.000000e+000
      vertex  8.739787e+000  2.006185e+001 -6.000000e+000
    endloop
  endfacet
  facet normal  0.000000e+000  0.000000e+000 -1.000000e+000
    outer loop
      vertex  6.869505e+000  2.156525e+001 -6.000000e+000
      vertex  8.739787e+000  2.006185e+001 -6.000000e+000
      vertex  8.840566e+000  1.912625e+001 -6.000000e+000
    endloop
  endfacet
  facet normal  0.000000e+000  0.000000e+000 -1.000000e+000
    outer loop
      vertex  6.869505e+000  2.156525e+001 -6.000000e+000
      vertex  8.840566e+000  1.912625e+001 -6.000000e+000
      vertex  4.698684e+000  1.722361e+001 -6.000000e+000
    endloop
  endfacet
  facet normal  0.000000e+000  0.000000e+000 -1.000000e+000
    outer loop
      vertex  1.313050e+001  2.156525e+001 -6.000000e+000
      vertex  1.530132e+001  1.722361e+001 -6.000000e+000
      vertex  1.050901e+001  1.863671e+001 -6.000000e+000
    endloop
  endfacet
  facet normal  0.000000e+000  0.000000e+000 -1.000000e+000
    outer loop
      vertex  1.313050e+001  2.156525e+001 -6.000000e+000
      vertex  1.050901e+001  1.863671e+001 -6.000000e+000
      vertex  1.109932e+001  1.936955e+001 -6.000000e+000
    endloop
  endfacet
  facet normal  0.000000e+000  0.000000e+000 -1.000000e+000
    outer loop
      vertex  1.313050e+001  2.156525e+001 -6.000000e+000
      vertex  1.109932e+001  1.936955e+001 -6.000000e+000
      vertex  1.099854e+001  2.030515e+001 -6.000000e+000
    endloop
  endfacet
  facet normal  0.000000e+000  0.000000e+000 -1.000000e+000
    outer loop
      vertex  1.313050e+001  2.156525e+001 -6.000000e+000
      vertex  1.099854e+001  2.030515e+001 -6.000000e+000
      vertex  1.026571e+001  2.089547e+001 -6.000000e+000
    endloop
  endfacet
  facet normal  0.000000e+000  0.000000e+000 -1.000000e+000
    outer loop
      vertex  4.657357e+000  1.689357e+001 -6.000000e+000
      vertex  4.698684e+000  1.722361e+001 -6.000000e+000
      vertex  4.832222e+000  1.661063e+001 -6.000000e+000
    endloop
  endfacet
  facet normal  0.000000e+000  0.000000e+000 -1.000000e+000
    outer loop
      vertex  4.832222e+000  1.661063e+001 -6.000000e+000
      vertex  4.698684e+000  1.722361e+001 -6.000000e+000
      vertex  9.573400e+000  1.853593e+001 -6.000000e+000
    endloop
  endfacet
  facet normal  0.000000e+000  0.000000e+000 -1.000000e+000
    outer loop
      vertex  4.832222e+000  1.661063e+001 -6.000000e+000
      vertex  9.573400e+000  1.853593e+001 -6.000000e+000
      vertex  5.145898e+000  1.650000e+001 -6.000000e+000
    endloop
  endfacet
  facet normal  0.000000e+000  0.000000e+000 -1.000000e+000
    outer loop
      vertex  5.145898e+000  1.650000e+001 -6.000000e+000
      vertex  9.573400e+000  1.853593e+001 -6.000000e+000
      vertex  1.050901e+001  1.863671e+001 -6.000000e+000
    endloop
  endfacet
  facet normal  0.000000e+000  0.000000e+000 -1.000000e+000
    outer loop
      vertex  1.184006e+001  2.297728e+001 -6.000000e+000
      vertex  1.313050e+001  2.156525e+001 -6.000000e+000
      vertex  1.000000e+001  2.350000e+001 -6.000000e+000
    endloop
  endfacet
  facet normal  0.000000e+000  0.000000e+000 -1.000000e+000
    outer loop
      vertex  1.000000e+001  2.350000e+001 -6.000000e+000
      vertex  1.313050e+001  2.156525e+001 -6.000000e+000
      vertex  1.026571e+001  2.089547e+001 -6.000000e+000
    endloop
  endfacet
  facet normal  0.000000e+000  0.000000e+000 -1.000000e+000
    outer loop
      vertex  1.000000e+001  2.350000e+001 -6.000000e+000
      vertex  1.026571e+001  2.089547e+001 -6.000000e+000
      vertex  8.159941e+000  2.297728e+001 -6.000000e+000
    endloop
  endfacet
  facet normal  0.000000e+000  0.000000e+000 -1.000000e+000
    outer loop
      vertex  8.159941e+000  2.297728e+001 -6.000000e+000
      vertex  1.026571e+001  2.089547e+001 -6.000000e+000
      vertex  9.330100e+000  2.079469e+001 -6.000000e+000
    endloop
  endfacet
  facet normal  0.000000e+000  0.000000e+000 -1.000000e+000
    outer loop
      vertex  1.530132e+001  1.722361e+001 -6.000000e+000
      vertex  1.534264e+001  1.689357e+001 -6.000000e+000
      vertex  1.050901e+001  1.863671e+001 -6.000000e+000
    endloop
  endfacet
  facet normal  0.000000e+000  0.000000e+000 -1.000000e+000
    outer loop
      vertex  1.050901e+001  1.863671e+001 -6.000000e+000
      vertex  1.534264e+001  1.689357e+001 -6.000000e+000
      vertex  1.516778e+001  1.661063e+001 -6.000000e+000
    endloop
  endfacet
  facet normal  0.000000e+000  0.000000e+000 -1.000000e+000
    outer loop
      vertex  1.050901e+001  1.863671e+001 -6.000000e+000
      vertex  1.516778e+001  1.661063e+001 -6.000000e+000
      vertex  5.145898e+000  1.650000e+001 -6.000000e+000
    endloop
  endfacet
  facet normal  0.000000e+000  0.000000e+000 -1.000000e+000
    outer loop
      vertex  5.145898e+000  1.650000e+001 -6.000000e+000
      vertex  1.516778e+001  1.661063e+001 -6.000000e+000
      vertex  1.485410e+001  1.650000e+001 -6.000000e+000
    endloop
  endfacet
  facet normal  8.944272e-001  4.472136e-001  0.000000e+000
    outer loop
      vertex  2.313050e+001  1.565248e+000  2.000000e+000
      vertex  2.313050e+001  1.565248e+000  5.000000e-001
      vertex  1.313050e+001  2.156525e+001  2.000000e+000
    endloop
  endfacet
  facet normal  8.944272e-001  4.472136e-001 -7.263360e-007
    outer loop
      vertex  1.313050e+001  2.156525e+001  2.000000e+000
      vertex  2.313050e+001  1.565248e+000  5.000000e-001
      vertex  1.530132e+001  1.722361e+001  5.000000e-001
    endloop
  endfacet
  facet normal  8.944272e-001  4.472134e-001  0.000000e+000
    outer loop
      vertex  1.313050e+001  2.156525e+001  2.000000e+000
      vertex  1.530132e+001  1.722361e+001  5.000000e-001
      vertex  1.313050e+001  2.156525e+001 -6.000000e+000
    endloop
  endfacet
  facet normal  8.944273e-001  4.472134e-001  0.000000e+000
    outer loop
      vertex  1.313050e+001  2.156525e+001 -6.000000e+000
      vertex  1.530132e+001  1.722361e+001  5.000000e-001
      vertex  1.530132e+001  1.722361e+001 -6.000000e+000
    endloop
  endfacet
  facet normal  2.297505e-001 -9.732496e-001  0.000000e+000
    outer loop
      vertex  1.485410e+001  1.650000e+001  0.000000e+000
      vertex  1.485410e+001  1.650000e+001 -6.000000e+000
      vertex  1.507771e+001  1.655279e+001  0.000000e+000
    endloop
  endfacet
  facet normal  3.326109e-001 -9.430552e-001 -4.099027e-003
    outer loop
      vertex  1.507771e+001  1.655279e+001  0.000000e+000
      vertex  1.485410e+001  1.650000e+001 -6.000000e+000
      vertex  1.516778e+001  1.661063e+001 -6.000000e+000
    endloop
  endfacet
  facet normal  6.351262e-001 -7.724056e-001  2.087408e-003
    outer loop
      vertex  1.507771e+001  1.655279e+001  0.000000e+000
      vertex  1.516778e+001  1.661063e+001 -6.000000e+000
      vertex  1.524996e+001  1.669456e+001  4.977205e-002
    endloop
  endfacet
  facet normal  8.877928e-001 -4.602084e-001 -5.676229e-003
    outer loop
      vertex  1.524996e+001  1.669456e+001  4.977205e-002
      vertex  1.516778e+001  1.661063e+001 -6.000000e+000
      vertex  1.533088e+001  1.684940e+001  1.520778e-001
    endloop
  endfacet
  facet normal  8.506483e-001 -5.257308e-001 -2.148492e-003
    outer loop
      vertex  1.533088e+001  1.684940e+001  1.520778e-001
      vertex  1.516778e+001  1.661063e+001 -6.000000e+000
      vertex  1.534264e+001  1.689357e+001 -6.000000e+000
    endloop
  endfacet
  facet normal  9.999970e-001 -1.554516e-003  1.900653e-003
    outer loop
      vertex  1.533088e+001  1.684940e+001  1.520778e-001
      vertex  1.534264e+001  1.689357e+001 -6.000000e+000
      vertex  1.533084e+001  1.715074e+001  4.216217e-001
    endloop
  endfacet
  facet normal  9.922456e-001  1.242529e-001 -3.151867e-003
    outer loop
      vertex  1.533084e+001  1.715074e+001  4.216217e-001
      vertex  1.534264e+001  1.689357e+001 -6.000000e+000
      vertex  1.530132e+001  1.722361e+001 -6.000000e+000
    endloop
  endfacet
  facet normal  9.268170e-001  3.755133e-001  0.000000e+000
    outer loop
      vertex  1.533084e+001  1.715074e+001  4.216217e-001
      vertex  1.530132e+001  1.722361e+001 -6.000000e+000
      vertex  1.530132e+001  1.722361e+001  5.000000e-001
    endloop
  endfacet
  facet normal  7.918693e-001  3.934651e-001 -4.670420e-001
    outer loop
      vertex  2.313050e+001  1.565248e+000  5.000000e-001
      vertex  2.240144e+001  2.546191e+000  9.029493e-002
      vertex  1.533088e+001  1.684940e+001  1.520778e-001
    endloop
  endfacet
  facet normal  8.014116e-001  3.988196e-001 -4.457379e-001
    outer loop
      vertex  2.313050e+001  1.565248e+000  5.000000e-001
      vertex  1.533088e+001  1.684940e+001  1.520778e-001
      vertex  1.533084e+001  1.715074e+001  4.216217e-001
    endloop
  endfacet
  facet normal  8.916590e-001  4.458295e-001 -7.861430e-002
    outer loop
      vertex  2.313050e+001  1.565248e+000  5.000000e-001
      vertex  1.533084e+001  1.715074e+001  4.216217e-001
      vertex  1.530132e+001  1.722361e+001  5.000000e-001
    endloop
  endfacet
  facet normal  2.687672e-001  1.343836e-001 -9.537847e-001
    outer loop
      vertex  2.187706e+001  2.954092e+000  0.000000e+000
      vertex  1.507771e+001  1.655279e+001  0.000000e+000
      vertex  2.240144e+001  2.546191e+000  9.029493e-002
    endloop
  endfacet
  facet normal  2.005169e-001  9.856211e-002 -9.747197e-001
    outer loop
      vertex  2.240144e+001  2.546191e+000  9.029493e-002
      vertex  1.507771e+001  1.655279e+001  0.000000e+000
      vertex  1.524996e+001  1.669456e+001  4.977205e-002
    endloop
  endfacet
  facet normal  5.233436e-001  2.622085e-001 -8.107763e-001
    outer loop
      vertex  2.240144e+001  2.546191e+000  9.029493e-002
      vertex  1.524996e+001  1.669456e+001  4.977205e-002
      vertex  1.533088e+001  1.684940e+001  1.520778e-001
    endloop
  endfacet
  facet normal -9.997802e-001  0.000000e+000 -2.096597e-002
    outer loop
      vertex -3.328698e+000  1.081560e+000 -6.000000e+000
      vertex -3.328698e+000 -1.081560e+000 -6.000000e+000
      vertex -3.496463e+000 -1.573188e-001  2.000000e+000
    endloop
  endfacet
  facet normal -9.554583e-001 -2.947927e-001  1.402091e-002
    outer loop
      vertex -3.496463e+000 -1.573188e-001  2.000000e+000
      vertex -3.328698e+000 -1.081560e+000 -6.000000e+000
      vertex -2.977278e+000 -1.840059e+000  2.000000e+000
    endloop
  endfacet
  facet normal -8.088521e-001 -5.876656e-001 -2.018713e-002
    outer loop
      vertex -2.977278e+000 -1.840059e+000  2.000000e+000
      vertex -3.328698e+000 -1.081560e+000 -6.000000e+000
      vertex -2.057248e+000 -2.831559e+000 -6.000000e+000
    endloop
  endfacet
  facet normal -9.781013e-001  2.078023e-001  1.166887e-002
    outer loop
      vertex -3.496463e+000 -1.573188e-001  2.000000e+000
      vertex -3.130495e+000  1.565248e+000  2.000000e+000
      vertex -3.328698e+000  1.081560e+000 -6.000000e+000
    endloop
  endfacet
  facet normal -9.253252e-001  3.791744e-001  0.000000e+000
    outer loop
      vertex -3.328698e+000  1.081560e+000 -6.000000e+000
      vertex -3.130495e+000  1.565248e+000  2.000000e+000
      vertex -3.130495e+000  1.565248e+000  5.000000e-001
    endloop
  endfacet
  facet normal -8.088698e-001  5.876785e-001 -1.906657e-002
    outer loop
      vertex -3.328698e+000  1.081560e+000 -6.000000e+000
      vertex -3.130495e+000  1.565248e+000  5.000000e-001
      vertex -2.057248e+000  2.831559e+000 -6.000000e+000
    endloop
  endfacet
  facet normal -8.060286e-001  5.916079e-001 -1.783191e-002
    outer loop
      vertex -2.057248e+000  2.831559e+000 -6.000000e+000
      vertex -3.130495e+000  1.565248e+000  5.000000e-001
      vertex -2.401439e+000  2.546191e+000  9.029493e-002
    endloop
  endfacet
  facet normal -6.137357e-001  7.895082e-001  2.308321e-003
    outer loop
      vertex -2.057248e+000  2.831559e+000 -6.000000e+000
      vertex -2.401439e+000  2.546191e+000  9.029493e-002
      vertex -1.877056e+000  2.954092e+000  0.000000e+000
    endloop
  endfacet
  facet normal -3.090011e-001  9.510076e-001 -1.014166e-002
    outer loop
      vertex -2.057248e+000  2.831559e+000 -6.000000e+000
      vertex -1.877056e+000  2.954092e+000  0.000000e+000
      vertex -6.429183e-016  3.500000e+000 -6.000000e+000
    endloop
  endfacet
  facet normal -2.792612e-001  9.602152e-001  2.992369e-017
    outer loop
      vertex -6.429183e-016  3.500000e+000 -6.000000e+000
      vertex -1.877056e+000  2.954092e+000  0.000000e+000
      vertex  0.000000e+000  3.500000e+000  0.000000e+000
    endloop
  endfacet
  facet normal -3.090170e-001 -9.510565e-001  6.831665e-017
    outer loop
      vertex  0.000000e+000 -3.500000e+000 -6.000000e+000
      vertex  1.768618e-015 -3.500000e+000  2.000000e+000
      vertex -2.057248e+000 -2.831559e+000 -6.000000e+000
    endloop
  endfacet
  facet normal -2.515404e-001 -9.677117e-001 -1.617208e-002
    outer loop
      vertex -2.057248e+000 -2.831559e+000 -6.000000e+000
      vertex  1.768618e-015 -3.500000e+000  2.000000e+000
      vertex -1.704376e+000 -3.056976e+000  2.000000e+000
    endloop
  endfacet
  facet normal -6.909971e-001 -7.227867e-001  1.011321e-002
    outer loop
      vertex -2.057248e+000 -2.831559e+000 -6.000000e+000
      vertex -1.704376e+000 -3.056976e+000  2.000000e+000
      vertex -2.977278e+000 -1.840059e+000  2.000000e+000
    endloop
  endfacet
  facet normal -8.944272e-001  4.472136e-001  0.000000e+000
    outer loop
      vertex -3.130495e+000  1.565248e+000  5.000000e-001
      vertex -3.130495e+000  1.565248e+000  2.000000e+000
      vertex  4.698684e+000  1.722361e+001  5.000000e-001
    endloop
  endfacet
  facet normal -8.944272e-001  4.472136e-001 -2.226076e-007
    outer loop
      vertex  4.698684e+000  1.722361e+001  5.000000e-001
      vertex -3.130495e+000  1.565248e+000  2.000000e+000
      vertex  6.869505e+000  2.156525e+001  2.000000e+000
    endloop
  endfacet
  facet normal -8.944272e-001  4.472135e-001  0.000000e+000
    outer loop
      vertex  4.698684e+000  1.722361e+001  5.000000e-001
      vertex  6.869505e+000  2.156525e+001  2.000000e+000
      vertex  4.698684e+000  1.722361e+001 -6.000000e+000
    endloop
  endfacet
  facet normal -8.944272e-001  4.472135e-001  0.000000e+000
    outer loop
      vertex  4.698684e+000  1.722361e+001 -6.000000e+000
      vertex  6.869505e+000  2.156525e+001  2.000000e+000
      vertex  6.869505e+000  2.156525e+001 -6.000000e+000
    endloop
  endfacet
  facet normal  0.000000e+000  0.000000e+000  1.000000e+000
    outer loop
      vertex  1.768618e-015 -3.500000e+000  2.000000e+000
      vertex  2.000000e+001 -3.500000e+000  2.000000e+000
      vertex -1.704376e+000 -3.056976e+000  2.000000e+000
    endloop
  endfacet
  facet normal  0.000000e+000  0.000000e+000  1.000000e+000
    outer loop
      vertex -1.704376e+000 -3.056976e+000  2.000000e+000
      vertex  2.000000e+001 -3.500000e+000  2.000000e+000
      vertex  2.170438e+001 -3.056976e+000  2.000000e+000
    endloop
  endfacet
  facet normal  0.000000e+000  0.000000e+000  1.000000e+000
    outer loop
      vertex -1.704376e+000 -3.056976e+000  2.000000e+000
      vertex  2.170438e+001 -3.056976e+000  2.000000e+000
      vertex -2.977278e+000 -1.840059e+000  2.000000e+000
    endloop
  endfacet
  facet normal  0.000000e+000  0.000000e+000  1.000000e+000
    outer loop
      vertex -2.977278e+000 -1.840059e+000  2.000000e+000
      vertex  2.170438e+001 -3.056976e+000  2.000000e+000
      vertex  2.297728e+001 -1.840059e+000  2.000000e+000
    endloop
  endfacet
  facet normal  0.000000e+000  0.000000e+000  1.000000e+000
    outer loop
      vertex -2.977278e+000 -1.840059e+000  2.000000e+000
      vertex  2.297728e+001 -1.840059e+000  2.000000e+000
      vertex -3.496463e+000 -1.573188e-001  2.000000e+000
    endloop
  endfacet
  facet normal  0.000000e+000  0.000000e+000  1.000000e+000
    outer loop
      vertex -3.496463e+000 -1.573188e-001  2.000000e+000
      vertex  2.297728e+001 -1.840059e+000  2.000000e+000
      vertex  2.349646e+001 -1.573188e-001  2.000000e+000
    endloop
  endfacet
  facet normal  0.000000e+000  0.000000e+000  1.000000e+000
    outer loop
      vertex -3.496463e+000 -1.573188e-001  2.000000e+000
      vertex  2.349646e+001 -1.573188e-001  2.000000e+000
      vertex -3.130495e+000  1.565248e+000  2.000000e+000
    endloop
  endfacet
  facet normal  0.000000e+000  0.000000e+000  1.000000e+000
    outer loop
      vertex -3.130495e+000  1.565248e+000  2.000000e+000
      vertex  2.349646e+001 -1.573188e-001  2.000000e+000
      vertex  2.313050e+001  1.565248e+000  2.000000e+000
    endloop
  endfacet
  facet normal  0.000000e+000  0.000000e+000  1.000000e+000
    outer loop
      vertex -3.130495e+000  1.565248e+000  2.000000e+000
      vertex  2.313050e+001  1.565248e+000  2.000000e+000
      vertex  6.869505e+000  2.156525e+001  2.000000e+000
    endloop
  endfacet
  facet normal  0.000000e+000  0.000000e+000  1.000000e+000
    outer loop
      vertex  6.869505e+000  2.156525e+001  2.000000e+000
      vertex  2.313050e+001  1.565248e+000  2.000000e+000
      vertex  1.313050e+001  2.156525e+001  2.000000e+000
    endloop
  endfacet
  facet normal  0.000000e+000  0.000000e+000  1.000000e+000
    outer loop
      vertex  6.869505e+000  2.156525e+001  2.000000e+000
      vertex  1.313050e+001  2.156525e+001  2.000000e+000
      vertex  8.159941e+000  2.297728e+001  2.000000e+000
    endloop
  endfacet
  facet normal  0.000000e+000  0.000000e+000  1.000000e+000
    outer loop
      vertex  8.159941e+000  2.297728e+001  2.000000e+000
      vertex  1.313050e+001  2.156525e+001  2.000000e+000
      vertex  1.184006e+001  2.297728e+001  2.000000e+000
    endloop
  endfacet
  facet normal  0.000000e+000  0.000000e+000  1.000000e+000
    outer loop
      vertex  8.159941e+000  2.297728e+001  2.000000e+000
      vertex  1.184006e+001  2.297728e+001  2.000000e+000
      vertex  1.000000e+001  2.350000e+001  2.000000e+000
    endloop
  endfacet
  facet normal  7.381752e-001  6.746091e-001  0.000000e+000
    outer loop
      vertex  1.313050e+001  2.156525e+001  2.000000e+000
      vertex  1.313050e+001  2.156525e+001 -6.000000e+000
      vertex  1.184006e+001  2.297728e+001  2.000000e+000
    endloop
  endfacet
  facet normal  7.381752e-001  6.746091e-001  0.000000e+000
    outer loop
      vertex  1.184006e+001  2.297728e+001  2.000000e+000
      vertex  1.313050e+001  2.156525e+001 -6.000000e+000
      vertex  1.184006e+001  2.297728e+001 -6.000000e+000
    endloop
  endfacet
  facet normal  2.732665e-001  9.619384e-001  0.000000e+000
    outer loop
      vertex  1.184006e+001  2.297728e+001  2.000000e+000
      vertex  1.184006e+001  2.297728e+001 -6.000000e+000
      vertex  1.000000e+001  2.350000e+001  2.000000e+000
    endloop
  endfacet
  facet normal  2.732665e-001  9.619384e-001  0.000000e+000
    outer loop
      vertex  1.000000e+001  2.350000e+001  2.000000e+000
      vertex  1.184006e+001  2.297728e+001 -6.000000e+000
      vertex  1.000000e+001  2.350000e+001 -6.000000e+000
    endloop
  endfacet
  facet normal -2.732665e-001  9.619384e-001  0.000000e+000
    outer loop
      vertex  1.000000e+001  2.350000e+001  2.000000e+000
      vertex  1.000000e+001  2.350000e+001 -6.000000e+000
      vertex  8.159941e+000  2.297728e+001  2.000000e+000
    endloop
  endfacet
  facet normal -2.732665e-001  9.619384e-001  0.000000e+000
    outer loop
      vertex  8.159941e+000  2.297728e+001  2.000000e+000
      vertex  1.000000e+001  2.350000e+001 -6.000000e+000
      vertex  8.159941e+000  2.297728e+001 -6.000000e+000
    endloop
  endfacet
  facet normal -7.381752e-001  6.746091e-001  0.000000e+000
    outer loop
      vertex  8.159941e+000  2.297728e+001  2.000000e+000
      vertex  8.159941e+000  2.297728e+001 -6.000000e+000
      vertex  6.869505e+000  2.156525e+001  2.000000e+000
    endloop
  endfacet
  facet normal -7.381752e-001  6.746091e-001  0.000000e+000
    outer loop
      vertex  6.869505e+000  2.156525e+001  2.000000e+000
      vertex  8.159941e+000  2.297728e+001 -6.000000e+000
      vertex  6.869505e+000  2.156525e+001 -6.000000e+000
    endloop
  endfacet
  facet normal -9.268170e-001  3.755133e-001  0.000000e+000
    outer loop
      vertex  4.698684e+000  1.722361e+001  5.000000e-001
      vertex  4.698684e+000  1.722361e+001 -6.000000e+000
      vertex  4.669161e+000  1.715074e+001  4.216217e-001
    endloop
  endfacet
  facet normal -9.922459e-001  1.242501e-001 -3.151900e-003
    outer loop
      vertex  4.669161e+000  1.715074e+001  4.216217e-001
      vertex  4.698684e+000  1.722361e+001 -6.000000e+000
      vertex  4.657357e+000  1.689357e+001 -6.000000e+000
    endloop
  endfacet
  facet normal -9.999970e-001 -1.556019e-003  1.900565e-003
    outer loop
      vertex  4.669161e+000  1.715074e+001  4.216217e-001
      vertex  4.657357e+000  1.689357e+001 -6.000000e+000
      vertex  4.669118e+000  1.684940e+001  1.520778e-001
    endloop
  endfacet
  facet normal -8.867103e-001 -4.623227e-001 -1.624343e-003
    outer loop
      vertex  4.669118e+000  1.684940e+001  1.520778e-001
      vertex  4.657357e+000  1.689357e+001 -6.000000e+000
      vertex  4.750036e+000  1.669456e+001  4.977205e-002
    endloop
  endfacet
  facet normal -8.506432e-001 -5.257263e-001 -4.262547e-003
    outer loop
      vertex  4.750036e+000  1.669456e+001  4.977205e-002
      vertex  4.657357e+000  1.689357e+001 -6.000000e+000
      vertex  4.832222e+000  1.661063e+001 -6.000000e+000
    endloop
  endfacet
  facet normal -6.351262e-001 -7.724056e-001  2.087458e-003
    outer loop
      vertex  4.750036e+000  1.669456e+001  4.977205e-002
      vertex  4.832222e+000  1.661063e+001 -6.000000e+000
      vertex  4.922291e+000  1.655279e+001 -4.440892e-016
    endloop
  endfacet
  facet normal -3.326137e-001 -9.430631e-001  0.000000e+000
    outer loop
      vertex  5.145898e+000  1.650000e+001 -6.000000e+000
      vertex  5.145898e+000  1.650000e+001  0.000000e+000
      vertex  4.832222e+000  1.661063e+001 -6.000000e+000
    endloop
  endfacet
  facet normal -2.297469e-001 -9.732323e-001 -5.934088e-003
    outer loop
      vertex  4.832222e+000  1.661063e+001 -6.000000e+000
      vertex  5.145898e+000  1.650000e+001  0.000000e+000
      vertex  4.922291e+000  1.655279e+001 -4.440892e-016
    endloop
  endfacet
  facet normal -8.019382e-001  3.983482e-001 -4.452122e-001
    outer loop
      vertex  4.669118e+000  1.684940e+001  1.520778e-001
      vertex -2.401439e+000  2.546191e+000  9.029493e-002
      vertex  4.669161e+000  1.715074e+001  4.216217e-001
    endloop
  endfacet
  facet normal -7.921426e-001  3.940787e-001 -4.660601e-001
    outer loop
      vertex  4.669161e+000  1.715074e+001  4.216217e-001
      vertex -2.401439e+000  2.546191e+000  9.029493e-002
      vertex -3.130495e+000  1.565248e+000  5.000000e-001
    endloop
  endfacet
  facet normal -8.916590e-001  4.458295e-001 -7.861428e-002
    outer loop
      vertex  4.669161e+000  1.715074e+001  4.216217e-001
      vertex -3.130495e+000  1.565248e+000  5.000000e-001
      vertex  4.698684e+000  1.722361e+001  5.000000e-001
    endloop
  endfacet
  facet normal -1.995435e-001  9.977174e-002 -9.747964e-001
    outer loop
      vertex  4.922291e+000  1.655279e+001 -4.440892e-016
      vertex -1.877056e+000  2.954092e+000  0.000000e+000
      vertex  4.750036e+000  1.669456e+001  4.977205e-002
    endloop
  endfacet
  facet normal -2.673378e-001  1.323956e-001 -9.544642e-001
    outer loop
      vertex  4.750036e+000  1.669456e+001  4.977205e-002
      vertex -1.877056e+000  2.954092e+000  0.000000e+000
      vertex -2.401439e+000  2.546191e+000  9.029493e-002
    endloop
  endfacet
  facet normal -5.233425e-001  2.622080e-001 -8.107771e-001
    outer loop
      vertex  4.750036e+000  1.669456e+001  4.977205e-002
      vertex -2.401439e+000  2.546191e+000  9.029493e-002
      vertex  4.669118e+000  1.684940e+001  1.520778e-001
    endloop
  endfacet
  facet normal  9.942488e-001  1.070951e-001  0.000000e+000
    outer loop
      vertex  8.840566e+000  1.912625e+001 -1.000000e+000
      vertex  8.840566e+000  1.912625e+001 -6.000000e+000
      vertex  8.739787e+000  2.006185e+001 -1.000000e+000
    endloop
  endfacet
  facet normal  9.942488e-001  1.070951e-001  0.000000e+000
    outer loop
      vertex  8.739787e+000  2.006185e+001 -1.000000e+000
      vertex  8.840566e+000  1.912625e+001 -6.000000e+000
      vertex  8.739787e+000  2.006185e+001 -6.000000e+000
    endloop
  endfacet
  facet normal  7.787671e-001 -6.273131e-001  0.000000e+000
    outer loop
      vertex  8.739787e+000  2.006185e+001 -1.000000e+000
      vertex  8.739787e+000  2.006185e+001 -6.000000e+000
      vertex  9.330100e+000  2.079469e+001 -1.000000e+000
    endloop
  endfacet
  facet normal  7.787671e-001 -6.273131e-001  0.000000e+000
    outer loop
      vertex  9.330100e+000  2.079469e+001 -1.000000e+000
      vertex  8.739787e+000  2.006185e+001 -6.000000e+000
      vertex  9.330100e+000  2.079469e+001 -6.000000e+000
    endloop
  endfacet
  facet normal  1.070952e-001 -9.942487e-001  0.000000e+000
    outer loop
      vertex  9.330100e+000  2.079469e+001 -1.000000e+000
      vertex  9.330100e+000  2.079469e+001 -6.000000e+000
      vertex  1.026571e+001  2.089547e+001 -1.000000e+000
    endloop
  endfacet
  facet normal  1.070952e-001 -9.942487e-001  0.000000e+000
    outer loop
      vertex  1.026571e+001  2.089547e+001 -1.000000e+000
      vertex  9.330100e+000  2.079469e+001 -6.000000e+000
      vertex  1.026571e+001  2.089547e+001 -6.000000e+000
    endloop
  endfacet
  facet normal -6.273114e-001 -7.787685e-001  0.000000e+000
    outer loop
      vertex  1.026571e+001  2.089547e+001 -1.000000e+000
      vertex  1.026571e+001  2.089547e+001 -6.000000e+000
      vertex  1.099854e+001  2.030515e+001 -1.000000e+000
    endloop
  endfacet
  facet normal -6.273114e-001 -7.787685e-001  0.000000e+000
    outer loop
      vertex  1.099854e+001  2.030515e+001 -1.000000e+000
      vertex  1.026571e+001  2.089547e+001 -6.000000e+000
      vertex  1.099854e+001  2.030515e+001 -6.000000e+000
    endloop
  endfacet
  facet normal -9.942488e-001 -1.070951e-001  0.000000e+000
    outer loop
      vertex  1.099854e+001  2.030515e+001 -1.000000e+000
      vertex  1.099854e+001  2.030515e+001 -6.000000e+000
      vertex  1.109932e+001  1.936955e+001 -1.000000e+000
    endloop
  endfacet
  facet normal -9.942488e-001 -1.070951e-001  0.000000e+000
    outer loop
      vertex  1.109932e+001  1.936955e+001 -1.000000e+000
      vertex  1.099854e+001  2.030515e+001 -6.000000e+000
      vertex  1.109932e+001  1.936955e+001 -6.000000e+000
    endloop
  endfacet
  facet normal -7.787671e-001  6.273131e-001  0.000000e+000
    outer loop
      vertex  1.109932e+001  1.936955e+001 -1.000000e+000
      vertex  1.109932e+001  1.936955e+001 -6.000000e+000
      vertex  1.050901e+001  1.863671e+001 -1.000000e+000
    endloop
  endfacet
  facet normal -7.787671e-001  6.273131e-001  0.000000e+000
    outer loop
      vertex  1.050901e+001  1.863671e+001 -1.000000e+000
      vertex  1.109932e+001  1.936955e+001 -6.000000e+000
      vertex  1.050901e+001  1.863671e+001 -6.000000e+000
    endloop
  endfacet
  facet normal -1.070952e-001  9.942487e-001  0.000000e+000
    outer loop
      vertex  1.050901e+001  1.863671e+001 -1.000000e+000
      vertex  1.050901e+001  1.863671e+001 -6.000000e+000
      vertex  9.573400e+000  1.853593e+001 -1.000000e+000
    endloop
  endfacet
  facet normal -1.070952e-001  9.942487e-001  0.000000e+000
    outer loop
      vertex  9.573400e+000  1.853593e+001 -1.000000e+000
      vertex  1.050901e+001  1.863671e+001 -6.000000e+000
      vertex  9.573400e+000  1.853593e+001 -6.000000e+000
    endloop
  endfacet
  facet normal  6.273114e-001  7.787685e-001  0.000000e+000
    outer loop
      vertex  9.573400e+000  1.853593e+001 -1.000000e+000
      vertex  9.573400e+000  1.853593e+001 -6.000000e+000
      vertex  8.840566e+000  1.912625e+001 -1.000000e+000
    endloop
  endfacet
  facet normal  6.273114e-001  7.787685e-001  0.000000e+000
    outer loop
      vertex  8.840566e+000  1.912625e+001 -1.000000e+000
      vertex  9.573400e+000  1.853593e+001 -6.000000e+000
      vertex  8.840566e+000  1.912625e+001 -6.000000e+000
    endloop
  endfacet
  facet normal  0.000000e+000  0.000000e+000 -1.000000e+000
    outer loop
      vertex  1.099854e+001  2.030515e+001 -1.000000e+000
      vertex  1.109932e+001  1.936955e+001 -1.000000e+000
      vertex  1.026571e+001  2.089547e+001 -1.000000e+000
    endloop
  endfacet
  facet normal  0.000000e+000  0.000000e+000 -1.000000e+000
    outer loop
      vertex  1.026571e+001  2.089547e+001 -1.000000e+000
      vertex  1.109932e+001  1.936955e+001 -1.000000e+000
      vertex  1.050901e+001  1.863671e+001 -1.000000e+000
    endloop
  endfacet
  facet normal  0.000000e+000  0.000000e+000 -1.000000e+000
    outer loop
      vertex  1.026571e+001  2.089547e+001 -1.000000e+000
      vertex  1.050901e+001  1.863671e+001 -1.000000e+000
      vertex  9.330100e+000  2.079469e+001 -1.000000e+000
    endloop
  endfacet
  facet normal  0.000000e+000  0.000000e+000 -1.000000e+000
    outer loop
      vertex  9.330100e+000  2.079469e+001 -1.000000e+000
      vertex  1.050901e+001  1.863671e+001 -1.000000e+000
      vertex  9.573400e+000  1.853593e+001 -1.000000e+000
    endloop
  endfacet
  facet normal  0.000000e+000  0.000000e+000 -1.000000e+000
    outer loop
      vertex  9.330100e+000  2.079469e+001 -1.000000e+000
      vertex  9.573400e+000  1.853593e+001 -1.000000e+000
      vertex  8.739787e+000  2.006185e+001 -1.000000e+000
    endloop
  endfacet
  facet normal  0.000000e+000  0.000000e+000 -1.000000e+000
    outer loop
      vertex  8.739787e+000  2.006185e+001 -1.000000e+000
      vertex  9.573400e+000  1.853593e+001 -1.000000e+000
      vertex  8.840566e+000  1.912625e+001 -1.000000e+000
    endloop
  endfacet
  facet normal  0.000000e+000  0.000000e+000 -1.000000e+000
    outer loop
      vertex  2.107899e+001  5.894537e-001 -6.000000e+000
      vertex  2.034615e+001  1.179766e+000 -6.000000e+000
      vertex  2.332870e+001  1.081560e+000 -6.000000e+000
    endloop
  endfacet
  facet normal  0.000000e+000  0.000000e+000 -1.000000e+000
    outer loop
      vertex  2.000000e+001 -3.500000e+000 -6.000000e+000
      vertex  1.965385e+001 -1.179766e+000 -6.000000e+000
      vertex  2.058945e+001 -1.078988e+000 -6.000000e+000
    endloop
  endfacet
  facet normal  0.000000e+000  0.000000e+000 -1.000000e+000
    outer loop
      vertex  0.000000e+000 -3.500000e+000 -6.000000e+000
      vertex -2.057248e+000 -2.831559e+000 -6.000000e+000
      vertex -3.328698e+000 -1.081560e+000 -6.000000e+000
    endloop
  endfacet
  facet normal  0.000000e+000  0.000000e+000 -1.000000e+000
    outer loop
      vertex  0.000000e+000 -3.500000e+000 -6.000000e+000
      vertex -3.328698e+000 -1.081560e+000 -6.000000e+000
      vertex -3.461528e-001 -1.179766e+000 -6.000000e+000
    endloop
  endfacet
  facet normal  0.000000e+000  0.000000e+000 -1.000000e+000
    outer loop
      vertex  0.000000e+000 -3.500000e+000 -6.000000e+000
      vertex -3.461528e-001 -1.179766e+000 -6.000000e+000
      vertex  5.894537e-001 -1.078988e+000 -6.000000e+000
    endloop
  endfacet
  facet normal  0.000000e+000  0.000000e+000 -1.000000e+000
    outer loop
      vertex  0.000000e+000 -3.500000e+000 -6.000000e+000
      vertex  5.894537e-001 -1.078988e+000 -6.000000e+000
      vertex  1.892101e+001 -5.894537e-001 -6.000000e+000
    endloop
  endfacet
  facet normal  0.000000e+000  0.000000e+000 -1.000000e+000
    outer loop
      vertex  0.000000e+000 -3.500000e+000 -6.000000e+000
      vertex  1.892101e+001 -5.894537e-001 -6.000000e+000
      vertex  1.965385e+001 -1.179766e+000 -6.000000e+000
    endloop
  endfacet
  facet normal  0.000000e+000  0.000000e+000 -1.000000e+000
    outer loop
      vertex  0.000000e+000 -3.500000e+000 -6.000000e+000
      vertex  1.965385e+001 -1.179766e+000 -6.000000e+000
      vertex  2.000000e+001 -3.500000e+000 -6.000000e+000
    endloop
  endfacet
  facet normal  0.000000e+000  0.000000e+000 -1.000000e+000
    outer loop
      vertex  2.205725e+001  2.831559e+000 -6.000000e+000
      vertex  2.332870e+001  1.081560e+000 -6.000000e+000
      vertex  2.000000e+001  3.500000e+000 -6.000000e+000
    endloop
  endfacet
  facet normal  0.000000e+000  0.000000e+000 -1.000000e+000
    outer loop
      vertex  2.000000e+001  3.500000e+000 -6.000000e+000
      vertex  2.332870e+001  1.081560e+000 -6.000000e+000
      vertex  2.034615e+001  1.179766e+000 -6.000000e+000
    endloop
  endfacet
  facet normal  0.000000e+000  0.000000e+000 -1.000000e+000
    outer loop
      vertex  2.000000e+001  3.500000e+000 -6.000000e+000
      vertex  2.034615e+001  1.179766e+000 -6.000000e+000
      vertex  3.461528e-001  1.179766e+000 -6.000000e+000
    endloop
  endfacet
  facet normal  0.000000e+000  0.000000e+000 -1.000000e+000
    outer loop
      vertex  3.461528e-001  1.179766e+000 -6.000000e+000
      vertex  2.034615e+001  1.179766e+000 -6.000000e+000
      vertex  1.941055e+001  1.078988e+000 -6.000000e+000
    endloop
  endfacet
  facet normal  0.000000e+000  0.000000e+000 -1.000000e+000
    outer loop
      vertex  3.461528e-001  1.179766e+000 -6.000000e+000
      vertex  1.941055e+001  1.078988e+000 -6.000000e+000
      vertex  1.078988e+000  5.894537e-001 -6.000000e+000
    endloop
  endfacet
  facet normal  0.000000e+000  0.000000e+000 -1.000000e+000
    outer loop
      vertex  1.078988e+000  5.894537e-001 -6.000000e+000
      vertex  1.941055e+001  1.078988e+000 -6.000000e+000
      vertex  1.882023e+001  3.461528e-001 -6.000000e+000
    endloop
  endfacet
  facet normal  0.000000e+000  0.000000e+000 -1.000000e+000
    outer loop
      vertex  1.078988e+000  5.894537e-001 -6.000000e+000
      vertex  1.882023e+001  3.461528e-001 -6.000000e+000
      vertex  1.179766e+000 -3.461528e-001 -6.000000e+000
    endloop
  endfacet
  facet normal  0.000000e+000  0.000000e+000 -1.000000e+000
    outer loop
      vertex  1.179766e+000 -3.461528e-001 -6.000000e+000
      vertex  1.882023e+001  3.461528e-001 -6.000000e+000
      vertex  1.892101e+001 -5.894537e-001 -6.000000e+000
    endloop
  endfacet
  facet normal  0.000000e+000  0.000000e+000 -1.000000e+000
    outer loop
      vertex  1.179766e+000 -3.461528e-001 -6.000000e+000
      vertex  1.892101e+001 -5.894537e-001 -6.000000e+000
      vertex  5.894537e-001 -1.078988e+000 -6.000000e+000
    endloop
  endfacet
  facet normal  0.000000e+000  0.000000e+000 -1.000000e+000
    outer loop
      vertex  2.205725e+001 -2.831559e+000 -6.000000e+000
      vertex  2.000000e+001 -3.500000e+000 -6.000000e+000
      vertex  2.332870e+001 -1.081560e+000 -6.000000e+000
    endloop
  endfacet
  facet normal  0.000000e+000  0.000000e+000 -1.000000e+000
    outer loop
      vertex  2.332870e+001 -1.081560e+000 -6.000000e+000
      vertex  2.000000e+001 -3.500000e+000 -6.000000e+000
      vertex  2.058945e+001 -1.078988e+000 -6.000000e+000
    endloop
  endfacet
  facet normal  0.000000e+000  0.000000e+000 -1.000000e+000
    outer loop
      vertex  2.332870e+001 -1.081560e+000 -6.000000e+000
      vertex  2.058945e+001 -1.078988e+000 -6.000000e+000
      vertex  2.332870e+001  1.081560e+000 -6.000000e+000
    endloop
  endfacet
  facet normal  0.000000e+000  0.000000e+000 -1.000000e+000
    outer loop
      vertex  2.332870e+001  1.081560e+000 -6.000000e+000
      vertex  2.058945e+001 -1.078988e+000 -6.000000e+000
      vertex  2.117977e+001 -3.461528e-001 -6.000000e+000
    endloop
  endfacet
  facet normal  0.000000e+000  0.000000e+000 -1.000000e+000
    outer loop
      vertex  2.332870e+001  1.081560e+000 -6.000000e+000
      vertex  2.117977e+001 -3.461528e-001 -6.000000e+000
      vertex  2.107899e+001  5.894537e-001 -6.000000e+000
    endloop
  endfacet
  facet normal  0.000000e+000  0.000000e+000 -1.000000e+000
    outer loop
      vertex -1.179766e+000  3.461528e-001 -6.000000e+000
      vertex -3.328698e+000  1.081560e+000 -6.000000e+000
      vertex -5.894537e-001  1.078988e+000 -6.000000e+000
    endloop
  endfacet
  facet normal  0.000000e+000  0.000000e+000 -1.000000e+000
    outer loop
      vertex -5.894537e-001  1.078988e+000 -6.000000e+000
      vertex -3.328698e+000  1.081560e+000 -6.000000e+000
      vertex -2.057248e+000  2.831559e+000 -6.000000e+000
    endloop
  endfacet
  facet normal  0.000000e+000  0.000000e+000 -1.000000e+000
    outer loop
      vertex -5.894537e-001  1.078988e+000 -6.000000e+000
      vertex -2.057248e+000  2.831559e+000 -6.000000e+000
      vertex  3.461528e-001  1.179766e+000 -6.000000e+000
    endloop
  endfacet
  facet normal  0.000000e+000  0.000000e+000 -1.000000e+000
    outer loop
      vertex  3.461528e-001  1.179766e+000 -6.000000e+000
      vertex -2.057248e+000  2.831559e+000 -6.000000e+000
      vertex -6.429183e-016  3.500000e+000 -6.000000e+000
    endloop
  endfacet
  facet normal  0.000000e+000  0.000000e+000 -1.000000e+000
    outer loop
      vertex  3.461528e-001  1.179766e+000 -6.000000e+000
      vertex -6.429183e-016  3.500000e+000 -6.000000e+000
      vertex  2.000000e+001  3.500000e+000 -6.000000e+000
    endloop
  endfacet
  facet normal  0.000000e+000  0.000000e+000 -1.000000e+000
    outer loop
      vertex -3.461528e-001 -1.179766e+000 -6.000000e+000
      vertex -3.328698e+000 -1.081560e+000 -6.000000e+000
      vertex -1.078988e+000 -5.894537e-001 -6.000000e+000
    endloop
  endfacet
  facet normal  0.000000e+000  0.000000e+000 -1.000000e+000
    outer loop
      vertex -1.078988e+000 -5.894537e-001 -6.000000e+000
      vertex -3.328698e+000 -1.081560e+000 -6.000000e+000
      vertex -3.328698e+000  1.081560e+000 -6.000000e+000
    endloop
  endfacet
  facet normal  0.000000e+000  0.000000e+000 -1.000000e+000
    outer loop
      vertex -1.078988e+000 -5.894537e-001 -6.000000e+000
      vertex -3.328698e+000  1.081560e+000 -6.000000e+000
      vertex -1.179766e+000  3.461528e-001 -6.000000e+000
    endloop
  endfacet
  facet normal  9.942487e-001  1.070952e-001  0.000000e+000
    outer loop
      vertex -1.078988e+000 -5.894537e-001 -1.000000e+000
      vertex -1.078988e+000 -5.894537e-001 -6.000000e+000
      vertex -1.179766e+000  3.461528e-001 -1.000000e+000
    endloop
  endfacet
  facet normal  9.942487e-001  1.070952e-001  0.000000e+000
    outer loop
      vertex -1.179766e+000  3.461528e-001 -1.000000e+000
      vertex -1.078988e+000 -5.894537e-001 -6.000000e+000
      vertex -1.179766e+000  3.461528e-001 -6.000000e+000
    endloop
  endfacet
  facet normal  7.787677e-001 -6.273124e-001  0.000000e+000
    outer loop
      vertex -1.179766e+000  3.461528e-001 -1.000000e+000
      vertex -1.179766e+000  3.461528e-001 -6.000000e+000
      vertex -5.894537e-001  1.078988e+000 -1.000000e+000
    endloop
  endfacet
  facet normal  7.787677e-001 -6.273124e-001  0.000000e+000
    outer loop
      vertex -5.894537e-001  1.078988e+000 -1.000000e+000
      vertex -1.179766e+000  3.461528e-001 -6.000000e+000
      vertex -5.894537e-001  1.078988e+000 -6.000000e+000
    endloop
  endfacet
  facet normal  1.070952e-001 -9.942487e-001  0.000000e+000
    outer loop
      vertex -5.894537e-001  1.078988e+000 -1.000000e+000
      vertex -5.894537e-001  1.078988e+000 -6.000000e+000
      vertex  3.461528e-001  1.179766e+000 -1.000000e+000
    endloop
  endfacet
  facet normal  1.070952e-001 -9.942487e-001  0.000000e+000
    outer loop
      vertex  3.461528e-001  1.179766e+000 -1.000000e+000
      vertex -5.894537e-001  1.078988e+000 -6.000000e+000
      vertex  3.461528e-001  1.179766e+000 -6.000000e+000
    endloop
  endfacet
  facet normal -6.273124e-001 -7.787677e-001  0.000000e+000
    outer loop
      vertex  3.461528e-001  1.179766e+000 -1.000000e+000
      vertex  3.461528e-001  1.179766e+000 -6.000000e+000
      vertex  1.078988e+000  5.894537e-001 -1.000000e+000
    endloop
  endfacet
  facet normal -6.273124e-001 -7.787677e-001  0.000000e+000
    outer loop
      vertex  1.078988e+000  5.894537e-001 -1.000000e+000
      vertex  3.461528e-001  1.179766e+000 -6.000000e+000
      vertex  1.078988e+000  5.894537e-001 -6.000000e+000
    endloop
  endfacet
  facet normal -9.942487e-001 -1.070952e-001  0.000000e+000
    outer loop
      vertex  1.078988e+000  5.894537e-001 -1.000000e+000
      vertex  1.078988e+000  5.894537e-001 -6.000000e+000
      vertex  1.179766e+000 -3.461528e-001 -1.000000e+000
    endloop
  endfacet
  facet normal -9.942487e-001 -1.070952e-001  0.000000e+000
    outer loop
      vertex  1.179766e+000 -3.461528e-001 -1.000000e+000
      vertex  1.078988e+000  5.894537e-001 -6.000000e+000
      vertex  1.179766e+000 -3.461528e-001 -6.000000e+000
    endloop
  endfacet
  facet normal -7.787677e-001  6.273124e-001  0.000000e+000
    outer loop
      vertex  1.179766e+000 -3.461528e-001 -1.000000e+000
      vertex  1.179766e+000 -3.461528e-001 -6.000000e+000
      vertex  5.894537e-001 -1.078988e+000 -1.000000e+000
    endloop
  endfacet
  facet normal -7.787677e-001  6.273124e-001  0.000000e+000
    outer loop
      vertex  5.894537e-001 -1.078988e+000 -1.000000e+000
      vertex  1.179766e+000 -3.461528e-001 -6.000000e+000
      vertex  5.894537e-001 -1.078988e+000 -6.000000e+000
    endloop
  endfacet
  facet normal -1.070952e-001  9.942487e-001  0.000000e+000
    outer loop
      vertex  5.894537e-001 -1.078988e+000 -1.000000e+000
      vertex  5.894537e-001 -1.078988e+000 -6.000000e+000
      vertex -3.461528e-001 -1.179766e+000 -1.000000e+000
    endloop
  endfacet
  facet normal -1.070952e-001  9.942487e-001  0.000000e+000
    outer loop
      vertex -3.461528e-001 -1.179766e+000 -1.000000e+000
      vertex  5.894537e-001 -1.078988e+000 -6.000000e+000
      vertex -3.461528e-001 -1.179766e+000 -6.000000e+000
    endloop
  endfacet
  facet normal  6.273124e-001  7.787677e-001  0.000000e+000
    outer loop
      vertex -3.461528e-001 -1.179766e+000 -1.000000e+000
      vertex -3.461528e-001 -1.179766e+000 -6.000000e+000
      vertex -1.078988e+000 -5.894537e-001 -1.000000e+000
    endloop
  endfacet
  facet normal  6.273124e-001  7.787677e-001  0.000000e+000
    outer loop
      vertex -1.078988e+000 -5.894537e-001 -1.000000e+000
      vertex -3.461528e-001 -1.179766e+000 -6.000000e+000
      vertex -1.078988e+000 -5.894537e-001 -6.000000e+000
    endloop
  endfacet
  facet normal  0.000000e+000  0.000000e+000 -1.000000e+000
    outer loop
      vertex  1.078988e+000  5.894537e-001 -1.000000e+000
      vertex  1.179766e+000 -3.461528e-001 -1.000000e+000
      vertex  3.461528e-001  1.179766e+000 -1.000000e+000
    endloop
  endfacet
  facet normal  0.000000e+000  0.000000e+000 -1.000000e+000
    outer loop
      vertex  3.461528e-001  1.179766e+000 -1.000000e+000
      vertex  1.179766e+000 -3.461528e-001 -1.000000e+000
      vertex  5.894537e-001 -1.078988e+000 -1.000000e+000
    endloop
  endfacet
  facet normal  0.000000e+000  0.000000e+000 -1.000000e+000
    outer loop
      vertex  3.461528e-001  1.179766e+000 -1.000000e+000
      vertex  5.894537e-001 -1.078988e+000 -1.000000e+000
      vertex -5.894537e-001  1.078988e+000 -1.000000e+000
    endloop
  endfacet
  facet normal  0.000000e+000  0.000000e+000 -1.000000e+000
    outer loop
      vertex -5.894537e-001  1.078988e+000 -1.000000e+000
      vertex  5.894537e-001 -1.078988e+000 -1.000000e+000
      vertex -3.461528e-001 -1.179766e+000 -1.000000e+000
    endloop
  endfacet
  facet normal  0.000000e+000  0.000000e+000 -1.000000e+000
    outer loop
      vertex -5.894537e-001  1.078988e+000 -1.000000e+000
      vertex -3.461528e-001 -1.179766e+000 -1.000000e+000
      vertex -1.179766e+000  3.461528e-001 -1.000000e+000
    endloop
  endfacet
  facet normal  0.000000e+000  0.000000e+000 -1.000000e+000
    outer loop
      vertex -1.179766e+000  3.461528e-001 -1.000000e+000
      vertex -3.461528e-001 -1.179766e+000 -1.000000e+000
      vertex -1.078988e+000 -5.894537e-001 -1.000000e+000
    endloop
  endfacet
  facet normal  9.942487e-001  1.070952e-001  0.000000e+000
    outer loop
      vertex  1.892101e+001 -5.894537e-001 -1.000000e+000
      vertex  1.892101e+001 -5.894537e-001 -6.000000e+000
      vertex  1.882023e+001  3.461528e-001 -1.000000e+000
    endloop
  endfacet
  facet normal  9.942487e-001  1.070952e-001  0.000000e+000
    outer loop
      vertex  1.882023e+001  3.461528e-001 -1.000000e+000
      vertex  1.892101e+001 -5.894537e-001 -6.000000e+000
      vertex  1.882023e+001  3.461528e-001 -6.000000e+000
    endloop
  endfacet
  facet normal  7.787685e-001 -6.273114e-001  0.000000e+000
    outer loop
      vertex  1.882023e+001  3.461528e-001 -1.000000e+000
      vertex  1.882023e+001  3.461528e-001 -6.000000e+000
      vertex  1.941055e+001  1.078988e+000 -1.000000e+000
    endloop
  endfacet
  facet normal  7.787685e-001 -6.273114e-001  0.000000e+000
    outer loop
      vertex  1.941055e+001  1.078988e+000 -1.000000e+000
      vertex  1.882023e+001  3.461528e-001 -6.000000e+000
      vertex  1.941055e+001  1.078988e+000 -6.000000e+000
    endloop
  endfacet
  facet normal  1.070951e-001 -9.942488e-001  0.000000e+000
    outer loop
      vertex  1.941055e+001  1.078988e+000 -1.000000e+000
      vertex  1.941055e+001  1.078988e+000 -6.000000e+000
      vertex  2.034615e+001  1.179766e+000 -1.000000e+000
    endloop
  endfacet
  facet normal  1.070951e-001 -9.942488e-001  0.000000e+000
    outer loop
      vertex  2.034615e+001  1.179766e+000 -1.000000e+000
      vertex  1.941055e+001  1.078988e+000 -6.000000e+000
      vertex  2.034615e+001  1.179766e+000 -6.000000e+000
    endloop
  endfacet
  facet normal -6.273129e-001 -7.787673e-001  0.000000e+000
    outer loop
      vertex  2.034615e+001  1.179766e+000 -1.000000e+000
      vertex  2.034615e+001  1.179766e+000 -6.000000e+000
      vertex  2.107899e+001  5.894537e-001 -1.000000e+000
    endloop
  endfacet
  facet normal -6.273129e-001 -7.787673e-001  0.000000e+000
    outer loop
      vertex  2.107899e+001  5.894537e-001 -1.000000e+000
      vertex  2.034615e+001  1.179766e+000 -6.000000e+000
      vertex  2.107899e+001  5.894537e-001 -6.000000e+000
    endloop
  endfacet
  facet normal -9.942487e-001 -1.070952e-001  0.000000e+000
    outer loop
      vertex  2.107899e+001  5.894537e-001 -1.000000e+000
      vertex  2.107899e+001  5.894537e-001 -6.000000e+000
      vertex  2.117977e+001 -3.461528e-001 -1.000000e+000
    endloop
  endfacet
  facet normal -9.942487e-001 -1.070952e-001  0.000000e+000
    outer loop
      vertex  2.117977e+001 -3.461528e-001 -1.000000e+000
      vertex  2.107899e+001  5.894537e-001 -6.000000e+000
      vertex  2.117977e+001 -3.461528e-001 -6.000000e+000
    endloop
  endfacet
  facet normal -7.787685e-001  6.273114e-001  0.000000e+000
    outer loop
      vertex  2.117977e+001 -3.461528e-001 -1.000000e+000
      vertex  2.117977e+001 -3.461528e-001 -6.000000e+000
      vertex  2.058945e+001 -1.078988e+000 -1.000000e+000
    endloop
  endfacet
  facet normal -7.787685e-001  6.273114e-001  0.000000e+000
    outer loop
      vertex  2.058945e+001 -1.078988e+000 -1.000000e+000
      vertex  2.117977e+001 -3.461528e-001 -6.000000e+000
      vertex  2.058945e+001 -1.078988e+000 -6.000000e+000
    endloop
  endfacet
  facet normal -1.070951e-001  9.942488e-001  0.000000e+000
    outer loop
      vertex  2.058945e+001 -1.078988e+000 -1.000000e+000
      vertex  2.058945e+001 -1.078988e+000 -6.000000e+000
      vertex  1.965385e+001 -1.179766e+000 -1.000000e+000
    endloop
  endfacet
  facet normal -1.070951e-001  9.942488e-001  0.000000e+000
    outer loop
      vertex  1.965385e+001 -1.179766e+000 -1.000000e+000
      vertex  2.058945e+001 -1.078988e+000 -6.000000e+000
      vertex  1.965385e+001 -1.179766e+000 -6.000000e+000
    endloop
  endfacet
  facet normal  6.273129e-001  7.787673e-001  0.000000e+000
    outer loop
      vertex  1.965385e+001 -1.179766e+000 -1.000000e+000
      vertex  1.965385e+001 -1.179766e+000 -6.000000e+000
      vertex  1.892101e+001 -5.894537e-001 -1.000000e+000
    endloop
  endfacet
  facet normal  6.273129e-001  7.787673e-001  0.000000e+000
    outer loop
      vertex  1.892101e+001 -5.894537e-001 -1.000000e+000
      vertex  1.965385e+001 -1.179766e+000 -6.000000e+000
      vertex  1.892101e+001 -5.894537e-001 -6.000000e+000
    endloop
  endfacet
  facet normal  0.000000e+000  0.000000e+000 -1.000000e+000
    outer loop
      vertex  2.107899e+001  5.894537e-001 -1.000000e+000
      vertex  2.117977e+001 -3.461528e-001 -1.000000e+000
      vertex  2.034615e+001  1.179766e+000 -1.000000e+000
    endloop
  endfacet
  facet normal  0.000000e+000  0.000000e+000 -1.000000e+000
    outer loop
      vertex  2.034615e+001  1.179766e+000 -1.000000e+000
      vertex  2.117977e+001 -3.461528e-001 -1.000000e+000
      vertex  2.058945e+001 -1.078988e+000 -1.000000e+000
    endloop
  endfacet
  facet normal  0.000000e+000  0.000000e+000 -1.000000e+000
    outer loop
      vertex  2.034615e+001  1.179766e+000 -1.000000e+000
      vertex  2.058945e+001 -1.078988e+000 -1.000000e+000
      vertex  1.941055e+001  1.078988e+000 -1.000000e+000
    endloop
  endfacet
  facet normal  0.000000e+000  0.000000e+000 -1.000000e+000
    outer loop
      vertex  1.941055e+001  1.078988e+000 -1.000000e+000
      vertex  2.058945e+001 -1.078988e+000 -1.000000e+000
      vertex  1.965385e+001 -1.179766e+000 -1.000000e+000
    endloop
  endfacet
  facet normal  0.000000e+000  0.000000e+000 -1.000000e+000
    outer loop
      vertex  1.941055e+001  1.078988e+000 -1.000000e+000
      vertex  1.965385e+001 -1.179766e+000 -1.000000e+000
      vertex  1.882023e+001  3.461528e-001 -1.000000e+000
    endloop
  endfacet
  facet normal  0.000000e+000  0.000000e+000 -1.000000e+000
    outer loop
      vertex  1.882023e+001  3.461528e-001 -1.000000e+000
      vertex  1.965385e+001 -1.179766e+000 -1.000000e+000
      vertex  1.892101e+001 -5.894537e-001 -1.000000e+000
    endloop
  endfacet
  facet normal  0.000000e+000 -1.000000e+000  0.000000e+000
    outer loop
      vertex  1.768618e-015 -3.500000e+000  2.000000e+000
      vertex  0.000000e+000 -3.500000e+000 -6.000000e+000
      vertex  2.000000e+001 -3.500000e+000  2.000000e+000
    endloop
  endfacet
  facet normal  0.000000e+000 -1.000000e+000  0.000000e+000
    outer loop
      vertex  2.000000e+001 -3.500000e+000  2.000000e+000
      vertex  0.000000e+000 -3.500000e+000 -6.000000e+000
      vertex  2.000000e+001 -3.500000e+000 -6.000000e+000
    endloop
  endfacet
  facet normal  0.000000e+000  1.000000e+000  0.000000e+000
    outer loop
      vertex  2.000000e+001  3.500000e+000  0.000000e+000
      vertex  2.000000e+001  3.500000e+000 -6.000000e+000
      vertex  0.000000e+000  3.500000e+000  0.000000e+000
    endloop
  endfacet
  facet normal  0.000000e+000  1.000000e+000  0.000000e+000
    outer loop
      vertex  0.000000e+000  3.500000e+000  0.000000e+000
      vertex  2.000000e+001  3.500000e+000 -6.000000e+000
      vertex -6.429183e-016  3.500000e+000 -6.000000e+000
    endloop
  endfacet
endsolid CATIA STL
