solid CATIA STL
  facet normal  0.000000e+000  0.000000e+000  1.000000e+000
    outer loop
      vertex  3.693997e+000  0.000000e+000  2.000000e+001
      vertex  3.693997e+000 -1.948205e+001  2.000000e+001
      vertex  4.498710e+001 -1.500000e+000  2.000000e+001
    endloop
  endfacet
  facet normal  0.000000e+000  0.000000e+000  1.000000e+000
    outer loop
      vertex  3.693997e+000  0.000000e+000  2.000000e+001
      vertex  4.498710e+001 -1.500000e+000  2.000000e+001
      vertex  4.498710e+001  2.000000e+000  2.000000e+001
    endloop
  endfacet
  facet normal  0.000000e+000  0.000000e+000  1.000000e+000
    outer loop
      vertex  3.693997e+000  0.000000e+000  2.000000e+001
      vertex  4.498710e+001  2.000000e+000  2.000000e+001
      vertex -1.303846e+000  2.000000e+000  2.000000e+001
    endloop
  endfacet
  facet normal  0.000000e+000  0.000000e+000  1.000000e+000
    outer loop
      vertex  3.693997e+000  0.000000e+000  2.000000e+001
      vertex -1.303846e+000  2.000000e+000  2.000000e+001
      vertex -1.303846e+000  0.000000e+000  2.000000e+001
    endloop
  endfacet
  facet normal  0.000000e+000  0.000000e+000  1.000000e+000
    outer loop
      vertex  3.693997e+000 -1.948205e+001  2.000000e+001
      vertex  3.507004e+001 -1.687830e+001  2.000000e+001
      vertex  9.573479e+001 -7.169713e+000  2.000000e+001
    endloop
  endfacet
  facet normal  0.000000e+000  0.000000e+000  1.000000e+000
    outer loop
      vertex  3.693997e+000 -1.948205e+001  2.000000e+001
      vertex  9.573479e+001 -7.169713e+000  2.000000e+001
      vertex  9.451450e+001 -1.554613e+000  2.000000e+001
    endloop
  endfacet
  facet normal  0.000000e+000  0.000000e+000  1.000000e+000
    outer loop
      vertex  3.693997e+000 -1.948205e+001  2.000000e+001
      vertex  9.451450e+001 -1.554613e+000  2.000000e+001
      vertex  4.498710e+001 -1.500000e+000  2.000000e+001
    endloop
  endfacet
  facet normal  0.000000e+000  0.000000e+000  1.000000e+000
    outer loop
      vertex  9.430385e+001  2.000000e+000  2.000000e+001
      vertex  9.101290e+001  2.000000e+000  2.000000e+001
      vertex  9.451450e+001 -1.554613e+000  2.000000e+001
    endloop
  endfacet
  facet normal  0.000000e+000  0.000000e+000  1.000000e+000
    outer loop
      vertex  9.451450e+001 -1.554613e+000  2.000000e+001
      vertex  9.101290e+001  2.000000e+000  2.000000e+001
      vertex  9.101290e+001 -1.500000e+000  2.000000e+001
    endloop
  endfacet
  facet normal  0.000000e+000  0.000000e+000  1.000000e+000
    outer loop
      vertex  9.451450e+001 -1.554613e+000  2.000000e+001
      vertex  9.101290e+001 -1.500000e+000  2.000000e+001
      vertex  4.498710e+001 -1.500000e+000  2.000000e+001
    endloop
  endfacet
  facet normal  0.000000e+000  0.000000e+000  1.000000e+000
    outer loop
      vertex  9.573479e+001 -7.169713e+000  2.000000e+001
      vertex  3.507004e+001 -1.687830e+001  2.000000e+001
      vertex  9.800000e+001 -1.245055e+001  2.000000e+001
    endloop
  endfacet
  facet normal  0.000000e+000  0.000000e+000  1.000000e+000
    outer loop
      vertex  9.800000e+001 -1.245055e+001  2.000000e+001
      vertex  3.507004e+001 -1.687830e+001  2.000000e+001
      vertex  6.651844e+001 -1.538366e+001  2.000000e+001
    endloop
  endfacet
  facet normal  0.000000e+000  0.000000e+000  1.000000e+000
    outer loop
      vertex  9.800000e+001 -1.245055e+001  2.000000e+001
      vertex  6.651844e+001 -1.538366e+001  2.000000e+001
      vertex  9.800000e+001 -1.500000e+001  2.000000e+001
    endloop
  endfacet
  facet normal  0.000000e+000  1.000000e+000  0.000000e+000
    outer loop
      vertex  7.900000e+001  2.000000e+000  7.105427e-015
      vertex  9.321228e+001  2.000000e+000  5.936507e+000
      vertex  9.430385e+001  2.000000e+000  7.105427e-015
    endloop
  endfacet
  facet normal  0.000000e+000  1.000000e+000  0.000000e+000
    outer loop
      vertex  9.304982e+001  2.000000e+000  1.197041e+001
      vertex  9.321228e+001  2.000000e+000  5.936507e+000
      vertex  7.900000e+001  2.000000e+000  7.105427e-015
    endloop
  endfacet
  facet normal  0.000000e+000  1.000000e+000  0.000000e+000
    outer loop
      vertex  9.304982e+001  2.000000e+000  1.197041e+001
      vertex  7.900000e+001  2.000000e+000  7.105427e-015
      vertex  7.900000e+001  2.000000e+000  1.360000e+001
    endloop
  endfacet
  facet normal  0.000000e+000  1.000000e+000  0.000000e+000
    outer loop
      vertex  9.304982e+001  2.000000e+000  1.197041e+001
      vertex  7.900000e+001  2.000000e+000  1.360000e+001
      vertex  8.025000e+001  2.000000e+000  1.360000e+001
    endloop
  endfacet
  facet normal  0.000000e+000  1.000000e+000  0.000000e+000
    outer loop
      vertex  9.304982e+001  2.000000e+000  1.197041e+001
      vertex  8.025000e+001  2.000000e+000  1.360000e+001
      vertex  8.453833e+001  2.000000e+000  1.437513e+001
    endloop
  endfacet
  facet normal  0.000000e+000  1.000000e+000  0.000000e+000
    outer loop
      vertex  9.304982e+001  2.000000e+000  1.197041e+001
      vertex  8.453833e+001  2.000000e+000  1.437513e+001
      vertex  8.828397e+001  2.000000e+000  1.660242e+001
    endloop
  endfacet
  facet normal  0.000000e+000  1.000000e+000  0.000000e+000
    outer loop
      vertex  9.304982e+001  2.000000e+000  1.197041e+001
      vertex  8.828397e+001  2.000000e+000  1.660242e+001
      vertex  9.382036e+001  2.000000e+000  1.795705e+001
    endloop
  endfacet
  facet normal  0.000000e+000  1.000000e+000  0.000000e+000
    outer loop
      vertex  9.382036e+001  2.000000e+000  1.795705e+001
      vertex  8.828397e+001  2.000000e+000  1.660242e+001
      vertex  9.430385e+001  2.000000e+000  2.000000e+001
    endloop
  endfacet
  facet normal  0.000000e+000  1.000000e+000  0.000000e+000
    outer loop
      vertex  9.430385e+001  2.000000e+000  2.000000e+001
      vertex  8.828397e+001  2.000000e+000  1.660242e+001
      vertex  9.101290e+001  2.000000e+000  2.000000e+001
    endloop
  endfacet
  facet normal  0.000000e+000  1.000000e+000  0.000000e+000
    outer loop
      vertex -1.665093e-001  2.000000e+000  1.360000e+001
      vertex -1.303846e+000  2.000000e+000  2.000000e+001
      vertex  4.498710e+001  2.000000e+000  2.000000e+001
    endloop
  endfacet
  facet normal  0.000000e+000  1.000000e+000  0.000000e+000
    outer loop
      vertex -1.665093e-001  2.000000e+000  1.360000e+001
      vertex  4.498710e+001  2.000000e+000  2.000000e+001
      vertex  4.771603e+001  2.000000e+000  1.660242e+001
    endloop
  endfacet
  facet normal  0.000000e+000  1.000000e+000  0.000000e+000
    outer loop
      vertex -1.665093e-001  2.000000e+000  1.360000e+001
      vertex  4.771603e+001  2.000000e+000  1.660242e+001
      vertex  5.146167e+001  2.000000e+000  1.437513e+001
    endloop
  endfacet
  facet normal  0.000000e+000  1.000000e+000  0.000000e+000
    outer loop
      vertex -1.665093e-001  2.000000e+000  1.360000e+001
      vertex  5.146167e+001  2.000000e+000  1.437513e+001
      vertex  5.575000e+001  2.000000e+000  1.360000e+001
    endloop
  endfacet
  facet normal  0.000000e+000  0.000000e+000 -1.000000e+000
    outer loop
      vertex  5.575000e+001  0.000000e+000  1.360000e+001
      vertex -1.665093e-001  0.000000e+000  1.360000e+001
      vertex  5.575000e+001  2.000000e+000  1.360000e+001
    endloop
  endfacet
  facet normal  0.000000e+000  0.000000e+000 -1.000000e+000
    outer loop
      vertex  5.575000e+001  2.000000e+000  1.360000e+001
      vertex -1.665093e-001  0.000000e+000  1.360000e+001
      vertex -1.665093e-001  2.000000e+000  1.360000e+001
    endloop
  endfacet
  facet normal -1.778704e-001  0.000000e+000  9.840539e-001
    outer loop
      vertex  8.025000e+001  2.000000e+000  1.360000e+001
      vertex  8.025000e+001 -1.500000e+000  1.360000e+001
      vertex  8.453833e+001  2.000000e+000  1.437513e+001
    endloop
  endfacet
  facet normal -1.778704e-001  0.000000e+000  9.840539e-001
    outer loop
      vertex  8.453833e+001  2.000000e+000  1.437513e+001
      vertex  8.025000e+001 -1.500000e+000  1.360000e+001
      vertex  8.453833e+001 -1.500000e+000  1.437513e+001
    endloop
  endfacet
  facet normal -5.111008e-001  0.000000e+000  8.595208e-001
    outer loop
      vertex  8.453833e+001  2.000000e+000  1.437513e+001
      vertex  8.453833e+001 -1.500000e+000  1.437513e+001
      vertex  8.828397e+001  2.000000e+000  1.660242e+001
    endloop
  endfacet
  facet normal -5.111008e-001  0.000000e+000  8.595208e-001
    outer loop
      vertex  8.828397e+001  2.000000e+000  1.660242e+001
      vertex  8.453833e+001 -1.500000e+000  1.437513e+001
      vertex  8.828397e+001 -1.500000e+000  1.660242e+001
    endloop
  endfacet
  facet normal -7.796515e-001  0.000000e+000  6.262136e-001
    outer loop
      vertex  8.828397e+001  2.000000e+000  1.660242e+001
      vertex  8.828397e+001 -1.500000e+000  1.660242e+001
      vertex  9.101290e+001  2.000000e+000  2.000000e+001
    endloop
  endfacet
  facet normal -7.796515e-001  0.000000e+000  6.262136e-001
    outer loop
      vertex  9.101290e+001  2.000000e+000  2.000000e+001
      vertex  8.828397e+001 -1.500000e+000  1.660242e+001
      vertex  9.101290e+001 -1.500000e+000  2.000000e+001
    endloop
  endfacet
  facet normal  0.000000e+000  0.000000e+000  1.000000e+000
    outer loop
      vertex  8.025000e+001  2.000000e+000  1.360000e+001
      vertex  7.900000e+001  2.000000e+000  1.360000e+001
      vertex  8.025000e+001 -1.500000e+000  1.360000e+001
    endloop
  endfacet
  facet normal  0.000000e+000  0.000000e+000  1.000000e+000
    outer loop
      vertex  8.025000e+001 -1.500000e+000  1.360000e+001
      vertex  7.900000e+001  2.000000e+000  1.360000e+001
      vertex  7.900000e+001  0.000000e+000  1.360000e+001
    endloop
  endfacet
  facet normal  0.000000e+000  0.000000e+000  1.000000e+000
    outer loop
      vertex  8.025000e+001 -1.500000e+000  1.360000e+001
      vertex  7.900000e+001  0.000000e+000  1.360000e+001
      vertex  5.575000e+001 -1.500000e+000  1.360000e+001
    endloop
  endfacet
  facet normal  0.000000e+000  0.000000e+000  1.000000e+000
    outer loop
      vertex  5.575000e+001 -1.500000e+000  1.360000e+001
      vertex  7.900000e+001  0.000000e+000  1.360000e+001
      vertex  5.575000e+001  0.000000e+000  1.360000e+001
    endloop
  endfacet
  facet normal  1.778703e-001  0.000000e+000  9.840540e-001
    outer loop
      vertex  5.575000e+001  0.000000e+000  1.360000e+001
      vertex  5.146167e+001 -1.500000e+000  1.437513e+001
      vertex  5.575000e+001 -1.500000e+000  1.360000e+001
    endloop
  endfacet
  facet normal  7.796515e-001  0.000000e+000  6.262136e-001
    outer loop
      vertex  4.498710e+001  2.000000e+000  2.000000e+001
      vertex  4.498710e+001 -1.500000e+000  2.000000e+001
      vertex  4.771603e+001  2.000000e+000  1.660242e+001
    endloop
  endfacet
  facet normal  7.796515e-001  0.000000e+000  6.262136e-001
    outer loop
      vertex  4.771603e+001  2.000000e+000  1.660242e+001
      vertex  4.498710e+001 -1.500000e+000  2.000000e+001
      vertex  4.771603e+001 -1.500000e+000  1.660242e+001
    endloop
  endfacet
  facet normal  5.111015e-001  0.000000e+000  8.595203e-001
    outer loop
      vertex  4.771603e+001  2.000000e+000  1.660242e+001
      vertex  4.771603e+001 -1.500000e+000  1.660242e+001
      vertex  5.146167e+001  2.000000e+000  1.437513e+001
    endloop
  endfacet
  facet normal  5.111015e-001  0.000000e+000  8.595203e-001
    outer loop
      vertex  5.146167e+001  2.000000e+000  1.437513e+001
      vertex  4.771603e+001 -1.500000e+000  1.660242e+001
      vertex  5.146167e+001 -1.500000e+000  1.437513e+001
    endloop
  endfacet
  facet normal  1.778703e-001  0.000000e+000  9.840540e-001
    outer loop
      vertex  5.146167e+001  2.000000e+000  1.437513e+001
      vertex  5.146167e+001 -1.500000e+000  1.437513e+001
      vertex  5.575000e+001  2.000000e+000  1.360000e+001
    endloop
  endfacet
  facet normal  1.778703e-001  0.000000e+000  9.840540e-001
    outer loop
      vertex  5.575000e+001  2.000000e+000  1.360000e+001
      vertex  5.146167e+001 -1.500000e+000  1.437513e+001
      vertex  5.575000e+001  0.000000e+000  1.360000e+001
    endloop
  endfacet
  facet normal  0.000000e+000  1.000000e+000  0.000000e+000
    outer loop
      vertex  4.498710e+001 -1.500000e+000  2.000000e+001
      vertex  9.101290e+001 -1.500000e+000  2.000000e+001
      vertex  4.771603e+001 -1.500000e+000  1.660242e+001
    endloop
  endfacet
  facet normal  0.000000e+000  1.000000e+000  0.000000e+000
    outer loop
      vertex  4.771603e+001 -1.500000e+000  1.660242e+001
      vertex  9.101290e+001 -1.500000e+000  2.000000e+001
      vertex  8.828397e+001 -1.500000e+000  1.660242e+001
    endloop
  endfacet
  facet normal  0.000000e+000  1.000000e+000  0.000000e+000
    outer loop
      vertex  4.771603e+001 -1.500000e+000  1.660242e+001
      vertex  8.828397e+001 -1.500000e+000  1.660242e+001
      vertex  5.146167e+001 -1.500000e+000  1.437513e+001
    endloop
  endfacet
  facet normal  0.000000e+000  1.000000e+000  0.000000e+000
    outer loop
      vertex  5.146167e+001 -1.500000e+000  1.437513e+001
      vertex  8.828397e+001 -1.500000e+000  1.660242e+001
      vertex  8.453833e+001 -1.500000e+000  1.437513e+001
    endloop
  endfacet
  facet normal  0.000000e+000  1.000000e+000  0.000000e+000
    outer loop
      vertex  5.146167e+001 -1.500000e+000  1.437513e+001
      vertex  8.453833e+001 -1.500000e+000  1.437513e+001
      vertex  5.575000e+001 -1.500000e+000  1.360000e+001
    endloop
  endfacet
  facet normal  0.000000e+000  1.000000e+000  0.000000e+000
    outer loop
      vertex  5.575000e+001 -1.500000e+000  1.360000e+001
      vertex  8.453833e+001 -1.500000e+000  1.437513e+001
      vertex  8.025000e+001 -1.500000e+000  1.360000e+001
    endloop
  endfacet
  facet normal -1.000000e+000  0.000000e+000  0.000000e+000
    outer loop
      vertex  7.900000e+001  2.000000e+000  7.105427e-015
      vertex  7.900000e+001  0.000000e+000  0.000000e+000
      vertex  7.900000e+001  2.000000e+000  1.360000e+001
    endloop
  endfacet
  facet normal -1.000000e+000  0.000000e+000  0.000000e+000
    outer loop
      vertex  7.900000e+001  2.000000e+000  1.360000e+001
      vertex  7.900000e+001  0.000000e+000  0.000000e+000
      vertex  7.900000e+001  0.000000e+000  1.360000e+001
    endloop
  endfacet
  facet normal  0.000000e+000  1.000000e+000  0.000000e+000
    outer loop
      vertex  6.859928e+001  0.000000e+000  8.503022e+000
      vertex  6.919944e+001  0.000000e+000  9.248075e+000
      vertex  7.900000e+001  0.000000e+000  0.000000e+000
    endloop
  endfacet
  facet normal -1.930322e-017  1.000000e+000 -6.251793e-016
    outer loop
      vertex  1.035192e+001  0.000000e+000  1.079944e+001
      vertex  3.780056e+001  0.000000e+000  9.951924e+000
      vertex  1.109698e+001 -3.608225e-016  1.019928e+001
    endloop
  endfacet
  facet normal  0.000000e+000  1.000000e+000  0.000000e+000
    outer loop
      vertex -1.665093e-001  0.000000e+000  1.360000e+001
      vertex  3.935192e+001  0.000000e+000  1.079944e+001
      vertex  3.840072e+001  0.000000e+000  1.069698e+001
    endloop
  endfacet
  facet normal  0.000000e+000  1.000000e+000  0.000000e+000
    outer loop
      vertex -1.665093e-001  0.000000e+000  1.360000e+001
      vertex  3.840072e+001  0.000000e+000  1.069698e+001
      vertex  3.780056e+001  0.000000e+000  9.951924e+000
    endloop
  endfacet
  facet normal  0.000000e+000  1.000000e+000  0.000000e+000
    outer loop
      vertex -1.665093e-001  0.000000e+000  1.360000e+001
      vertex  3.780056e+001  0.000000e+000  9.951924e+000
      vertex  1.035192e+001  0.000000e+000  1.079944e+001
    endloop
  endfacet
  facet normal  0.000000e+000  1.000000e+000  0.000000e+000
    outer loop
      vertex -1.665093e-001  0.000000e+000  1.360000e+001
      vertex  1.035192e+001  0.000000e+000  1.079944e+001
      vertex  9.400718e+000  0.000000e+000  1.069698e+001
    endloop
  endfacet
  facet normal  0.000000e+000  1.000000e+000  0.000000e+000
    outer loop
      vertex -1.665093e-001  0.000000e+000  1.360000e+001
      vertex  9.400718e+000  0.000000e+000  1.069698e+001
      vertex  8.800563e+000  0.000000e+000  9.951924e+000
    endloop
  endfacet
  facet normal  0.000000e+000  1.000000e+000  0.000000e+000
    outer loop
      vertex -1.665093e-001  0.000000e+000  1.360000e+001
      vertex  8.800563e+000  0.000000e+000  9.951924e+000
      vertex -1.356640e-001  0.000000e+000  6.749864e+000
    endloop
  endfacet
  facet normal  0.000000e+000  1.000000e+000  0.000000e+000
    outer loop
      vertex  5.575000e+001  0.000000e+000  1.360000e+001
      vertex  6.835192e+001  0.000000e+000  1.079944e+001
      vertex  6.740072e+001  0.000000e+000  1.069698e+001
    endloop
  endfacet
  facet normal  0.000000e+000  1.000000e+000  0.000000e+000
    outer loop
      vertex  5.575000e+001  0.000000e+000  1.360000e+001
      vertex  6.740072e+001  0.000000e+000  1.069698e+001
      vertex  6.680056e+001  0.000000e+000  9.951924e+000
    endloop
  endfacet
  facet normal  0.000000e+000  1.000000e+000  0.000000e+000
    outer loop
      vertex  5.575000e+001  0.000000e+000  1.360000e+001
      vertex  6.680056e+001  0.000000e+000  9.951924e+000
      vertex  4.019944e+001  0.000000e+000  9.248075e+000
    endloop
  endfacet
  facet normal -1.030519e-016  1.000000e+000  3.682313e-016
    outer loop
      vertex  5.575000e+001  0.000000e+000  1.360000e+001
      vertex  4.019944e+001  0.000000e+000  9.248075e+000
      vertex  4.009698e+001 -3.608225e-016  1.019928e+001
    endloop
  endfacet
  facet normal  8.471751e-017  1.000000e+000 -4.960444e-016
    outer loop
      vertex  5.575000e+001  0.000000e+000  1.360000e+001
      vertex  4.009698e+001 -3.608225e-016  1.019928e+001
      vertex  3.935192e+001  0.000000e+000  1.079944e+001
    endloop
  endfacet
  facet normal  0.000000e+000  1.000000e+000  0.000000e+000
    outer loop
      vertex  5.575000e+001  0.000000e+000  1.360000e+001
      vertex  3.935192e+001  0.000000e+000  1.079944e+001
      vertex -1.665093e-001  0.000000e+000  1.360000e+001
    endloop
  endfacet
  facet normal  0.000000e+000  1.000000e+000  0.000000e+000
    outer loop
      vertex  7.900000e+001  0.000000e+000  1.360000e+001
      vertex  7.900000e+001  0.000000e+000  0.000000e+000
      vertex  6.919944e+001  0.000000e+000  9.248075e+000
    endloop
  endfacet
  facet normal -1.607525e-016  1.000000e+000  3.620154e-016
    outer loop
      vertex  7.900000e+001  0.000000e+000  1.360000e+001
      vertex  6.919944e+001  0.000000e+000  9.248075e+000
      vertex  6.909698e+001 -3.608225e-016  1.019928e+001
    endloop
  endfacet
  facet normal  1.192046e-016  1.000000e+000 -4.532302e-016
    outer loop
      vertex  7.900000e+001  0.000000e+000  1.360000e+001
      vertex  6.909698e+001 -3.608225e-016  1.019928e+001
      vertex  6.835192e+001  0.000000e+000  1.079944e+001
    endloop
  endfacet
  facet normal  0.000000e+000  1.000000e+000  0.000000e+000
    outer loop
      vertex  7.900000e+001  0.000000e+000  1.360000e+001
      vertex  6.835192e+001  0.000000e+000  1.079944e+001
      vertex  5.575000e+001  0.000000e+000  1.360000e+001
    endloop
  endfacet
  facet normal  0.000000e+000  1.000000e+000  0.000000e+000
    outer loop
      vertex -1.303846e+000  0.000000e+000  0.000000e+000
      vertex -1.356640e-001  0.000000e+000  6.749864e+000
      vertex  8.800563e+000  0.000000e+000  9.951924e+000
    endloop
  endfacet
  facet normal  3.377730e-016  1.000000e+000 -3.429484e-016
    outer loop
      vertex -1.303846e+000  0.000000e+000  0.000000e+000
      vertex  8.800563e+000  0.000000e+000  9.951924e+000
      vertex  8.903022e+000 -3.608225e-016  9.000718e+000
    endloop
  endfacet
  facet normal -2.362202e-016  1.000000e+000  3.079632e-016
    outer loop
      vertex -1.303846e+000  0.000000e+000  0.000000e+000
      vertex  8.903022e+000 -3.608225e-016  9.000718e+000
      vertex  9.648076e+000  0.000000e+000  8.400563e+000
    endloop
  endfacet
  facet normal  0.000000e+000  1.000000e+000  0.000000e+000
    outer loop
      vertex -1.303846e+000  0.000000e+000  0.000000e+000
      vertex  9.648076e+000  0.000000e+000  8.400563e+000
      vertex  1.059928e+001  0.000000e+000  8.503022e+000
    endloop
  endfacet
  facet normal  1.356117e-017  1.000000e+000 -1.898388e-017
    outer loop
      vertex -1.303846e+000  0.000000e+000  0.000000e+000
      vertex  1.059928e+001  0.000000e+000  8.503022e+000
      vertex  3.790302e+001 -3.608225e-016  9.000718e+000
    endloop
  endfacet
  facet normal -1.002478e-016  1.000000e+000  4.767647e-016
    outer loop
      vertex -1.303846e+000  0.000000e+000  0.000000e+000
      vertex  3.790302e+001 -3.608225e-016  9.000718e+000
      vertex  3.864808e+001  0.000000e+000  8.400563e+000
    endloop
  endfacet
  facet normal  0.000000e+000  1.000000e+000  0.000000e+000
    outer loop
      vertex -1.303846e+000  0.000000e+000  0.000000e+000
      vertex  3.864808e+001  0.000000e+000  8.400563e+000
      vertex  3.959928e+001  0.000000e+000  8.503022e+000
    endloop
  endfacet
  facet normal  1.448527e-017  1.000000e+000 -6.968027e-017
    outer loop
      vertex -1.303846e+000  0.000000e+000  0.000000e+000
      vertex  3.959928e+001  0.000000e+000  8.503022e+000
      vertex  6.690302e+001 -3.608225e-016  9.000718e+000
    endloop
  endfacet
  facet normal -6.362438e-017  1.000000e+000  5.222297e-016
    outer loop
      vertex -1.303846e+000  0.000000e+000  0.000000e+000
      vertex  6.690302e+001 -3.608225e-016  9.000718e+000
      vertex  6.764808e+001  0.000000e+000  8.400563e+000
    endloop
  endfacet
  facet normal  0.000000e+000  1.000000e+000  0.000000e+000
    outer loop
      vertex -1.303846e+000  0.000000e+000  0.000000e+000
      vertex  6.764808e+001  0.000000e+000  8.400563e+000
      vertex  6.859928e+001  0.000000e+000  8.503022e+000
    endloop
  endfacet
  facet normal  0.000000e+000  1.000000e+000  0.000000e+000
    outer loop
      vertex -1.303846e+000  0.000000e+000  0.000000e+000
      vertex  6.859928e+001  0.000000e+000  8.503022e+000
      vertex  7.900000e+001  0.000000e+000  0.000000e+000
    endloop
  endfacet
  facet normal  1.341206e-017  1.000000e+000 -1.080367e-017
    outer loop
      vertex  3.959928e+001  0.000000e+000  8.503022e+000
      vertex  4.019944e+001  0.000000e+000  9.248075e+000
      vertex  6.690302e+001 -3.608225e-016  9.000718e+000
    endloop
  endfacet
  facet normal  1.000835e-017  1.000000e+000 -3.782534e-016
    outer loop
      vertex  6.690302e+001 -3.608225e-016  9.000718e+000
      vertex  4.019944e+001  0.000000e+000  9.248075e+000
      vertex  6.680056e+001  0.000000e+000  9.951924e+000
    endloop
  endfacet
  facet normal  2.009018e-017  1.000000e+000 -3.771675e-016
    outer loop
      vertex  3.790302e+001 -3.608225e-016  9.000718e+000
      vertex  1.059928e+001  0.000000e+000  8.503022e+000
      vertex  3.780056e+001  0.000000e+000  9.951924e+000
    endloop
  endfacet
  facet normal  0.000000e+000  1.000000e+000  0.000000e+000
    outer loop
      vertex  3.780056e+001  0.000000e+000  9.951924e+000
      vertex  1.059928e+001  0.000000e+000  8.503022e+000
      vertex  1.119944e+001  0.000000e+000  9.248075e+000
    endloop
  endfacet
  facet normal -1.000835e-017  1.000000e+000  3.782535e-016
    outer loop
      vertex  3.780056e+001  0.000000e+000  9.951924e+000
      vertex  1.119944e+001  0.000000e+000  9.248075e+000
      vertex  1.109698e+001 -3.608225e-016  1.019928e+001
    endloop
  endfacet
  facet normal -9.999646e-001 -7.108769e-003 -4.502721e-003
    outer loop
      vertex -1.665093e-001  0.000000e+000  1.360000e+001
      vertex -1.356640e-001  0.000000e+000  6.749864e+000
      vertex -6.012163e-003 -1.986276e+001  9.315557e+000
    endloop
  endfacet
  facet normal -9.986616e-001  3.067290e-003 -5.163031e-002
    outer loop
      vertex -1.665093e-001  0.000000e+000  1.360000e+001
      vertex -6.012163e-003 -1.986276e+001  9.315557e+000
      vertex -2.846447e-001 -1.989207e+001  1.470328e+001
    endloop
  endfacet
  facet normal -9.943161e-001  0.000000e+000 -1.064683e-001
    outer loop
      vertex -1.665093e-001  0.000000e+000  1.360000e+001
      vertex -2.846447e-001 -1.989207e+001  1.470328e+001
      vertex -1.665093e-001  2.000000e+000  1.360000e+001
    endloop
  endfacet
  facet normal -9.853520e-001  3.938044e-016  1.705325e-001
    outer loop
      vertex -1.303846e+000  0.000000e+000  0.000000e+000
      vertex -1.303846e+000 -2.000000e+001  4.618528e-014
      vertex -1.356640e-001  0.000000e+000  6.749864e+000
    endloop
  endfacet
  facet normal -9.783856e-001 -1.251524e-002  2.064097e-001
    outer loop
      vertex -1.356640e-001  0.000000e+000  6.749864e+000
      vertex -1.303846e+000 -2.000000e+001  4.618528e-014
      vertex -4.735177e-001 -1.991198e+001  3.941109e+000
    endloop
  endfacet
  facet normal -9.962308e-001  4.685489e-003  8.661594e-002
    outer loop
      vertex -1.356640e-001  0.000000e+000  6.749864e+000
      vertex -4.735177e-001 -1.991198e+001  3.941109e+000
      vertex -6.012163e-003 -1.986276e+001  9.315557e+000
    endloop
  endfacet
  facet normal -9.845742e-001  0.000000e+000 -1.749676e-001
    outer loop
      vertex -1.303846e+000  2.000000e+000  2.000000e+001
      vertex -1.665093e-001  2.000000e+000  1.360000e+001
      vertex -1.303846e+000  0.000000e+000  2.000000e+001
    endloop
  endfacet
  facet normal -9.843757e-001 -3.560038e-003 -1.760449e-001
    outer loop
      vertex -1.303846e+000  0.000000e+000  2.000000e+001
      vertex -1.665093e-001  2.000000e+000  1.360000e+001
      vertex -2.846447e-001 -1.989207e+001  1.470328e+001
    endloop
  endfacet
  facet normal -9.819857e-001  0.000000e+000 -1.889549e-001
    outer loop
      vertex -1.303846e+000  0.000000e+000  2.000000e+001
      vertex -2.846447e-001 -1.989207e+001  1.470328e+001
      vertex -1.303846e+000 -2.000000e+001  2.000000e+001
    endloop
  endfacet
  facet normal -9.665422e-001  0.000000e+000 -2.565074e-001
    outer loop
      vertex -1.306003e+000 -2.000000e+001  2.000813e+001
      vertex -1.306003e+000  0.000000e+000  2.000813e+001
      vertex -1.303846e+000 -2.000000e+001  2.000000e+001
    endloop
  endfacet
  facet normal -9.665422e-001  0.000000e+000 -2.565074e-001
    outer loop
      vertex -1.303846e+000 -2.000000e+001  2.000000e+001
      vertex -1.306003e+000  0.000000e+000  2.000813e+001
      vertex -1.303846e+000  0.000000e+000  2.000000e+001
    endloop
  endfacet
  facet normal  9.481208e-001  2.788586e-001 -1.526596e-001
    outer loop
      vertex  9.539142e+001 -9.633574e+000  1.336679e+001
      vertex  9.371219e+001 -3.924182e+000  1.336679e+001
      vertex  9.573479e+001 -7.169713e+000  2.000000e+001
    endloop
  endfacet
  facet normal  9.028485e-001  3.849123e-001  1.915911e-001
    outer loop
      vertex  9.569446e+001 -7.042684e+000  0.000000e+000
      vertex  9.539142e+001 -9.633574e+000  6.633212e+000
      vertex  9.800000e+001 -1.245055e+001  0.000000e+000
    endloop
  endfacet
  facet normal  9.825087e-001  1.025153e-001 -1.554587e-001
    outer loop
      vertex  9.371219e+001 -3.924182e+000  1.336679e+001
      vertex  9.382036e+001  2.000000e+000  1.795705e+001
      vertex  9.451450e+001 -1.554613e+000  2.000000e+001
    endloop
  endfacet
  facet normal  9.592944e-001  2.084769e-001 -1.905034e-001
    outer loop
      vertex  9.573479e+001 -7.169713e+000  2.000000e+001
      vertex  9.371219e+001 -3.924182e+000  1.336679e+001
      vertex  9.451450e+001 -1.554613e+000  2.000000e+001
    endloop
  endfacet
  facet normal  9.827998e-001  1.011071e-001  1.545376e-001
    outer loop
      vertex  9.448419e+001 -1.289789e+000  0.000000e+000
      vertex  9.321228e+001  2.000000e+000  5.936507e+000
      vertex  9.371219e+001 -3.924182e+000  6.633212e+000
    endloop
  endfacet
  facet normal  9.603707e-001  2.020381e-001  1.920121e-001
    outer loop
      vertex  9.371219e+001 -3.924182e+000  6.633212e+000
      vertex  9.569446e+001 -7.042684e+000  0.000000e+000
      vertex  9.448419e+001 -1.289789e+000  0.000000e+000
    endloop
  endfacet
  facet normal  9.481820e-001  2.788766e-001  1.522453e-001
    outer loop
      vertex  9.539142e+001 -9.633574e+000  6.633212e+000
      vertex  9.569446e+001 -7.042684e+000  0.000000e+000
      vertex  9.371219e+001 -3.924182e+000  6.633212e+000
    endloop
  endfacet
  facet normal  9.715053e-001  5.757174e-002 -2.299193e-001
    outer loop
      vertex  9.451450e+001 -1.554613e+000  2.000000e+001
      vertex  9.382036e+001  2.000000e+000  1.795705e+001
      vertex  9.430385e+001  2.000000e+000  2.000000e+001
    endloop
  endfacet
  facet normal  9.885963e-001  8.054063e-002 -1.272418e-001
    outer loop
      vertex  9.371219e+001 -3.924182e+000  1.336679e+001
      vertex  9.304982e+001  2.000000e+000  1.197041e+001
      vertex  9.382036e+001  2.000000e+000  1.795705e+001
    endloop
  endfacet
  facet normal  9.820858e-001  5.383717e-002  1.805798e-001
    outer loop
      vertex  9.321228e+001  2.000000e+000  5.936507e+000
      vertex  9.448419e+001 -1.289789e+000  0.000000e+000
      vertex  9.430385e+001  2.000000e+000  7.105427e-015
    endloop
  endfacet
  facet normal  1.000000e+000  0.000000e+000  0.000000e+000
    outer loop
      vertex  9.800000e+001 -1.450121e+001  1.455763e+001
      vertex  9.800000e+001 -1.500000e+001  1.000005e+001
      vertex  9.800000e+001 -1.367403e+001  1.734363e+001
    endloop
  endfacet
  facet normal  8.736001e-001  4.789003e-001 -8.647130e-002
    outer loop
      vertex  9.800000e+001 -1.367403e+001  1.734363e+001
      vertex  9.800000e+001 -1.500000e+001  1.000005e+001
      vertex  9.539142e+001 -9.633574e+000  1.336679e+001
    endloop
  endfacet
  facet normal  8.983144e-001  3.990602e-001 -1.837997e-001
    outer loop
      vertex  9.800000e+001 -1.367403e+001  1.734363e+001
      vertex  9.539142e+001 -9.633574e+000  1.336679e+001
      vertex  9.800000e+001 -1.245055e+001  2.000000e+001
    endloop
  endfacet
  facet normal  9.021983e-001  3.869975e-001 -1.904498e-001
    outer loop
      vertex  9.800000e+001 -1.245055e+001  2.000000e+001
      vertex  9.539142e+001 -9.633574e+000  1.336679e+001
      vertex  9.573479e+001 -7.169713e+000  2.000000e+001
    endloop
  endfacet
  facet normal  1.000000e+000  0.000000e+000  0.000000e+000
    outer loop
      vertex  9.800000e+001 -1.386664e+001  3.191761e+000
      vertex  9.800000e+001 -1.245055e+001  0.000000e+000
      vertex  9.800000e+001 -1.471647e+001  6.553393e+000
    endloop
  endfacet
  facet normal  8.798735e-001  4.491194e-001  1.552886e-001
    outer loop
      vertex  9.800000e+001 -1.471647e+001  6.553393e+000
      vertex  9.800000e+001 -1.245055e+001  0.000000e+000
      vertex  9.539142e+001 -9.633574e+000  6.633212e+000
    endloop
  endfacet
  facet normal  8.892909e-001  4.558022e-001  3.749550e-002
    outer loop
      vertex  9.800000e+001 -1.471647e+001  6.553393e+000
      vertex  9.539142e+001 -9.633574e+000  6.633212e+000
      vertex  9.800000e+001 -1.500000e+001  1.000005e+001
    endloop
  endfacet
  facet normal  8.993743e-001  4.371794e-001  0.000000e+000
    outer loop
      vertex  9.800000e+001 -1.500000e+001  1.000005e+001
      vertex  9.539142e+001 -9.633574e+000  6.633212e+000
      vertex  9.539142e+001 -9.633574e+000  1.336679e+001
    endloop
  endfacet
  facet normal  9.593657e-001  2.821659e-001  0.000000e+000
    outer loop
      vertex  9.539142e+001 -9.633574e+000  1.336679e+001
      vertex  9.539142e+001 -9.633574e+000  6.633212e+000
      vertex  9.371219e+001 -3.924182e+000  1.336679e+001
    endloop
  endfacet
  facet normal  9.593657e-001  2.821659e-001  0.000000e+000
    outer loop
      vertex  9.371219e+001 -3.924182e+000  1.336679e+001
      vertex  9.539142e+001 -9.633574e+000  6.633212e+000
      vertex  9.371219e+001 -3.924182e+000  6.633212e+000
    endloop
  endfacet
  facet normal  9.938076e-001  1.111153e-001  0.000000e+000
    outer loop
      vertex  9.371219e+001 -3.924182e+000  1.336679e+001
      vertex  9.371219e+001 -3.924182e+000  6.633212e+000
      vertex  9.304982e+001  2.000000e+000  1.197041e+001
    endloop
  endfacet
  facet normal  9.958312e-001  8.718582e-002  2.681235e-002
    outer loop
      vertex  9.304982e+001  2.000000e+000  1.197041e+001
      vertex  9.371219e+001 -3.924182e+000  6.633212e+000
      vertex  9.321228e+001  2.000000e+000  5.936507e+000
    endloop
  endfacet
  facet normal  1.000000e+000  0.000000e+000  0.000000e+000
    outer loop
      vertex  9.800000e+001 -1.500000e+001  0.000000e+000
      vertex  9.800000e+001 -1.245055e+001  0.000000e+000
      vertex  9.800000e+001 -1.386664e+001  3.191761e+000
    endloop
  endfacet
  facet normal  1.000000e+000  0.000000e+000  0.000000e+000
    outer loop
      vertex  9.800000e+001 -1.500000e+001  0.000000e+000
      vertex  9.800000e+001 -1.386664e+001  3.191761e+000
      vertex  9.800000e+001 -1.471647e+001  6.553393e+000
    endloop
  endfacet
  facet normal  1.000000e+000  0.000000e+000  0.000000e+000
    outer loop
      vertex  9.800000e+001 -1.500000e+001  0.000000e+000
      vertex  9.800000e+001 -1.471647e+001  6.553393e+000
      vertex  9.800000e+001 -1.500000e+001  1.000005e+001
    endloop
  endfacet
  facet normal  1.000000e+000  0.000000e+000  0.000000e+000
    outer loop
      vertex  9.800000e+001 -1.500000e+001  2.000000e+001
      vertex  9.800000e+001 -1.500000e+001  1.000005e+001
      vertex  9.800000e+001 -1.450121e+001  1.455763e+001
    endloop
  endfacet
  facet normal  1.000000e+000  0.000000e+000  0.000000e+000
    outer loop
      vertex  9.800000e+001 -1.500000e+001  2.000000e+001
      vertex  9.800000e+001 -1.450121e+001  1.455763e+001
      vertex  9.800000e+001 -1.367403e+001  1.734363e+001
    endloop
  endfacet
  facet normal  1.000000e+000  0.000000e+000  0.000000e+000
    outer loop
      vertex  9.800000e+001 -1.500000e+001  2.000000e+001
      vertex  9.800000e+001 -1.367403e+001  1.734363e+001
      vertex  9.800000e+001 -1.245055e+001  2.000000e+001
    endloop
  endfacet
  facet normal -3.109431e-017 -2.309264e-015 -1.000000e+000
    outer loop
      vertex -1.303846e+000 -2.000000e+001  4.618528e-014
      vertex -1.303846e+000  0.000000e+000  0.000000e+000
      vertex  9.448419e+001 -1.289789e+000  0.000000e+000
    endloop
  endfacet
  facet normal -4.631301e-016 -9.743106e-017 -1.000000e+000
    outer loop
      vertex -1.303846e+000 -2.000000e+001  4.618528e-014
      vertex  9.448419e+001 -1.289789e+000  0.000000e+000
      vertex  9.569446e+001 -7.042684e+000  0.000000e+000
    endloop
  endfacet
  facet normal -3.161500e-015  2.010253e-014 -1.000000e+000
    outer loop
      vertex -1.303846e+000 -2.000000e+001  4.618528e-014
      vertex  9.569446e+001 -7.042684e+000  0.000000e+000
      vertex  3.172782e+001 -1.710264e+001  0.000000e+000
    endloop
  endfacet
  facet normal  0.000000e+000  3.552714e-015 -1.000000e+000
    outer loop
      vertex  7.900000e+001  2.000000e+000  7.105427e-015
      vertex  9.430385e+001  2.000000e+000  7.105427e-015
      vertex  7.900000e+001  0.000000e+000  0.000000e+000
    endloop
  endfacet
  facet normal  1.807340e-016  2.169751e-015 -1.000000e+000
    outer loop
      vertex  7.900000e+001  0.000000e+000  0.000000e+000
      vertex  9.430385e+001  2.000000e+000  7.105427e-015
      vertex  9.448419e+001 -1.289789e+000  0.000000e+000
    endloop
  endfacet
  facet normal  0.000000e+000  0.000000e+000 -1.000000e+000
    outer loop
      vertex  7.900000e+001  0.000000e+000  0.000000e+000
      vertex  9.448419e+001 -1.289789e+000  0.000000e+000
      vertex -1.303846e+000  0.000000e+000  0.000000e+000
    endloop
  endfacet
  facet normal  0.000000e+000  0.000000e+000 -1.000000e+000
    outer loop
      vertex  3.172782e+001 -1.710264e+001  0.000000e+000
      vertex  9.569446e+001 -7.042684e+000  0.000000e+000
      vertex  6.484436e+001 -1.543520e+001  0.000000e+000
    endloop
  endfacet
  facet normal  0.000000e+000  0.000000e+000 -1.000000e+000
    outer loop
      vertex  6.484436e+001 -1.543520e+001  0.000000e+000
      vertex  9.569446e+001 -7.042684e+000  0.000000e+000
      vertex  9.800000e+001 -1.245055e+001  0.000000e+000
    endloop
  endfacet
  facet normal  0.000000e+000  0.000000e+000 -1.000000e+000
    outer loop
      vertex  6.484436e+001 -1.543520e+001  0.000000e+000
      vertex  9.800000e+001 -1.245055e+001  0.000000e+000
      vertex  9.800000e+001 -1.500000e+001  0.000000e+000
    endloop
  endfacet
  facet normal  1.030826e-001 -9.946727e-001 -4.338562e-004
    outer loop
      vertex -2.846447e-001 -1.989207e+001  1.470328e+001
      vertex  3.693997e+000 -1.948205e+001  2.000813e+001
      vertex -1.303846e+000 -2.000000e+001  2.000000e+001
    endloop
  endfacet
  facet normal  1.030819e-001 -9.946729e-001  0.000000e+000
    outer loop
      vertex  3.693997e+000 -1.948205e+001  2.000813e+001
      vertex -1.303846e+000 -2.000000e+001  2.000813e+001
      vertex -1.303846e+000 -2.000000e+001  2.000000e+001
    endloop
  endfacet
  facet normal  1.218592e-002 -9.999257e-001  0.000000e+000
    outer loop
      vertex  9.800000e+001 -1.500000e+001  2.000000e+001
      vertex  6.651844e+001 -1.538366e+001  2.000000e+001
      vertex  9.800000e+001 -1.500000e+001  1.000005e+001
    endloop
  endfacet
  facet normal  1.026439e-001 -9.947181e-001 -1.013421e-004
    outer loop
      vertex -2.846447e-001 -1.989207e+001  1.470328e+001
      vertex -6.012163e-003 -1.986276e+001  9.315557e+000
      vertex  3.693997e+000 -1.948205e+001  2.000813e+001
    endloop
  endfacet
  facet normal  1.023541e-001 -9.947481e-001  0.000000e+000
    outer loop
      vertex  3.693997e+000 -1.948205e+001  2.000000e+001
      vertex  3.693997e+000 -1.948205e+001  2.000813e+001
      vertex -6.012163e-003 -1.986276e+001  9.315557e+000
    endloop
  endfacet
  facet normal  1.015703e-001 -9.948283e-001  2.743030e-004
    outer loop
      vertex  3.693997e+000 -1.948205e+001  2.000000e+001
      vertex -6.012163e-003 -1.986276e+001  9.315557e+000
      vertex -4.735177e-001 -1.991198e+001  3.941109e+000
    endloop
  endfacet
  facet normal  9.049878e-002 -9.958915e-001  3.175976e-003
    outer loop
      vertex  3.693997e+000 -1.948205e+001  2.000000e+001
      vertex -4.735177e-001 -1.991198e+001  3.941109e+000
      vertex -1.303846e+000 -2.000000e+001  4.618528e-014
    endloop
  endfacet
  facet normal  8.737855e-002 -9.961673e-001  3.962842e-003
    outer loop
      vertex  3.693997e+000 -1.948205e+001  2.000000e+001
      vertex -1.303846e+000 -2.000000e+001  4.618528e-014
      vertex  3.172782e+001 -1.710264e+001  0.000000e+000
    endloop
  endfacet
  facet normal  8.270085e-002 -9.965709e-001 -2.641863e-003
    outer loop
      vertex  3.693997e+000 -1.948205e+001  2.000000e+001
      vertex  3.172782e+001 -1.710264e+001  0.000000e+000
      vertex  3.507004e+001 -1.687830e+001  2.000000e+001
    endloop
  endfacet
  facet normal  1.312486e-002 -9.999139e-001  0.000000e+000
    outer loop
      vertex  9.800000e+001 -1.500000e+001  0.000000e+000
      vertex  9.800000e+001 -1.500000e+001  1.000005e+001
      vertex  6.484436e+001 -1.543520e+001  0.000000e+000
    endloop
  endfacet
  facet normal  1.266754e-002 -9.999186e-001  1.516485e-003
    outer loop
      vertex  6.484436e+001 -1.543520e+001  0.000000e+000
      vertex  9.800000e+001 -1.500000e+001  1.000005e+001
      vertex  6.651844e+001 -1.538366e+001  2.000000e+001
    endloop
  endfacet
  facet normal  5.028677e-002 -9.987335e-001 -1.635449e-003
    outer loop
      vertex  6.484436e+001 -1.543520e+001  0.000000e+000
      vertex  6.651844e+001 -1.538366e+001  2.000000e+001
      vertex  3.172782e+001 -1.710264e+001  0.000000e+000
    endloop
  endfacet
  facet normal  4.747289e-002 -9.988672e-001  3.270877e-003
    outer loop
      vertex  3.172782e+001 -1.710264e+001  0.000000e+000
      vertex  6.651844e+001 -1.538366e+001  2.000000e+001
      vertex  3.507004e+001 -1.687830e+001  2.000000e+001
    endloop
  endfacet
  facet normal  0.000000e+000 -1.000000e+000  0.000000e+000
    outer loop
      vertex -1.303846e+000 -2.000000e+001  2.000813e+001
      vertex -1.306003e+000 -2.000000e+001  2.000813e+001
      vertex -1.303846e+000 -2.000000e+001  2.000000e+001
    endloop
  endfacet
  facet normal  0.000000e+000  0.000000e+000  1.000000e+000
    outer loop
      vertex  3.693997e+000 -1.948205e+001  2.000813e+001
      vertex  3.693997e+000  0.000000e+000  2.000813e+001
      vertex -1.303846e+000 -2.000000e+001  2.000813e+001
    endloop
  endfacet
  facet normal  0.000000e+000  0.000000e+000  1.000000e+000
    outer loop
      vertex -1.303846e+000 -2.000000e+001  2.000813e+001
      vertex  3.693997e+000  0.000000e+000  2.000813e+001
      vertex -1.306003e+000  0.000000e+000  2.000813e+001
    endloop
  endfacet
  facet normal  0.000000e+000  0.000000e+000  1.000000e+000
    outer loop
      vertex -1.303846e+000 -2.000000e+001  2.000813e+001
      vertex -1.306003e+000  0.000000e+000  2.000813e+001
      vertex -1.306003e+000 -2.000000e+001  2.000813e+001
    endloop
  endfacet
  facet normal  1.000000e+000  0.000000e+000  0.000000e+000
    outer loop
      vertex  3.693997e+000 -1.948205e+001  2.000000e+001
      vertex  3.693997e+000  0.000000e+000  2.000000e+001
      vertex  3.693997e+000 -1.948205e+001  2.000813e+001
    endloop
  endfacet
  facet normal  1.000000e+000  0.000000e+000  0.000000e+000
    outer loop
      vertex  3.693997e+000 -1.948205e+001  2.000813e+001
      vertex  3.693997e+000  0.000000e+000  2.000000e+001
      vertex  3.693997e+000  0.000000e+000  2.000813e+001
    endloop
  endfacet
  facet normal  0.000000e+000  1.000000e+000  0.000000e+000
    outer loop
      vertex -1.303846e+000  0.000000e+000  2.000000e+001
      vertex -1.306003e+000  0.000000e+000  2.000813e+001
      vertex  3.693997e+000  0.000000e+000  2.000000e+001
    endloop
  endfacet
  facet normal  0.000000e+000  1.000000e+000  0.000000e+000
    outer loop
      vertex  3.693997e+000  0.000000e+000  2.000000e+001
      vertex -1.306003e+000  0.000000e+000  2.000813e+001
      vertex  3.693997e+000  0.000000e+000  2.000813e+001
    endloop
  endfacet
  facet normal  9.942483e-001  0.000000e+000  1.070992e-001
    outer loop
      vertex  6.690302e+001 -1.000000e+001  9.000718e+000
      vertex  6.690302e+001 -3.608225e-016  9.000718e+000
      vertex  6.680056e+001 -1.000000e+001  9.951924e+000
    endloop
  endfacet
  facet normal  9.942483e-001  0.000000e+000  1.070992e-001
    outer loop
      vertex  6.680056e+001 -1.000000e+001  9.951924e+000
      vertex  6.690302e+001 -3.608225e-016  9.000718e+000
      vertex  6.680056e+001  0.000000e+000  9.951924e+000
    endloop
  endfacet
  facet normal  7.787661e-001  0.000000e+000 -6.273144e-001
    outer loop
      vertex  6.680056e+001 -1.000000e+001  9.951924e+000
      vertex  6.680056e+001  0.000000e+000  9.951924e+000
      vertex  6.740072e+001 -1.000000e+001  1.069698e+001
    endloop
  endfacet
  facet normal  7.787661e-001  0.000000e+000 -6.273144e-001
    outer loop
      vertex  6.740072e+001 -1.000000e+001  1.069698e+001
      vertex  6.680056e+001  0.000000e+000  9.951924e+000
      vertex  6.740072e+001  0.000000e+000  1.069698e+001
    endloop
  endfacet
  facet normal  1.070947e-001  0.000000e+000 -9.942488e-001
    outer loop
      vertex  6.740072e+001 -1.000000e+001  1.069698e+001
      vertex  6.740072e+001  0.000000e+000  1.069698e+001
      vertex  6.835192e+001 -1.000000e+001  1.079944e+001
    endloop
  endfacet
  facet normal  1.070947e-001  0.000000e+000 -9.942488e-001
    outer loop
      vertex  6.835192e+001 -1.000000e+001  1.079944e+001
      vertex  6.740072e+001  0.000000e+000  1.069698e+001
      vertex  6.835192e+001  0.000000e+000  1.079944e+001
    endloop
  endfacet
  facet normal -6.273110e-001  0.000000e+000 -7.787688e-001
    outer loop
      vertex  6.835192e+001 -1.000000e+001  1.079944e+001
      vertex  6.835192e+001  0.000000e+000  1.079944e+001
      vertex  6.909698e+001 -1.000000e+001  1.019928e+001
    endloop
  endfacet
  facet normal -6.273110e-001  0.000000e+000 -7.787688e-001
    outer loop
      vertex  6.909698e+001 -1.000000e+001  1.019928e+001
      vertex  6.835192e+001  0.000000e+000  1.079944e+001
      vertex  6.909698e+001 -3.608225e-016  1.019928e+001
    endloop
  endfacet
  facet normal -9.942483e-001  0.000000e+000 -1.070992e-001
    outer loop
      vertex  6.909698e+001 -1.000000e+001  1.019928e+001
      vertex  6.909698e+001 -3.608225e-016  1.019928e+001
      vertex  6.919944e+001 -1.000000e+001  9.248075e+000
    endloop
  endfacet
  facet normal -9.942483e-001  0.000000e+000 -1.070992e-001
    outer loop
      vertex  6.919944e+001 -1.000000e+001  9.248075e+000
      vertex  6.909698e+001 -3.608225e-016  1.019928e+001
      vertex  6.919944e+001  0.000000e+000  9.248075e+000
    endloop
  endfacet
  facet normal -7.787657e-001  0.000000e+000  6.273149e-001
    outer loop
      vertex  6.919944e+001 -1.000000e+001  9.248075e+000
      vertex  6.919944e+001  0.000000e+000  9.248075e+000
      vertex  6.859928e+001 -1.000000e+001  8.503022e+000
    endloop
  endfacet
  facet normal -7.787657e-001  0.000000e+000  6.273149e-001
    outer loop
      vertex  6.859928e+001 -1.000000e+001  8.503022e+000
      vertex  6.919944e+001  0.000000e+000  9.248075e+000
      vertex  6.859928e+001  0.000000e+000  8.503022e+000
    endloop
  endfacet
  facet normal -1.070957e-001  0.000000e+000  9.942487e-001
    outer loop
      vertex  6.859928e+001 -1.000000e+001  8.503022e+000
      vertex  6.859928e+001  0.000000e+000  8.503022e+000
      vertex  6.764808e+001 -1.000000e+001  8.400563e+000
    endloop
  endfacet
  facet normal -1.070957e-001  0.000000e+000  9.942487e-001
    outer loop
      vertex  6.764808e+001 -1.000000e+001  8.400563e+000
      vertex  6.859928e+001  0.000000e+000  8.503022e+000
      vertex  6.764808e+001  0.000000e+000  8.400563e+000
    endloop
  endfacet
  facet normal  6.273110e-001  0.000000e+000  7.787688e-001
    outer loop
      vertex  6.764808e+001 -1.000000e+001  8.400563e+000
      vertex  6.764808e+001  0.000000e+000  8.400563e+000
      vertex  6.690302e+001 -1.000000e+001  9.000718e+000
    endloop
  endfacet
  facet normal  6.273110e-001  0.000000e+000  7.787688e-001
    outer loop
      vertex  6.690302e+001 -1.000000e+001  9.000718e+000
      vertex  6.764808e+001  0.000000e+000  8.400563e+000
      vertex  6.690302e+001 -3.608225e-016  9.000718e+000
    endloop
  endfacet
  facet normal  0.000000e+000  1.000000e+000  0.000000e+000
    outer loop
      vertex  6.909698e+001 -1.000000e+001  1.019928e+001
      vertex  6.919944e+001 -1.000000e+001  9.248075e+000
      vertex  6.835192e+001 -1.000000e+001  1.079944e+001
    endloop
  endfacet
  facet normal  0.000000e+000  1.000000e+000  0.000000e+000
    outer loop
      vertex  6.835192e+001 -1.000000e+001  1.079944e+001
      vertex  6.919944e+001 -1.000000e+001  9.248075e+000
      vertex  6.859928e+001 -1.000000e+001  8.503022e+000
    endloop
  endfacet
  facet normal  0.000000e+000  1.000000e+000  0.000000e+000
    outer loop
      vertex  6.835192e+001 -1.000000e+001  1.079944e+001
      vertex  6.859928e+001 -1.000000e+001  8.503022e+000
      vertex  6.740072e+001 -1.000000e+001  1.069698e+001
    endloop
  endfacet
  facet normal  0.000000e+000  1.000000e+000  0.000000e+000
    outer loop
      vertex  6.740072e+001 -1.000000e+001  1.069698e+001
      vertex  6.859928e+001 -1.000000e+001  8.503022e+000
      vertex  6.764808e+001 -1.000000e+001  8.400563e+000
    endloop
  endfacet
  facet normal  0.000000e+000  1.000000e+000  0.000000e+000
    outer loop
      vertex  6.740072e+001 -1.000000e+001  1.069698e+001
      vertex  6.764808e+001 -1.000000e+001  8.400563e+000
      vertex  6.680056e+001 -1.000000e+001  9.951924e+000
    endloop
  endfacet
  facet normal  0.000000e+000  1.000000e+000  0.000000e+000
    outer loop
      vertex  6.680056e+001 -1.000000e+001  9.951924e+000
      vertex  6.764808e+001 -1.000000e+001  8.400563e+000
      vertex  6.690302e+001 -1.000000e+001  9.000718e+000
    endloop
  endfacet
  facet normal  9.942487e-001  0.000000e+000  1.070953e-001
    outer loop
      vertex  3.790302e+001 -1.000000e+001  9.000718e+000
      vertex  3.790302e+001 -3.608225e-016  9.000718e+000
      vertex  3.780056e+001 -1.000000e+001  9.951924e+000
    endloop
  endfacet
  facet normal  9.942487e-001  0.000000e+000  1.070953e-001
    outer loop
      vertex  3.780056e+001 -1.000000e+001  9.951924e+000
      vertex  3.790302e+001 -3.608225e-016  9.000718e+000
      vertex  3.780056e+001  0.000000e+000  9.951924e+000
    endloop
  endfacet
  facet normal  7.787681e-001  0.000000e+000 -6.273119e-001
    outer loop
      vertex  3.780056e+001 -1.000000e+001  9.951924e+000
      vertex  3.780056e+001  0.000000e+000  9.951924e+000
      vertex  3.840072e+001 -1.000000e+001  1.069698e+001
    endloop
  endfacet
  facet normal  7.787681e-001  0.000000e+000 -6.273119e-001
    outer loop
      vertex  3.840072e+001 -1.000000e+001  1.069698e+001
      vertex  3.780056e+001  0.000000e+000  9.951924e+000
      vertex  3.840072e+001  0.000000e+000  1.069698e+001
    endloop
  endfacet
  facet normal  1.070943e-001  0.000000e+000 -9.942489e-001
    outer loop
      vertex  3.840072e+001 -1.000000e+001  1.069698e+001
      vertex  3.840072e+001  0.000000e+000  1.069698e+001
      vertex  3.935192e+001 -1.000000e+001  1.079944e+001
    endloop
  endfacet
  facet normal  1.070943e-001  0.000000e+000 -9.942489e-001
    outer loop
      vertex  3.935192e+001 -1.000000e+001  1.079944e+001
      vertex  3.840072e+001  0.000000e+000  1.069698e+001
      vertex  3.935192e+001  0.000000e+000  1.079944e+001
    endloop
  endfacet
  facet normal -6.273130e-001  0.000000e+000 -7.787673e-001
    outer loop
      vertex  3.935192e+001 -1.000000e+001  1.079944e+001
      vertex  3.935192e+001  0.000000e+000  1.079944e+001
      vertex  4.009698e+001 -1.000000e+001  1.019928e+001
    endloop
  endfacet
  facet normal -6.273130e-001  0.000000e+000 -7.787673e-001
    outer loop
      vertex  4.009698e+001 -1.000000e+001  1.019928e+001
      vertex  3.935192e+001  0.000000e+000  1.079944e+001
      vertex  4.009698e+001 -3.608225e-016  1.019928e+001
    endloop
  endfacet
  facet normal -9.942487e-001  0.000000e+000 -1.070953e-001
    outer loop
      vertex  4.009698e+001 -1.000000e+001  1.019928e+001
      vertex  4.009698e+001 -3.608225e-016  1.019928e+001
      vertex  4.019944e+001 -1.000000e+001  9.248075e+000
    endloop
  endfacet
  facet normal -9.942487e-001  0.000000e+000 -1.070953e-001
    outer loop
      vertex  4.019944e+001 -1.000000e+001  9.248075e+000
      vertex  4.009698e+001 -3.608225e-016  1.019928e+001
      vertex  4.019944e+001  0.000000e+000  9.248075e+000
    endloop
  endfacet
  facet normal -7.787676e-001  0.000000e+000  6.273125e-001
    outer loop
      vertex  4.019944e+001 -1.000000e+001  9.248075e+000
      vertex  4.019944e+001  0.000000e+000  9.248075e+000
      vertex  3.959928e+001 -1.000000e+001  8.503022e+000
    endloop
  endfacet
  facet normal -7.787676e-001  0.000000e+000  6.273125e-001
    outer loop
      vertex  3.959928e+001 -1.000000e+001  8.503022e+000
      vertex  4.019944e+001  0.000000e+000  9.248075e+000
      vertex  3.959928e+001  0.000000e+000  8.503022e+000
    endloop
  endfacet
  facet normal -1.070953e-001  0.000000e+000  9.942487e-001
    outer loop
      vertex  3.959928e+001 -1.000000e+001  8.503022e+000
      vertex  3.959928e+001  0.000000e+000  8.503022e+000
      vertex  3.864808e+001 -1.000000e+001  8.400563e+000
    endloop
  endfacet
  facet normal -1.070953e-001  0.000000e+000  9.942487e-001
    outer loop
      vertex  3.864808e+001 -1.000000e+001  8.400563e+000
      vertex  3.959928e+001  0.000000e+000  8.503022e+000
      vertex  3.864808e+001  0.000000e+000  8.400563e+000
    endloop
  endfacet
  facet normal  6.273130e-001  0.000000e+000  7.787673e-001
    outer loop
      vertex  3.864808e+001 -1.000000e+001  8.400563e+000
      vertex  3.864808e+001  0.000000e+000  8.400563e+000
      vertex  3.790302e+001 -1.000000e+001  9.000718e+000
    endloop
  endfacet
  facet normal  6.273130e-001  0.000000e+000  7.787673e-001
    outer loop
      vertex  3.790302e+001 -1.000000e+001  9.000718e+000
      vertex  3.864808e+001  0.000000e+000  8.400563e+000
      vertex  3.790302e+001 -3.608225e-016  9.000718e+000
    endloop
  endfacet
  facet normal  0.000000e+000  1.000000e+000  0.000000e+000
    outer loop
      vertex  4.009698e+001 -1.000000e+001  1.019928e+001
      vertex  4.019944e+001 -1.000000e+001  9.248075e+000
      vertex  3.935192e+001 -1.000000e+001  1.079944e+001
    endloop
  endfacet
  facet normal  0.000000e+000  1.000000e+000  0.000000e+000
    outer loop
      vertex  3.935192e+001 -1.000000e+001  1.079944e+001
      vertex  4.019944e+001 -1.000000e+001  9.248075e+000
      vertex  3.959928e+001 -1.000000e+001  8.503022e+000
    endloop
  endfacet
  facet normal  0.000000e+000  1.000000e+000  0.000000e+000
    outer loop
      vertex  3.935192e+001 -1.000000e+001  1.079944e+001
      vertex  3.959928e+001 -1.000000e+001  8.503022e+000
      vertex  3.840072e+001 -1.000000e+001  1.069698e+001
    endloop
  endfacet
  facet normal  0.000000e+000  1.000000e+000  0.000000e+000
    outer loop
      vertex  3.840072e+001 -1.000000e+001  1.069698e+001
      vertex  3.959928e+001 -1.000000e+001  8.503022e+000
      vertex  3.864808e+001 -1.000000e+001  8.400563e+000
    endloop
  endfacet
  facet normal  0.000000e+000  1.000000e+000  0.000000e+000
    outer loop
      vertex  3.840072e+001 -1.000000e+001  1.069698e+001
      vertex  3.864808e+001 -1.000000e+001  8.400563e+000
      vertex  3.780056e+001 -1.000000e+001  9.951924e+000
    endloop
  endfacet
  facet normal  0.000000e+000  1.000000e+000  0.000000e+000
    outer loop
      vertex  3.780056e+001 -1.000000e+001  9.951924e+000
      vertex  3.864808e+001 -1.000000e+001  8.400563e+000
      vertex  3.790302e+001 -1.000000e+001  9.000718e+000
    endloop
  endfacet
  facet normal  9.942487e-001  0.000000e+000  1.070953e-001
    outer loop
      vertex  8.903022e+000 -1.000000e+001  9.000718e+000
      vertex  8.903022e+000 -3.608225e-016  9.000718e+000
      vertex  8.800563e+000 -1.000000e+001  9.951924e+000
    endloop
  endfacet
  facet normal  9.942487e-001  0.000000e+000  1.070953e-001
    outer loop
      vertex  8.800563e+000 -1.000000e+001  9.951924e+000
      vertex  8.903022e+000 -3.608225e-016  9.000718e+000
      vertex  8.800563e+000  0.000000e+000  9.951924e+000
    endloop
  endfacet
  facet normal  7.787681e-001  0.000000e+000 -6.273119e-001
    outer loop
      vertex  8.800563e+000 -1.000000e+001  9.951924e+000
      vertex  8.800563e+000  0.000000e+000  9.951924e+000
      vertex  9.400718e+000 -1.000000e+001  1.069698e+001
    endloop
  endfacet
  facet normal  7.787681e-001  0.000000e+000 -6.273119e-001
    outer loop
      vertex  9.400718e+000 -1.000000e+001  1.069698e+001
      vertex  8.800563e+000  0.000000e+000  9.951924e+000
      vertex  9.400718e+000  0.000000e+000  1.069698e+001
    endloop
  endfacet
  facet normal  1.070943e-001  0.000000e+000 -9.942489e-001
    outer loop
      vertex  9.400718e+000 -1.000000e+001  1.069698e+001
      vertex  9.400718e+000  0.000000e+000  1.069698e+001
      vertex  1.035192e+001 -1.000000e+001  1.079944e+001
    endloop
  endfacet
  facet normal  1.070943e-001  0.000000e+000 -9.942489e-001
    outer loop
      vertex  1.035192e+001 -1.000000e+001  1.079944e+001
      vertex  9.400718e+000  0.000000e+000  1.069698e+001
      vertex  1.035192e+001  0.000000e+000  1.079944e+001
    endloop
  endfacet
  facet normal -6.273119e-001  0.000000e+000 -7.787681e-001
    outer loop
      vertex  1.035192e+001 -1.000000e+001  1.079944e+001
      vertex  1.035192e+001  0.000000e+000  1.079944e+001
      vertex  1.109698e+001 -1.000000e+001  1.019928e+001
    endloop
  endfacet
  facet normal -6.273119e-001  0.000000e+000 -7.787681e-001
    outer loop
      vertex  1.109698e+001 -1.000000e+001  1.019928e+001
      vertex  1.035192e+001  0.000000e+000  1.079944e+001
      vertex  1.109698e+001 -3.608225e-016  1.019928e+001
    endloop
  endfacet
  facet normal -9.942487e-001  0.000000e+000 -1.070953e-001
    outer loop
      vertex  1.109698e+001 -1.000000e+001  1.019928e+001
      vertex  1.109698e+001 -3.608225e-016  1.019928e+001
      vertex  1.119944e+001 -1.000000e+001  9.248075e+000
    endloop
  endfacet
  facet normal -9.942487e-001  0.000000e+000 -1.070953e-001
    outer loop
      vertex  1.119944e+001 -1.000000e+001  9.248075e+000
      vertex  1.109698e+001 -3.608225e-016  1.019928e+001
      vertex  1.119944e+001  0.000000e+000  9.248075e+000
    endloop
  endfacet
  facet normal -7.787676e-001  0.000000e+000  6.273125e-001
    outer loop
      vertex  1.119944e+001 -1.000000e+001  9.248075e+000
      vertex  1.119944e+001  0.000000e+000  9.248075e+000
      vertex  1.059928e+001 -1.000000e+001  8.503022e+000
    endloop
  endfacet
  facet normal -7.787676e-001  0.000000e+000  6.273125e-001
    outer loop
      vertex  1.059928e+001 -1.000000e+001  8.503022e+000
      vertex  1.119944e+001  0.000000e+000  9.248075e+000
      vertex  1.059928e+001  0.000000e+000  8.503022e+000
    endloop
  endfacet
  facet normal -1.070953e-001  0.000000e+000  9.942487e-001
    outer loop
      vertex  1.059928e+001 -1.000000e+001  8.503022e+000
      vertex  1.059928e+001  0.000000e+000  8.503022e+000
      vertex  9.648076e+000 -1.000000e+001  8.400563e+000
    endloop
  endfacet
  facet normal -1.070953e-001  0.000000e+000  9.942487e-001
    outer loop
      vertex  9.648076e+000 -1.000000e+001  8.400563e+000
      vertex  1.059928e+001  0.000000e+000  8.503022e+000
      vertex  9.648076e+000  0.000000e+000  8.400563e+000
    endloop
  endfacet
  facet normal  6.273119e-001  0.000000e+000  7.787681e-001
    outer loop
      vertex  9.648076e+000 -1.000000e+001  8.400563e+000
      vertex  9.648076e+000  0.000000e+000  8.400563e+000
      vertex  8.903022e+000 -1.000000e+001  9.000718e+000
    endloop
  endfacet
  facet normal  6.273119e-001  0.000000e+000  7.787681e-001
    outer loop
      vertex  8.903022e+000 -1.000000e+001  9.000718e+000
      vertex  9.648076e+000  0.000000e+000  8.400563e+000
      vertex  8.903022e+000 -3.608225e-016  9.000718e+000
    endloop
  endfacet
  facet normal  0.000000e+000  1.000000e+000  0.000000e+000
    outer loop
      vertex  1.109698e+001 -1.000000e+001  1.019928e+001
      vertex  1.119944e+001 -1.000000e+001  9.248075e+000
      vertex  1.035192e+001 -1.000000e+001  1.079944e+001
    endloop
  endfacet
  facet normal  0.000000e+000  1.000000e+000  0.000000e+000
    outer loop
      vertex  1.035192e+001 -1.000000e+001  1.079944e+001
      vertex  1.119944e+001 -1.000000e+001  9.248075e+000
      vertex  1.059928e+001 -1.000000e+001  8.503022e+000
    endloop
  endfacet
  facet normal  0.000000e+000  1.000000e+000  0.000000e+000
    outer loop
      vertex  1.035192e+001 -1.000000e+001  1.079944e+001
      vertex  1.059928e+001 -1.000000e+001  8.503022e+000
      vertex  9.400718e+000 -1.000000e+001  1.069698e+001
    endloop
  endfacet
  facet normal  0.000000e+000  1.000000e+000  0.000000e+000
    outer loop
      vertex  9.400718e+000 -1.000000e+001  1.069698e+001
      vertex  1.059928e+001 -1.000000e+001  8.503022e+000
      vertex  9.648076e+000 -1.000000e+001  8.400563e+000
    endloop
  endfacet
  facet normal  0.000000e+000  1.000000e+000  0.000000e+000
    outer loop
      vertex  9.400718e+000 -1.000000e+001  1.069698e+001
      vertex  9.648076e+000 -1.000000e+001  8.400563e+000
      vertex  8.800563e+000 -1.000000e+001  9.951924e+000
    endloop
  endfacet
  facet normal  0.000000e+000  1.000000e+000  0.000000e+000
    outer loop
      vertex  8.800563e+000 -1.000000e+001  9.951924e+000
      vertex  9.648076e+000 -1.000000e+001  8.400563e+000
      vertex  8.903022e+000 -1.000000e+001  9.000718e+000
    endloop
  endfacet
endsolid CATIA STL
